<svg xmlns="http://www.w3.org/2000/svg" width="538.802" height="472.147" viewBox="0 0 538.802 472.147"><g transform="translate(541.001 0) rotate(90)"><g transform="translate(0 0)"><path d="M257.705,72.338V0h-67.57V68.664H69.7C30.617,68.664,0,98.482,0,136.549a67.647,67.647,0,0,0,18.993,47.307c14.4,14.581,35.963,19.776,51.34,19.776v-67.4H193.679a64.034,64.034,0,0,0,64.026-63.9M65.364,134.983h0Z" transform="translate(34.88 2.199)" fill="#511fe5"/><path d="M367.268,67.643A67.6,67.6,0,0,0,299.707.16L.035,0,0,67.57l298.753.159v67.4c37.78,0,68.514-30.274,68.514-67.485" transform="translate(104.879 137.679)" fill="#b380ff"/><path d="M405.112.3,67.591,0a67.484,67.484,0,1,0-.031,134.968V67.674a.608.608,0,0,1,.171-.132l337.319.332Z" transform="translate(0 205.139)" fill="#ef553c"/><path d="M182.064,67.643A67.6,67.6,0,0,0,114.5.161L.094,0,0,67.57l113.55.157v67.4c37.78,0,68.514-30.274,68.514-67.485" transform="translate(103.915 405.873)" fill="#511fe5"/><path d="M282.618,67.57V0H67.559a67.522,67.522,0,1,0,0,135.044V67.718a.748.748,0,0,1,.217-.184Z" transform="translate(37.895 338.519)" fill="#bdf462"/><path d="M313.465,67.643A67.6,67.6,0,0,0,245.9.16L.045,0,0,67.57l244.949.157v65.944c37.779,0,68.515-29.62,68.515-66.028" transform="translate(65.109 272.615)" fill="#249f4f"/><path d="M5.827,11.656A5.828,5.828,0,1,0,0,5.829a5.828,5.828,0,0,0,5.827,5.827" transform="translate(238.19 13.704)" fill="#ededed"/><path d="M5.828,11.656A5.828,5.828,0,1,0,0,5.829a5.828,5.828,0,0,0,5.828,5.827" transform="translate(262.576 13.704)" fill="#ededed"/></g></g></svg>