<?xml version="1.0" encoding="UTF-8"?>
<svg id="Layer_2" data-name="Layer 2" xmlns="http://www.w3.org/2000/svg" viewBox="0 0 538.8 472.06">
  <defs>
    <style>
      .cls-1 {
        fill: #bdf462;
      }

      .cls-2 {
        fill: #249f4f;
      }

      .cls-3 {
        fill: #511fe5;
      }

      .cls-4 {
        fill: #ef553c;
      }

      .cls-5 {
        fill: #ededed;
      }

      .cls-6 {
        fill: #b380ff;
      }
    </style>
  </defs>
  <g id="Layer_1-2" data-name="Layer 1">
    <g>
      <path class="cls-3" d="M466.46,292.49h72.34v-67.57h-68.66v-120.43c0-39.08-29.82-69.7-67.88-69.7-17.64-.08-34.62,6.74-47.31,18.99-14.58,14.4-19.78,35.96-19.78,51.34h67.4v123.35c0,35.31,28.59,63.95,63.9,64.03"/>
      <path class="cls-6" d="M335.68,472.06c37.27-.06,67.46-30.29,67.48-67.56l.16-299.67-67.57-.04-.16,298.75h-67.4c0,37.78,30.27,68.51,67.49,68.51"/>
      <path class="cls-4" d="M335.56,405.02l.3-337.52C335.87,30.23,305.66,0,268.39,0c-37.27,0-67.49,30.2-67.5,67.47h67.29c.05.05.1.11.13.17l-.33,337.32,67.57.06Z"/>
      <path class="cls-3" d="M67.48,285.89c37.27-.07,67.46-30.29,67.48-67.56l.16-114.41-67.57-.09-.16,113.55H0c0,37.78,30.27,68.51,67.49,68.51"/>
      <path class="cls-1" d="M134.71,309.97l67.77,1.03V105.36c0-37.29-30.23-67.52-67.52-67.52s-67.52,30.23-67.52,67.52h67.33c.07.06.14.13.18.22l-.23,204.39Z"/>
      <path class="cls-2" d="M200.74,378.48c37.28-.06,67.46-30.29,67.48-67.57l.16-245.85-67.57-.05-.16,244.95h-65.94c0,37.78,29.62,68.51,66.03,68.51"/>
      <path class="cls-5" d="M515.64,243.93c0,3.22,2.61,5.83,5.83,5.83,3.22,0,5.83-2.61,5.83-5.83,0-3.22-2.61-5.83-5.83-5.83,0,0,0,0,0,0-3.22,0-5.83,2.61-5.83,5.83"/>
      <path class="cls-5" d="M515.64,268.31c0,3.22,2.61,5.83,5.83,5.83s5.83-2.61,5.83-5.83-2.61-5.83-5.83-5.83c0,0,0,0,0,0-3.22,0-5.83,2.61-5.83,5.83"/>
    </g>
  </g>
</svg>