<svg xmlns="http://www.w3.org/2000/svg" xmlns:xlink="http://www.w3.org/1999/xlink" width="48.229" height="29.772" viewBox="0 0 48.229 29.772"><defs><clipPath id="a"><rect width="48.229" height="29.772" fill="none" stroke="#EAEAEA" stroke-width="3"/></clipPath></defs><g clip-path="url(#a)"><path d="M45.469,1.5H0v-3H45.469Z" transform="translate(0 14.886)" fill="#EAEAEA"/><path d="M26.347,29.772h-3a16.4,16.4,0,0,1,9.528-14.887,16.328,16.328,0,0,1-4.728-3.3,16.328,16.328,0,0,1-3.511-5.208A16.284,16.284,0,0,1,23.347,0h3a13.3,13.3,0,0,0,3.92,9.465,13.3,13.3,0,0,0,9.465,3.92v3A13.385,13.385,0,0,0,26.347,29.772Z" transform="translate(8.497 0.001)" fill="#EAEAEA"/></g></svg>