<svg xmlns="http://www.w3.org/2000/svg" width="98.341" height="35.543" viewBox="0 0 98.341 35.543"><g transform="translate(31.221 -0.001)"><g transform="translate(-49.225 0.001)"><path d="M95.046,1.5H0v-3H95.046Z" transform="translate(18.004 17.771)"/><path d="M26.347,35.543h-3A19.291,19.291,0,0,1,35.116,17.786l.036-.015-.036-.015a19.2,19.2,0,0,1-6.125-4.129A19.2,19.2,0,0,1,24.862,7.5,19.152,19.152,0,0,1,23.347,0h3a16.164,16.164,0,0,0,4.766,11.505,16.164,16.164,0,0,0,11.505,4.766v3A16.271,16.271,0,0,0,26.347,35.543Z" transform="translate(73.728)"/></g></g></svg>