<svg xmlns="http://www.w3.org/2000/svg" width="1062" height="396.933" viewBox="0 0 1062 396.933"><path d="M1062,340.921c-13.344,32.831-45.173,56.011-82.276,56.011a89.259,89.259,0,0,1-89.107-89.08l-.053-1.266h.026c0,49.814-39.925,90.346-89,90.346a89.259,89.259,0,0,1-89.107-89.08l-.105-1.266h.053c0,49.814-39.9,90.346-88.975,90.346a89.242,89.242,0,0,1-89.107-89.08l-.158-1.371.105.105c0,49.814-39.925,90.346-88.975,90.346a89.242,89.242,0,0,1-89.107-89.08l-.026-1.239h-.026c-.026,49.788-39.925,90.32-89,90.32a89.259,89.259,0,0,1-89.107-89.08L178,306.376l-.026.237c0,42.852-33.807,90.32-88.447,90.32C39.319,396.933,0,356.559,0,305V89.133L4.72.185A84.425,84.425,0,0,1,88.975,84.6L89,89.107C89,39.978,129.48,0,178.108,0A88,88,0,0,1,241,26.5a90.688,90.688,0,0,1,26.081,63.843l.105-1.239A89.248,89.248,0,0,1,356.294,0c48.337,0,87.762,39.345,88.922,88.131C445.744,39.451,485.985,0,534.3,0c49.076,0,88.975,40.532,89,90.32h.053v5.564l.026-6.777A89.248,89.248,0,0,1,712.483,0c49.049,0,88.975,40.532,88.975,90.32h.026l.079-1.213A89.248,89.248,0,0,1,890.67,0c44.777,0,81.934,33.781,88.078,77.556A89.654,89.654,0,0,1,1062,.158V340.921Z" fill="#b380ff"/></svg>