<svg xmlns="http://www.w3.org/2000/svg" width="1062" height="396.933" viewBox="0 0 1062 396.933"><path d="M1062,56.011C1048.656,23.18,1016.827,0,979.724,0a89.259,89.259,0,0,0-89.107,89.08l-.053,1.266h.026c0-49.814-39.925-90.346-89-90.346a89.259,89.259,0,0,0-89.107,89.08l-.105,1.266h.053C712.43,40.532,672.531,0,623.456,0a89.242,89.242,0,0,0-89.107,89.08l-.158,1.371.105-.105C534.3,40.532,494.371,0,445.322,0a89.242,89.242,0,0,0-89.107,89.08l-.026,1.239h-.026C356.136,40.532,316.237,0,267.161,0a89.259,89.259,0,0,0-89.107,89.08L178,90.557l-.026-.237C177.976,47.467,144.169,0,89.528,0,39.319,0,0,40.374,0,91.928V307.8l4.72,88.948a84.425,84.425,0,0,0,84.254-84.413L89,307.826c0,49.129,40.479,89.107,89.107,89.107A88,88,0,0,0,241,370.43a90.688,90.688,0,0,0,26.081-63.843l.105,1.239a89.248,89.248,0,0,0,89.107,89.107c48.337,0,87.762-39.345,88.922-88.131.527,48.68,40.769,88.131,89.08,88.131,49.076,0,88.975-40.532,89-90.32h.053v-5.564l.026,6.777a89.248,89.248,0,0,0,89.107,89.107c49.049,0,88.975-40.532,88.975-90.32h.026l.079,1.213a89.248,89.248,0,0,0,89.107,89.107c44.777,0,81.934-33.781,88.078-77.556a89.654,89.654,0,0,0,83.252,77.4V56.011Z" fill="#bdf462"/></svg>