<svg xmlns="http://www.w3.org/2000/svg" width="349.05" height="433.881" viewBox="0 0 349.05 433.881"><path d="M349.029,34.91l-.021.5h.01C349.019,15.884,333.372,0,314.14,0a34.98,34.98,0,0,0-34.921,34.91l-.041.5h.021C279.2,15.884,263.562,0,244.33,0a34.974,34.974,0,0,0-34.92,34.91l-.062.537.041-.041C209.389,15.884,193.742,0,174.52,0A34.974,34.974,0,0,0,139.6,34.91l-.01.486h-.01C139.568,15.884,123.932,0,104.7,0a34.98,34.98,0,0,0-34.92,34.91l-.021.579-.01-.093C69.748,18.6,56.5,0,35.086,0,15.409,0,0,15.822,0,36.026L-.021,398.95l1.85,34.858a33.086,33.086,0,0,0,33.019-33.081l.01-1.767a35.089,35.089,0,0,0,34.92,34.92,34.488,34.488,0,0,0,24.648-10.386,35.54,35.54,0,0,0,10.221-25.02l.041.486a34.976,34.976,0,0,0,34.92,34.92c18.943,0,34.393-15.419,34.848-34.538a35.083,35.083,0,0,0,34.91,34.538c19.233,0,34.869-15.884,34.879-35.4h.021V396.3l.01,2.656a34.976,34.976,0,0,0,34.92,34.92c19.222,0,34.869-15.884,34.869-35.4h.01l.031.475a34.976,34.976,0,0,0,34.92,34.92Z" transform="translate(0.021)" fill="#ffffff"/></svg>