<svg xmlns="http://www.w3.org/2000/svg" width="832.006" height="389.258" viewBox="0 0 832.006 389.258"><path d="M-16854.2,12818.3l-.031-.477h-.008c0,19.531-15.672,35.44-34.916,35.44a35.023,35.023,0,0,1-34.969-34.964l-.01-2.657v2.181h-.012c-.023,19.531-15.672,35.44-34.934,35.44a35.124,35.124,0,0,1-34.951-34.585c-.455,19.153-15.936,34.585-34.9,34.585a35.014,35.014,0,0,1-34.969-34.964l-.045-.485a35.6,35.6,0,0,1-10.232,25.053,34.54,34.54,0,0,1-24.678,10.4,35.134,35.134,0,0,1-34.969-34.964l-.01,1.765a33.136,33.136,0,0,1-33.07,33.129l-.336-6.359v6.372a35.184,35.184,0,0,1-32.674-30.37,35.152,35.152,0,0,1-34.562,30.428,35.021,35.021,0,0,1-34.973-34.964l-.031-.477h0c0,19.531-15.67,35.44-34.916,35.44a35.014,35.014,0,0,1-34.969-34.964l-.008-2.657v2.181h-.027c-.008,19.531-15.666,35.44-34.92,35.44a35.13,35.13,0,0,1-34.965-34.585c-.453,19.153-15.926,34.585-34.893,34.585a35.021,35.021,0,0,1-34.969-34.964l-.045-.485a35.59,35.59,0,0,1-10.225,25.053,34.569,34.569,0,0,1-24.682,10.4,35.138,35.138,0,0,1-34.973-34.964l-.01,1.765a33.128,33.128,0,0,1-33.062,33.129l-1.857-34.9v-84.717c0-.192,0-.386,0-.578v-148.119l0-.083v-84.716c0-20.229,15.441-36.072,35.137-36.072,21.443,0,34.717,18.628,34.717,35.445l.01.093.012-.587a35.03,35.03,0,0,1,34.969-34.951c19.254,0,34.916,15.9,34.926,35.445h.018l.008-.494a35.021,35.021,0,0,1,34.969-34.951c19.135,0,34.74,15.729,34.912,35.123l.018-.172a35.021,35.021,0,0,1,34.977-34.951c19.2,0,34.811,15.8,34.908,35.265l.025-.313a35.025,35.025,0,0,1,34.965-34.951c19.188,0,34.814,15.785,34.924,35.242l.01-.291a35.029,35.029,0,0,1,34.969-34.951,34.96,34.96,0,0,1,32.293,21.981v3.4a34.812,34.812,0,0,1,33.623-25.384c21.434,0,34.709,18.628,34.709,35.445l.008.093.014-.587a35.037,35.037,0,0,1,34.977-34.951c19.26,0,34.916,15.9,34.93,35.445h0l.01-.494A35.021,35.021,0,0,1-16994,12464c19.16,0,34.762,15.75,34.916,35.172l.025-.221a35.014,35.014,0,0,1,34.965-34.951c19.166,0,34.766,15.75,34.916,35.172l.018-.221a35.026,35.026,0,0,1,34.969-34.951c19.205,0,34.84,15.821,34.924,35.3l.018-.354a35.023,35.023,0,0,1,34.955-34.951,34.965,34.965,0,0,1,32.295,21.981V12853.2a35.186,35.186,0,0,1-32.674-30.37,35.138,35.138,0,0,1-34.559,30.428A35.026,35.026,0,0,1-16854.2,12818.3Z" transform="translate(17584.004 -12464.002)" fill="#fff"/></svg>