<svg xmlns="http://www.w3.org/2000/svg" width="28.268" height="28.268" viewBox="0 0 28.268 28.268"><g transform="translate(0.368 0.367)"><path d="M12.634-1.5A14.134,14.134,0,0,1,26.768,12.634,14.134,14.134,0,0,1,12.634,26.768,14.134,14.134,0,0,1-1.5,12.634,14.134,14.134,0,0,1,12.634-1.5Zm0,25.268A11.134,11.134,0,0,0,20.507,4.761,11.134,11.134,0,0,0,4.761,20.507,11.061,11.061,0,0,0,12.634,23.768Z" transform="translate(1.132 1.133)" fill="#ef553c"/><path d="M53.021,31.439,50.9,29.317l9.639-9.639L62.66,21.8Z" transform="translate(-43.149 -11.929)" fill="#282828"/><path d="M60.538,31.438,50.9,21.8l2.121-2.121,9.638,9.638Z" transform="translate(-43.149 -11.929)" fill="#282828"/></g></svg>