<svg xmlns="http://www.w3.org/2000/svg" width="31.348" height="28.725" viewBox="0 0 31.348 28.725"><g transform="translate(0.168 2.007)"><path d="M32.184,34.312H10.334a4.632,4.632,0,0,1-4.027-2.433,5.513,5.513,0,0,1,.045-5.53L17.277,7.943a4.543,4.543,0,0,1,7.965,0L36.167,26.349a5.513,5.513,0,0,1,.045,5.53A4.632,4.632,0,0,1,32.184,34.312ZM21.259,8.587a1.651,1.651,0,0,0-1.4.888L8.931,27.88a2.54,2.54,0,0,0-.017,2.515,1.661,1.661,0,0,0,1.42.917H32.184a1.661,1.661,0,0,0,1.42-.917,2.54,2.54,0,0,0-.017-2.515L22.661,9.474A1.651,1.651,0,0,0,21.259,8.587Z" transform="translate(-5.753 -7.594)" fill="#f2bf36"/><path d="M1.5,16.741h-3V6.185h3Z" transform="translate(15.322 -0.899)" fill="#ef553c"/><path d="M1.5,3.294h-3V0h3Z" transform="translate(15.322 18.101)" fill="#ef553c"/></g></svg>