<svg width="24" height="24" viewBox="0 0 24 24" fill="none" xmlns="http://www.w3.org/2000/svg">
<g clip-path="url(#clip0_21_2)">
<path d="M13.4327 1.18991C13.8404 1.29914 14.1435 1.53462 14.3421 1.89635C14.5408 2.25809 14.5831 2.65171 14.4691 3.07721L13.2618 7.58259C13.1478 8.0081 12.9144 8.32783 12.5615 8.54179C12.2086 8.75574 11.8283 8.80811 11.4207 8.69888C11.0131 8.58965 10.7099 8.35417 10.5113 7.99244C10.3127 7.63071 10.2704 7.23709 10.3844 6.81158L11.5916 2.3062C11.7056 1.88069 11.9391 1.56096 12.2919 1.34701C12.6448 1.13305 13.0251 1.08069 13.4327 1.18991ZM0.94887 3.03589C1.28641 2.83123 1.659 2.78352 2.06664 2.89275C2.47428 3.00197 2.7731 3.22959 2.96309 3.57559L5.20124 7.59574C5.40851 7.9732 5.45849 8.36217 5.35118 8.76265C5.24387 9.16313 5.0061 9.475 4.63788 9.69825C4.26965 9.92151 3.88771 9.98013 3.49206 9.87412C3.09641 9.7681 2.79495 9.52637 2.58769 9.14891L0.385504 5.1384C0.195511 4.79239 0.14985 4.41129 0.248522 3.99508C0.347194 3.57888 0.580644 3.25914 0.94887 3.03589ZM23.3211 9.03051C23.5111 9.37651 23.5491 9.76227 23.4351 10.1878C23.321 10.6133 23.0953 10.9284 22.7577 11.133L18.8353 13.5427C18.467 13.7659 18.0911 13.8262 17.7074 13.7234C17.3238 13.6206 17.0283 13.3804 16.821 13.003C16.6138 12.6255 16.5655 12.2303 16.6761 11.8173C16.7868 11.4043 17.0262 11.0862 17.3945 10.8629L21.3069 8.4908C21.6444 8.28614 22.0127 8.23057 22.4117 8.32407C22.8107 8.41757 23.1138 8.65305 23.3211 9.03051Z" fill="#249F4F"/>
</g>
<defs>
<clipPath id="clip0_21_2">
<rect width="24" height="24" fill="white"/>
</clipPath>
</defs>
</svg>
