<svg xmlns="http://www.w3.org/2000/svg" width="2819.575" height="123.325" viewBox="0 0 2819.575 123.325"><g transform="translate(-129.212 0.001)"><path d="M1575.6,12541.818l-.022-.644c0,25.448-20.391,46.149-45.455,46.149a45.586,45.586,0,0,1-45.518-45.506l-.013-3.4v2.77h-.013c-.006,25.439-20.391,46.138-45.452,46.138a45.588,45.588,0,0,1-45.521-45.506l-.032-9.632v8.963h-45.49l.025-31.645a45.728,45.728,0,0,1,45.518-45.5c25.063,0,45.455,20.7,45.455,46.149h-.013v15.306l.057-15.95a45.585,45.585,0,0,1,45.518-45.5c24.691,0,44.829,20.095,45.426,45.019a45.728,45.728,0,0,1,45.505-45.019c25.063,0,45.448,20.7,45.455,46.137h.032v31.038h45.509c0,25.448-20.388,46.149-45.455,46.149A45.586,45.586,0,0,1,1575.6,12541.818Zm-272.988,0-.035-9.632v8.988h.013c0,25.448-20.391,46.149-45.458,46.149a45.586,45.586,0,0,1-45.518-45.506l-.021-.249c-.21,25.268-20.523,45.755-45.456,45.755a45.586,45.586,0,0,1-45.518-45.506l-.024-.231c-.22,25.259-20.526,45.737-45.453,45.737a45.615,45.615,0,0,1-44.675-36.824c-4.261,20.991-22.606,36.824-44.523,36.824-.3,0-.6-.016-.907-.022s-.591.022-.891.022a45.618,45.618,0,0,1-44.678-36.824c-4.258,20.991-22.6,36.824-44.523,36.824-.268,0-.531-.016-.8-.022-.253.007-.5.022-.749.022a44.967,44.967,0,0,1-32.9-14.055v-1.769a45.286,45.286,0,0,1-11.072-29.683l-.009-3.4v2.77h-.013c-.006,25.439-20.395,46.138-45.455,46.138a45.6,45.6,0,0,1-45.12-39.592c-3.146,22.354-22.119,39.592-44.987,39.592a45.586,45.586,0,0,1-45.521-45.506l-.032-9.632v8.988h.009c0,25.448-20.388,46.149-45.455,46.149a45.586,45.586,0,0,1-45.518-45.506l-.024-.283c-.19,25.284-20.508,45.789-45.453,45.789a45.586,45.586,0,0,1-45.518-45.506l-.022-.644c0,25.448-20.391,46.149-45.455,46.149a45.586,45.586,0,0,1-45.521-45.506l-.009-3.4v2.767h-.009c-.009,25.439-20.395,46.138-45.455,46.138a45.586,45.586,0,0,1-45.521-45.506l-.032-9.632v8.881l-.013.116c0,21.9-17.277,46.141-45.186,46.141-25.638,0-45.723-20.625-45.723-46.952v-30.845H167v-45.442h48.8a43.125,43.125,0,0,1,43.035,43.12l.013,2.3a45.728,45.728,0,0,1,45.518-45.5c25.027,0,45.395,20.646,45.455,46.04l.045-.535a45.585,45.585,0,0,1,45.518-45.5c24.691,0,44.829,20.095,45.426,45.016A45.729,45.729,0,0,1,486.313,12464c25.06,0,45.449,20.7,45.455,46.137h.032v2.841l.013-3.473a45.585,45.585,0,0,1,45.518-45.5c25.06,0,45.449,20.7,45.455,46.137h.01v9.083l.035-9.715a45.585,45.585,0,0,1,45.518-45.5c22.878,0,41.85,17.248,44.991,39.6a45.773,45.773,0,0,1,45.117-39.6c25.019,0,45.381,20.624,45.458,46l.042-.5a45.585,45.585,0,0,1,45.518-45.5,44.788,44.788,0,0,1,11.031,1.377v-.009a42.677,42.677,0,0,1,8.251,3,46.2,46.2,0,0,1,25.221,32.5A45.8,45.8,0,0,1,938.65,12464c.294,0,.581.019.872.022s.588-.022.885-.022c21.977,0,40.359,15.918,44.555,37a45.61,45.61,0,0,1,44.706-37c24.691,0,44.833,20.095,45.426,45.016A45.729,45.729,0,0,1,1120.6,12464c25.06,0,45.452,20.7,45.455,46.137h.035v2.841l.01-3.473a45.585,45.585,0,0,1,45.518-45.5c25.06,0,45.448,20.7,45.455,46.137h.013l.031-.632a45.585,45.585,0,0,1,45.518-45.5c25.067,0,45.455,20.7,45.455,46.149h-.01v31.025h45.509c0,25.448-20.391,46.149-45.455,46.149A45.586,45.586,0,0,1,1302.615,12541.818Zm-273-.644h.009l-.009-2.755Zm-90.986,0v-.054Zm-134.716-31.025Zm-454.094,0Zm-173.4-14.541a3.807,3.807,0,1,0,3.8-3.806A3.805,3.805,0,0,0,176.418,12495.608Zm0-17.6a3.807,3.807,0,1,0,3.8-3.81A3.806,3.806,0,0,0,176.418,12478Z" transform="translate(-37.789 -12464.001)" fill="#bdf462"/><path d="M1408.6,45.506l-.022.644C1408.58,20.7,1388.189,0,1363.125,0a45.586,45.586,0,0,0-45.518,45.506l-.013,3.4v-2.77h-.013C1317.576,20.7,1297.191,0,1272.13,0a45.588,45.588,0,0,0-45.521,45.506l-.032,9.632V46.175h-45.49l.025,31.645a45.728,45.728,0,0,0,45.518,45.5c25.063,0,45.455-20.7,45.455-46.149h-.013V61.869l.057,15.95a45.585,45.585,0,0,0,45.518,45.5c24.691,0,44.829-20.095,45.426-45.019a45.728,45.728,0,0,0,45.505,45.019c25.063,0,45.448-20.7,45.455-46.137h.032V46.149h45.509C1499.575,20.7,1479.187,0,1454.12,0A45.586,45.586,0,0,0,1408.6,45.506Zm-272.988,0-.035,9.632V46.149h.013C1135.592,20.7,1115.2,0,1090.134,0a45.586,45.586,0,0,0-45.518,45.506l-.021.249C1044.385,20.487,1024.072,0,999.139,0a45.586,45.586,0,0,0-45.518,45.506l-.024.231C953.377,20.479,933.071,0,908.144,0a45.615,45.615,0,0,0-44.675,36.824C859.208,15.833,840.863,0,818.946,0c-.3,0-.6.016-.907.022S817.449,0,817.149,0a45.618,45.618,0,0,0-44.678,36.824C768.213,15.833,749.868,0,727.948,0c-.268,0-.531.016-.8.022C726.9.016,726.653,0,726.4,0a44.967,44.967,0,0,0-32.9,14.055v1.769A45.286,45.286,0,0,0,682.43,45.506l-.009,3.4v-2.77h-.013C682.4,20.7,662.013,0,636.953,0a45.6,45.6,0,0,0-45.12,39.592C588.686,17.238,569.713,0,546.845,0a45.586,45.586,0,0,0-45.521,45.506l-.032,9.632V46.149h.009C501.3,20.7,480.914,0,455.847,0a45.586,45.586,0,0,0-45.518,45.506l-.024.283C410.115,20.5,389.8,0,364.852,0a45.586,45.586,0,0,0-45.518,45.506l-.022.644C319.312,20.7,298.921,0,273.857,0a45.586,45.586,0,0,0-45.521,45.506l-.009,3.4V46.138h-.009C228.307,20.7,207.922,0,182.862,0a45.586,45.586,0,0,0-45.521,45.506l-.032,9.632V46.257l-.013-.116C137.3,24.242,120.02,0,92.11,0,66.472,0,46.387,20.625,46.387,46.952V77.8H0v45.442H48.8a43.125,43.125,0,0,0,43.035-43.12l.013-2.3a45.728,45.728,0,0,0,45.518,45.5c25.027,0,45.395-20.646,45.455-46.04l.045.535a45.585,45.585,0,0,0,45.518,45.5c24.691,0,44.829-20.095,45.426-45.016a45.729,45.729,0,0,0,45.505,45.016c25.06,0,45.448-20.7,45.455-46.137h.032V74.347l.013,3.473a45.585,45.585,0,0,0,45.518,45.5c25.06,0,45.449-20.7,45.455-46.137h.01V68.1l.035,9.715a45.585,45.585,0,0,0,45.518,45.5c22.878,0,41.85-17.248,44.991-39.6a45.773,45.773,0,0,0,45.117,39.6c25.019,0,45.381-20.624,45.458-46l.042.5a45.585,45.585,0,0,0,45.518,45.5,44.788,44.788,0,0,0,11.031-1.377v.009a42.677,42.677,0,0,0,8.251-3,46.2,46.2,0,0,0,25.221-32.5,45.8,45.8,0,0,0,44.675,36.862c.294,0,.581-.019.872-.022s.588.022.885.022c21.977,0,40.359-15.918,44.555-37a45.61,45.61,0,0,0,44.706,37c24.691,0,44.833-20.095,45.426-45.016A45.729,45.729,0,0,0,953.6,123.324c25.06,0,45.452-20.7,45.455-46.137h.035V74.347l.01,3.473a45.585,45.585,0,0,0,45.518,45.5c25.06,0,45.448-20.7,45.455-46.137h.013l.031.632a45.585,45.585,0,0,0,45.518,45.5c25.067,0,45.455-20.7,45.455-46.149h-.01V46.149h45.509C1226.587,20.7,1206.2,0,1181.132,0A45.586,45.586,0,0,0,1135.614,45.506Zm-273,.644h.009l-.009,2.755Zm-90.986,0V46.2ZM636.912,77.175Zm-454.094,0ZM9.417,91.716a3.807,3.807,0,1,1,3.8,3.806A3.805,3.805,0,0,1,9.417,91.716Zm0,17.6a3.807,3.807,0,1,1,3.8,3.81A3.806,3.806,0,0,1,9.417,109.32Z" transform="translate(2948.787 123.324) rotate(180)" fill="#bdf462"/></g></svg>