<svg xmlns="http://www.w3.org/2000/svg" xmlns:xlink="http://www.w3.org/1999/xlink" width="171" height="54.596" viewBox="0 0 171 54.596"><defs><clipPath id="a"><rect width="171" height="54.595" fill="#ededed"/></clipPath></defs><g clip-path="url(#a)"><path d="M326.164,44.032a8.9,8.9,0,0,0,3.614-3.718,12.5,12.5,0,0,0,1.313-5.818,12.778,12.778,0,0,0-1.334-5.919,9.652,9.652,0,0,0-3.645-3.877,10.6,10.6,0,0,0-5.486-1.386,10.767,10.767,0,0,0-5.442,1.343,9.369,9.369,0,0,0-3.707,3.859,12.6,12.6,0,0,0-1.352,5.937,12.191,12.191,0,0,0,1.332,5.821,9.044,9.044,0,0,0,3.692,3.737,12.21,12.21,0,0,0,11.016.019ZM320.587,28.7a4.624,4.624,0,0,1,2.921.807,4.9,4.9,0,0,1,1.572,2.155,7.938,7.938,0,0,1,.5,2.8,7.744,7.744,0,0,1-.5,2.774A4.44,4.44,0,0,1,323.5,39.3a4.914,4.914,0,0,1-2.911.783,4.779,4.779,0,0,1-2.87-.783,4.467,4.467,0,0,1-1.582-2.044,7.662,7.662,0,0,1-.5-2.793,7.794,7.794,0,0,1,.5-2.8,4.86,4.86,0,0,1,1.59-2.156,4.564,4.564,0,0,1,2.859-.809Z" transform="translate(-230.784 -17.214)" fill="#ededed"/><path d="M420.778,28.306a7.354,7.354,0,0,0-2.371-3.62,7.449,7.449,0,0,0-4.734-1.362,11.375,11.375,0,0,0-2.187.24,8.249,8.249,0,0,0-2.311.876,6.717,6.717,0,0,0-1.562,1.211l-.222-1.975h-5.608V44.983h5.988V34.465a8.487,8.487,0,0,1,.478-2.906,4.538,4.538,0,0,1,1.43-2.052,3.865,3.865,0,0,1,2.386-.722,3.462,3.462,0,0,1,1.828.574,2.939,2.939,0,0,1,1.024,1.134,5.491,5.491,0,0,1,.525,1.632,11.526,11.526,0,0,1,.15,1.833V44.985H421.5V33.252A15.919,15.919,0,0,0,420.778,28.306Z" transform="translate(-298.994 -17.22)" fill="#ededed"/><path d="M411.8,145.123a8.672,8.672,0,0,0,2.384-.875,6.73,6.73,0,0,0,1.562-1.211l.222,1.975H421.5V123.253h-5.913v10.969a8.046,8.046,0,0,1-.478,2.83,4.325,4.325,0,0,1-1.43,1.978,4.086,4.086,0,0,1-2.459.722,3.208,3.208,0,0,1-1.753-.423,2.935,2.935,0,0,1-1.024-1.134,5.5,5.5,0,0,1-.525-1.632,11.539,11.539,0,0,1-.15-1.833V123.25h-5.988v12.186a15.918,15.918,0,0,0,.727,4.945,6.806,6.806,0,0,0,7.177,4.982,10.691,10.691,0,0,0,2.115-.241Z" transform="translate(-298.994 -90.997)" fill="#ededed"/><path d="M72.882,34.894a12.754,12.754,0,0,1-.251,2.869,4.514,4.514,0,0,1-1.215,2.174,3.851,3.851,0,0,1-2.686.841,4.357,4.357,0,0,1-2.205-.484,3.059,3.059,0,0,1-1.15-1.264,5.416,5.416,0,0,1-.507-1.777,18,18,0,0,1-.114-2V24.8H59.011V36.528a14.919,14.919,0,0,0,.807,5.072,6.726,6.726,0,0,0,2.666,3.372,8.989,8.989,0,0,0,5.742,1.452,8.079,8.079,0,0,0,5.491-2.118,56.989,56.989,0,0,1-.894,8.217l-.91-.27C62.525,49.563,46.832,46.966,44.2,57.2c-1.256,4.9.861,10.205,6.484,13.172a20.183,20.183,0,0,0,9.186,2.259,16.3,16.3,0,0,0,14.569-8.455,21.945,21.945,0,0,0,2.079-4.969,68.555,68.555,0,0,0,16.694,3.047c7.6.272,11.962-.51,18.369-3.864l-2.562-3.954c-3.426,1.894-8.154,3.224-15.148,2.967C87.784,57.18,79.937,54.8,77.81,54.027c.429-2.832.781-6.233.928-9.277.1-1.359.191-3.581.191-3.581.062-2.761.049-5.429,0-7.714V24.8H72.882V34.894ZM49.893,59c.615-3.729,4.1-4.234,8.059-4.234,2.722,0,5.191.508,10.176,1.9.564.156,1.605.531,2.223.759.507.185,1.458.606,1.458.606A15.462,15.462,0,0,1,69,63.161c-5.008,4.929-10.6,4.623-14.677,2.761C51.465,64.616,49.469,61.57,49.89,59Z" transform="translate(-32.635 -18.31)" fill="#ededed"/><path d="M0,32.547H5.9V22.715h5.186a15.061,15.061,0,0,0,6.269-1.246A10,10,0,0,0,21.733,17.7a11.4,11.4,0,0,0,1.608-6.236A12.514,12.514,0,0,0,21.888,5.15a8.622,8.622,0,0,0-4.08-3.557A15.536,15.536,0,0,0,11.7.485H0V32.55ZM5.9,6.16h5.533a6.466,6.466,0,0,1,4.468,1.314,5.076,5.076,0,0,1,1.411,3.9,5.285,5.285,0,0,1-1.7,4.356,7.172,7.172,0,0,1-4.612,1.393H5.9V6.16Z" transform="translate(0 -0.358)" fill="#ededed"/><path d="M202.043,2.1a13.469,13.469,0,0,0-5.021,5.821,20.119,20.119,0,0,0-1.709,8.5,20.272,20.272,0,0,0,1.665,8.455,12.947,12.947,0,0,0,4.982,5.733,15.119,15.119,0,0,0,8.121,2.06,15.724,15.724,0,0,0,6.248-1.2A11.9,11.9,0,0,0,220.966,28a10.925,10.925,0,0,0,2.283-5.337l.06-.368h-6.063l.023.064a5.591,5.591,0,0,1-1.324,2.409,6.38,6.38,0,0,1-2.384,1.584,9.309,9.309,0,0,1-3.356.556,8.061,8.061,0,0,1-5.023-1.486,8.531,8.531,0,0,1-2.844-3.93,15.328,15.328,0,0,1-.9-5.289,14.673,14.673,0,0,1,.863-5.112,8.425,8.425,0,0,1,2.761-3.842,9.307,9.307,0,0,1,9.669-.257,5.794,5.794,0,0,1,2.329,3.364l.062.233h5.8l-.054-.362A11.918,11.918,0,0,0,220.671,4.7a11.308,11.308,0,0,0-4.4-3.48,16.356,16.356,0,0,0-14.23.883Z" transform="translate(-145.346 0)" fill="#ededed"/><path d="M321.984,120.585a16.634,16.634,0,0,0-9.344,2.851l2.376,3.877a14.5,14.5,0,0,1,7.009-2.15c3.79.048,4.457,2.7,4.512,4.065a38.7,38.7,0,0,0-7.722.124,11.707,11.707,0,0,0-3.3,1.121,5.477,5.477,0,0,0-2.384,2.16,6.728,6.728,0,0,0-.913,3.66,7.334,7.334,0,0,0,.685,3.078,6.612,6.612,0,0,0,1.867,2.253,7.645,7.645,0,0,0,2.479,1.343,8.572,8.572,0,0,0,2.792.415,14.086,14.086,0,0,0,2.208-.164,9.187,9.187,0,0,0,2.748-.928,6.235,6.235,0,0,0,1.947-1.587l.1,2.338h5.222v-11.6c0-3.53-.667-5.445-2.205-7.423a10.127,10.127,0,0,0-8.074-3.438Zm4.7,12.966a4.268,4.268,0,0,1-.739,2.475,4.809,4.809,0,0,1-2,1.6,6.517,6.517,0,0,1-2.906.674,4.656,4.656,0,0,1-1.75-.315,3,3,0,0,1-1.29-.854,2.131,2.131,0,0,1-.525-1.436,2.107,2.107,0,0,1,.476-1.412,2.724,2.724,0,0,1,1.176-.764,7.482,7.482,0,0,1,1.74-.333,57.026,57.026,0,0,1,5.817-.063v.428Z" transform="translate(-232.341 -89.025)" fill="#ededed"/><path d="M527.3,110.86a8.151,8.151,0,0,0,1.068-2.438,11.749,11.749,0,0,0,.334-2.906,8.593,8.593,0,0,0-1.125-4.32,8.819,8.819,0,0,0-3.051-3.18,8.392,8.392,0,0,0-8.6-.029,8.815,8.815,0,0,0-3.08,3.15,8.54,8.54,0,0,0-1.154,4.379h1.6a7.016,7.016,0,0,1,.906-3.5,7.11,7.11,0,0,1,2.469-2.585,6.829,6.829,0,0,1,7-.019,7.21,7.21,0,0,1,2.5,2.555,6.914,6.914,0,0,1,.935,3.551,9.88,9.88,0,0,1-.515,3.248,8.028,8.028,0,0,1-2.269,3.112l-12.853,11.977-.038,1.639h17.278v-1.639H513.828l11.559-10.768a11.807,11.807,0,0,0,1.917-2.224" transform="translate(-380.589 -71.48)" fill="#ededed"/><path d="M613.916,112.012a9.542,9.542,0,0,0-3.318-3.394,8.654,8.654,0,0,0-4.6-1.268A8.4,8.4,0,0,0,601.2,108.8a10.149,10.149,0,0,0-2.747,2.724V106.18a7.642,7.642,0,0,1,.992-3.824,7.845,7.845,0,0,1,2.7-2.828,7.449,7.449,0,0,1,7.685-.01,7.617,7.617,0,0,1,2.7,2.8l1.374-.819a9.068,9.068,0,0,0-3.271-3.394,8.988,8.988,0,0,0-9.239-.019,9.465,9.465,0,0,0-3.309,3.394,9.225,9.225,0,0,0-1.23,4.7v10.534a9.162,9.162,0,0,0,1.24,4.7,9.54,9.54,0,0,0,3.318,3.395,8.967,8.967,0,0,0,9.192,0,9.538,9.538,0,0,0,3.318-3.395,9.538,9.538,0,0,0,0-9.4m-1.373,8.6a7.663,7.663,0,0,1-2.727,2.789,7.551,7.551,0,0,1-7.629,0,7.823,7.823,0,0,1,0-13.381,7.553,7.553,0,0,1,7.629,0,7.914,7.914,0,0,1,2.727,10.592" transform="translate(-444.155 -71.481)" fill="#ededed"/></g></svg>