<svg xmlns="http://www.w3.org/2000/svg" xmlns:xlink="http://www.w3.org/1999/xlink" width="1366" height="110" viewBox="0 0 1366 110"><defs><clipPath id="a"><rect width="1366" height="110" fill="#fff" stroke="#707070" stroke-width="1"/></clipPath><clipPath id="b"><rect width="2068.682" height="58.522" fill="none"/></clipPath></defs><g clip-path="url(#a)"><g transform="translate(-252.637 -45.188)"><g transform="translate(0 0)" clip-path="url(#b)"><path d="M154.7,58.522H17.94A17.94,17.94,0,0,1,0,40.582V17.94A17.94,17.94,0,0,1,17.94,0H154.7a17.94,17.94,0,0,1,17.94,17.94V40.582a17.94,17.94,0,0,1-17.94,17.94" transform="translate(0 0)" fill="#511fe5"/><path d="M352.22,58.522H215.458a17.94,17.94,0,0,1-17.94-17.94V17.94A17.94,17.94,0,0,1,215.458,0H352.22a17.94,17.94,0,0,1,17.94,17.94V40.582a17.94,17.94,0,0,1-17.94,17.94" transform="translate(-25.48 0)" fill="#b280ff"/><path d="M550.737,58.522H413.975a17.94,17.94,0,0,1-17.94-17.94V17.94A17.94,17.94,0,0,1,413.975,0H550.737a17.94,17.94,0,0,1,17.94,17.94V40.582a17.94,17.94,0,0,1-17.94,17.94" transform="translate(-51.089 0)" fill="#259f4f"/><path d="M748.255,58.522H611.493a17.94,17.94,0,0,1-17.94-17.94V17.94A17.94,17.94,0,0,1,611.493,0H748.255a17.94,17.94,0,0,1,17.94,17.94V40.582a17.94,17.94,0,0,1-17.94,17.94" transform="translate(-75.568 0)" fill="#bdf461"/><path d="M945.772,58.522H809.01a17.94,17.94,0,0,1-17.94-17.94V17.94A17.94,17.94,0,0,1,809.01,0H945.772a17.94,17.94,0,0,1,17.94,17.94V40.582a17.94,17.94,0,0,1-17.94,17.94" transform="translate(-100.048 0)" fill="#ef553c"/><path d="M1143.289,58.522H1006.527a17.94,17.94,0,0,1-17.94-17.94V17.94A17.94,17.94,0,0,1,1006.527,0h136.762a17.94,17.94,0,0,1,17.94,17.94V40.582a17.94,17.94,0,0,1-17.94,17.94" transform="translate(-124.528 0)" fill="#f2bf36"/><path d="M1342.969,58.522H1206.208a17.94,17.94,0,0,1-17.94-17.94V17.94A17.94,17.94,0,0,1,1206.208,0h136.761a17.94,17.94,0,0,1,17.94,17.94V40.582a17.94,17.94,0,0,1-17.94,17.94" transform="translate(-151.287 0)" fill="#511fe5"/><path d="M1540.488,58.522H1403.726a17.941,17.941,0,0,1-17.941-17.94V17.94A17.941,17.941,0,0,1,1403.726,0h136.762a17.94,17.94,0,0,1,17.94,17.94V40.582a17.94,17.94,0,0,1-17.94,17.94" transform="translate(-175.767 0)" fill="#b280ff"/><path d="M1739.005,58.522H1602.243a17.94,17.94,0,0,1-17.94-17.94V17.94A17.94,17.94,0,0,1,1602.243,0h136.762a17.94,17.94,0,0,1,17.94,17.94V40.582a17.94,17.94,0,0,1-17.94,17.94" transform="translate(-201.376 0)" fill="#259f4f"/><path d="M1936.523,58.522H1799.761a17.94,17.94,0,0,1-17.941-17.94V17.94A17.94,17.94,0,0,1,1799.761,0h136.762a17.94,17.94,0,0,1,17.94,17.94V40.582a17.94,17.94,0,0,1-17.94,17.94" transform="translate(-225.856 0)" fill="#bdf461"/><path d="M2134.04,58.522H1997.278a17.94,17.94,0,0,1-17.94-17.94V17.94A17.94,17.94,0,0,1,1997.278,0H2134.04a17.94,17.94,0,0,1,17.94,17.94V40.582a17.94,17.94,0,0,1-17.94,17.94" transform="translate(-255.335 0)" fill="#ef553c"/><path d="M2331.557,58.522H2194.795a17.94,17.94,0,0,1-17.94-17.94V17.94A17.94,17.94,0,0,1,2194.795,0h136.762a17.941,17.941,0,0,1,17.94,17.94V40.582a17.94,17.94,0,0,1-17.94,17.94" transform="translate(-280.815 0)" fill="#f2bf36"/></g></g></g></svg>