<svg xmlns="http://www.w3.org/2000/svg" xmlns:xlink="http://www.w3.org/1999/xlink" width="1613.047" height="132.655" viewBox="0 0 1613.047 132.655"><defs><clipPath id="a"><rect width="1613.047" height="132.655" fill="#b380ff"/></clipPath></defs><g transform="translate(0 0)"><g transform="translate(0 0)" clip-path="url(#a)"><path d="M1170.435,83.015V49.627h-.033C1170.394,22.262,1148.464,0,1121.506,0a49.19,49.19,0,0,0-48.949,48.425c-.64-26.81-22.3-48.425-48.864-48.425a49.037,49.037,0,0,0-48.964,48.949l-.058,17.157V49.64h.012C974.683,22.269,952.749,0,925.788,0a49.192,49.192,0,0,0-48.964,48.949L876.8,82.986h48.93V73.347l.035,10.36a49.036,49.036,0,0,0,48.964,48.948c26.957,0,48.887-22.262,48.894-49.627h.012V80.049l.013,3.659a49.035,49.035,0,0,0,48.962,48.948c26.961,0,48.9-22.268,48.9-49.64h-48.952v-.057h48.9V59.944l.08,23.763a49.035,49.035,0,0,0,48.962,48.948c26.963,0,48.9-22.268,48.9-49.64Z" transform="translate(393.66 0)" fill="#b380ff"/><path d="M1270.449,49.64h.012c0-27.371-21.933-49.64-48.894-49.64A49.037,49.037,0,0,0,1172.6,48.949l-.035,10.447V49.627h-.012C1172.549,22.262,1150.618,0,1123.662,0A49.038,49.038,0,0,0,1074.7,48.949l-.012,3.735V49.627h-.035C1074.646,22.262,1052.714,0,1025.757,0a49.189,49.189,0,0,0-48.949,48.423C976.168,21.613,954.5,0,927.943,0a49.065,49.065,0,0,0-48.09,39.8C875.342,17.124,855.57,0,831.928,0c-.319,0-.633.017-.951.025S830.355,0,830.04,0a49.264,49.264,0,0,0-48.057,39.653A49.678,49.678,0,0,0,754.856,4.7a45.876,45.876,0,0,0-8.876-3.225v.01A48.149,48.149,0,0,0,734.114,0a49.036,49.036,0,0,0-48.962,48.949l-.058,17.157V49.64h.012c0-27.371-21.933-49.64-48.9-49.64a49.238,49.238,0,0,0-48.532,42.6C584.3,18.554,563.89,0,539.283,0A49.037,49.037,0,0,0,490.32,48.949L490.285,59.4V49.627h-.012C490.266,22.262,468.336,0,441.379,0a49.037,49.037,0,0,0-48.964,48.949l-.012,3.735V49.627h-.035C392.362,22.262,370.432,0,343.475,0a49.189,49.189,0,0,0-48.949,48.423C293.884,21.613,272.22,0,245.66,0A49.036,49.036,0,0,0,196.7,48.949l-.058,17.157V49.64h.012C196.652,22.269,174.719,0,147.758,0A49.192,49.192,0,0,0,98.794,48.949l-.013,19V46.474A46.389,46.389,0,0,0,52.491.09H0V48.971H49.9v33.18c0,28.319,21.6,50.5,49.184,50.5,30.021,0,48.6-26.077,48.6-49.632h-48.9V82.9H147.7V73.347l.035,10.36A49.035,49.035,0,0,0,196.7,132.655c26.957,0,48.887-22.262,48.894-49.627h.012V80.051l.012,3.656a49.035,49.035,0,0,0,48.964,48.948c26.961,0,48.894-22.268,48.894-49.64H294.521v-.057h48.9V59.944l.08,23.763a49.035,49.035,0,0,0,48.962,48.948c26.961,0,48.9-22.268,48.9-49.64h-.035V66.654l.058,17.053a49.035,49.035,0,0,0,48.962,48.948c26.962,0,48.9-22.268,48.9-49.64h-.012V73.347l.035,10.36a49.035,49.035,0,0,0,48.964,48.948c24.6,0,45.006-18.544,48.391-42.585a49.051,49.051,0,0,0,48.535,42.585c26.958,0,48.888-22.262,48.9-49.627h.012V80.049l.012,3.659a48.7,48.7,0,0,0,11.911,31.928v1.9a48.367,48.367,0,0,0,35.385,15.119c.272,0,.536-.017.806-.022.288.006.572.022.862.022,23.578,0,43.308-17.03,47.89-39.611a49.067,49.067,0,0,0,48.058,39.611c.322,0,.639-.017.959-.025s.648.025.974.025c23.578,0,43.31-17.03,47.891-39.611a49.065,49.065,0,0,0,48.057,39.611c26.961,0,48.894-22.268,48.894-49.64H976.8v-.057h48.9V59.944l.08,23.763a49.035,49.035,0,0,0,48.962,48.948c26.961,0,48.9-22.268,48.9-49.64h-.035V66.654l.058,17.053a49.035,49.035,0,0,0,48.962,48.948c26.963,0,48.9-22.268,48.9-49.64h-.012V73.347l.035,10.36a49.035,49.035,0,0,0,48.964,48.948c26.961,0,48.894-22.268,48.894-49.64h-48.952ZM14.223,38.094A4.095,4.095,0,1,1,18.318,34a4.094,4.094,0,0,1-4.095,4.095m0-18.937a4.095,4.095,0,1,1,4.095-4.095,4.094,4.094,0,0,1-4.095,4.095M588.166,83.015v-.029h47.987V73.347l.032,9.668Zm194.809,0v-.057h47.041v.057Zm144.912,0V80.051l.01,2.963Z" transform="translate(0 0)" fill="#b380ff"/></g></g></svg>