<svg xmlns="http://www.w3.org/2000/svg" width="28.268" height="28.268" viewBox="0 0 28.268 28.268"><g transform="translate(-209.652 -1391.5)"><g transform="translate(224 1397.455)"><path d="M1.5,11.26h-3V0h3Z" transform="translate(0 5.553)" fill="#511fe5"/><path d="M1.5,3.294h-3V0h3Z" transform="translate(0 0)" fill="#511fe5"/></g><path d="M12.634-1.5A14.134,14.134,0,0,1,26.768,12.634,14.134,14.134,0,0,1,12.634,26.768,14.134,14.134,0,0,1-1.5,12.634,14.134,14.134,0,0,1,12.634-1.5Zm0,25.268A11.134,11.134,0,0,0,20.507,4.761,11.134,11.134,0,0,0,4.761,20.507,11.061,11.061,0,0,0,12.634,23.768Z" transform="translate(211.152 1393)" fill="#b380ff"/></g></svg>