<svg width="798" height="154" viewBox="0 0 798 154" fill="none" xmlns="http://www.w3.org/2000/svg">
<g clip-path="url(#clip0_26_5)">
<path d="M626.804 14.5751C626.9 14.0466 600.528 11.6789 597.064 37.9729C597.064 37.9729 568.724 51.074 544.908 93.1757C544.908 93.1757 580.342 46.7946 600.032 50.3276C605.374 51.2862 607.254 55.0376 609.459 58.2014C609.459 58.2014 611.219 70.4198 635 83.8805C659.192 97.5737 693.508 103.654 693.508 103.654C693.508 103.654 689.109 115.413 679.667 124.812C679.667 124.812 655.222 129.089 656.704 130.622C658.187 132.155 666.821 130.878 666.821 130.878C666.821 130.878 669.919 131.043 668.35 138.659C668.35 138.659 687.01 130.016 689.856 133.743C689.856 133.743 687.073 124.519 698.298 116.735C709.522 108.952 711.403 109.63 715.19 110.31C718.881 110.972 723.382 116.362 719.177 139.687C719.177 139.687 691.164 138.385 684.941 145.828C682.681 148.531 701.7 146.105 701.7 146.105L704.268 153C704.268 153 714.592 144.519 728.487 149.839C728.487 149.839 724.421 142.578 728.402 136.76C742.825 120.806 759.082 106.512 775.245 92.1314C775.245 92.1314 813.561 77.0946 788.278 40.8099C762.996 4.52521 746.215 -1.14953 713.44 1.59798C695.793 3.94526 682.023 9.98321 647.579 23.213C647.579 23.213 626.709 15.1036 626.804 14.5751Z" fill="#A36818" stroke="#A36818" stroke-width="1.11803"/>
<path d="M624.408 35C627.446 35 629.908 32.7614 629.908 30C629.908 27.2386 627.446 25 624.408 25C621.371 25 618.908 27.2386 618.908 30C618.908 32.7614 621.371 35 624.408 35Z" fill="#20FC00" stroke="#20FC00" stroke-width="2.23607"/>
<path d="M618.655 27.9338L488.91 77.4865L490.581 80.9141L620.038 31.2511L618.655 27.9338Z" fill="#20FC00"/>
<path d="M481.529 60.6442L481.063 73.6573L484.671 73.788L485.137 60.7749L481.529 60.6442Z" fill="#1BFE00"/>
<path d="M494.166 64.3841L485.944 74.2873L488.719 76.5943L496.942 66.6877L494.166 64.3841Z" fill="#1BFE00"/>
<path d="M492.364 84.7951L492.915 88.3606L505.812 86.3598L505.26 82.7942L492.364 84.7951Z" fill="#1BFE00"/>
<path d="M492.764 90.7625L491.809 94.2418L504.072 97.6126L505.031 94.1345L492.764 90.7625Z" fill="#1BFE00"/>
<g clip-path="url(#clip1_26_5)">
<path d="M268.632 73.6795C272.96 71.2923 276.376 67.9656 278.777 63.4622C281.162 58.9757 282.464 53.592 282.464 47.4803C282.464 41.3685 281.153 35.7477 278.718 31.219C276.283 26.6817 272.842 23.101 268.488 20.57C264.134 18.0389 258.951 16.7607 253.092 16.7607C247.232 16.7607 242.235 18.0051 237.814 20.4515C233.383 22.9063 229.874 26.4786 227.406 31.0497C224.945 35.6038 223.609 41.0892 223.609 47.3617C223.609 53.6343 224.92 58.8742 227.346 63.3521C229.781 67.8555 233.273 71.1992 237.712 73.6202C242.126 76.0327 247.334 77.2517 253.201 77.2517C259.069 77.2517 264.337 76.0497 268.64 73.671H268.632V73.6795ZM252.982 31.5576C256.44 31.5576 259.204 32.2517 261.183 33.7754C263.195 35.3245 264.683 37.3222 265.596 39.7009C266.535 42.1388 267.008 44.7291 267.008 47.3871C267.008 50.0452 266.535 52.6101 265.596 55.0057C264.692 57.342 263.195 59.2466 261.157 60.6772C259.137 62.0993 256.38 62.8273 252.99 62.8273C249.6 62.8273 246.962 62.0993 244.933 60.6772C242.895 59.2466 241.407 57.3589 240.494 55.0564C239.555 52.7032 239.082 50.1213 239.082 47.3871C239.082 44.6529 239.564 42.1388 240.494 39.7094C241.407 37.3307 242.912 35.3414 244.958 33.7839C246.979 32.2602 249.676 31.5576 252.982 31.5576Z" fill="#282828"/>
<path d="M342.755 30.4571C341.377 26.3262 339.272 22.974 336.101 20.5107C332.905 18.022 328.441 16.7692 322.81 16.7692C321.043 16.7692 318.837 16.9978 316.672 17.4295C314.491 17.8696 312.301 18.6823 310.187 19.8335C308.598 20.7054 307.127 21.8143 305.808 23.1603L305.182 17.7342H289.439V76.2782H306.247V47.3787C306.247 44.5514 306.695 41.724 307.592 39.3962C308.462 37.1191 309.807 35.0875 311.608 33.7585C313.383 32.4464 315.641 31.7777 318.304 31.7777C320.35 31.7777 322.219 32.5734 323.436 33.3522C324.662 34.1309 325.626 35.1721 326.311 36.4673C327.012 37.8132 327.511 39.32 327.782 40.9537C328.061 42.6213 328.205 44.3143 328.205 45.9904V76.2867H344.801V44.0519C344.801 39.0999 344.117 34.5288 342.764 30.4656H342.755V30.4571Z" fill="#282828"/>
<path d="M317.552 148.705C319.733 148.265 322.126 147.452 324.239 146.301C325.829 145.429 327.3 144.32 328.619 142.974L329.245 148.4H344.785V88.6202H328.188V118.756C328.188 121.583 327.74 124.199 326.843 126.527C325.973 128.804 324.628 130.624 322.827 131.961C321.052 133.273 318.592 133.942 315.928 133.942C313.882 133.942 312.225 133.552 311.007 132.782C309.782 132.003 308.818 130.962 308.133 129.667C307.431 128.321 306.932 126.814 306.662 125.181C306.383 123.513 306.239 121.82 306.239 120.144V88.6033H289.431V122.082C289.431 127.034 290.116 131.606 291.468 135.669C292.846 139.8 295.155 143.152 298.325 145.615C301.521 148.104 305.985 149.357 311.616 149.357C313.383 149.357 315.379 149.128 317.552 148.696V148.705Z" fill="#282828"/>
<path d="M113.874 45.5587C113.874 48.276 113.764 50.9255 113.172 53.4396C112.597 55.8521 111.354 57.8499 109.765 59.4159C108.218 60.9312 105.419 61.7269 102.223 61.7269C99.7373 61.7269 97.463 61.2782 96.0341 60.3979C94.5968 59.5175 93.5146 58.3493 92.8043 56.9272C92.0603 55.4458 91.5868 53.8036 91.3839 52.0429C91.1726 50.2144 91.0626 48.3606 91.0626 46.5322V17.8273H74.9477V50.0536C74.9477 55.2342 75.7086 59.9238 77.2136 63.987C78.7354 68.1264 81.2381 70.886 84.6961 73.2477C88.7206 75.9989 93.3624 77.3787 100.811 77.2348C109.308 77.0739 113.181 73.7133 116.224 71.4108C115.793 79.952 115.21 86.0045 113.713 93.987L111.16 93.2421C84.806 85.8522 40.7561 78.7161 33.3835 106.837C29.8578 120.296 35.8016 134.873 51.5868 143.025C59.2808 147.003 68.5727 149.23 77.3742 149.23C94.7152 149.23 109.418 141.027 118.27 126.002C120.579 122.082 122.489 117.791 124.104 112.348C129.972 113.846 148.522 119.932 170.961 120.72C192.293 121.464 204.544 119.314 222.527 110.104L215.332 99.2438C205.719 104.45 192.445 108.098 172.813 107.396C155.717 106.778 133.692 100.234 127.715 98.118C128.915 90.3386 129.904 80.9932 130.319 72.6298C130.598 68.8967 130.86 62.7935 130.86 62.7935C131.037 55.2088 130.995 47.8781 130.86 41.5971V17.8188H113.882V45.5587H113.874ZM49.3463 111.806C51.0711 101.563 60.8534 100.175 71.9631 100.175C79.6063 100.175 86.5393 101.572 100.524 105.389C102.105 105.821 105.03 106.854 106.763 107.472C108.184 107.98 110.855 109.139 110.855 109.139C109.782 112.619 106.231 120.093 102.976 123.225C88.9151 136.769 73.2229 135.923 61.775 130.81C53.7513 127.221 48.1457 118.849 49.3294 111.806H49.3463Z" fill="#282828"/>
<path d="M0.908203 88.434H17.4798V61.4221H32.039C38.6085 61.4221 44.5269 60.2709 49.6336 58.0023C54.7827 55.7167 58.9171 52.2291 61.9017 47.658C64.8947 43.07 66.4166 37.3138 66.4166 30.5248C66.4166 23.7359 65.0469 17.5818 62.3413 13.1631C59.6273 8.72742 55.7634 5.443 50.8934 3.39447C46.0657 1.37133 40.2995 0.347061 33.7385 0.347061H0.908203V88.4424V88.434ZM17.4798 15.9396H33.0114C38.6761 15.9396 42.8951 17.1501 45.5499 19.5542C48.1794 21.9244 49.5153 25.5305 49.5153 30.2793C49.5153 35.7308 47.9088 39.7517 44.7467 42.2489C41.517 44.7884 37.1627 46.0751 31.8023 46.0751H17.4798V15.9481V15.9396Z" fill="#282828"/>
<path d="M160.054 5.77314C153.899 9.61625 149.164 14.9915 145.96 21.7635C142.772 28.5017 141.166 36.3572 141.166 45.127C141.166 53.8967 142.739 61.7099 145.842 68.355C148.961 75.0508 153.662 80.3499 159.826 84.1084C165.973 87.8668 173.641 89.7715 182.62 89.7715C189.063 89.7715 194.973 88.671 200.164 86.4786C205.381 84.2946 209.76 81.0694 213.176 76.93C216.6 72.7737 218.596 68.1433 219.585 62.2686L219.754 61.2613H202.734L202.802 61.4391C202.117 63.9616 200.874 66.1879 199.09 68.0587C197.298 69.9379 195.049 71.4024 192.403 72.4097C189.739 73.417 186.569 73.9334 182.984 73.9334C177.235 73.9334 172.5 72.5621 168.881 69.8533C165.245 67.136 162.557 63.5045 160.9 59.0519C159.217 54.557 158.363 49.6642 158.363 44.5175C158.363 39.3708 159.175 34.8081 160.79 30.474C162.371 26.1907 164.975 22.6439 168.543 19.9182C172.077 17.2094 176.82 15.838 182.637 15.838C187.989 15.838 192.386 16.9723 195.683 19.2156C198.955 21.4419 201.153 24.5485 202.219 28.4594L202.396 29.1027H218.672L218.52 28.1038C217.623 22.1445 215.544 17.0401 212.365 12.9261C209.194 8.82054 205.034 5.60384 200.012 3.36061C195.015 1.12585 189.164 0 182.629 0C173.81 0 166.218 1.94695 160.063 5.7816L160.054 5.77314Z" fill="#282828"/>
<path d="M252.534 86.7071C242.65 87.0457 235.599 88.7641 226.307 94.5373L232.978 105.186C239.04 101.529 247.021 99.2099 252.652 99.2777C263.288 99.4046 265.165 106.693 265.318 110.443C265.318 110.443 251.747 109.351 243.639 110.782C240.063 111.416 237.214 112.466 234.373 113.863C231.473 115.293 229.359 117.071 227.685 119.797C226.002 122.531 225.123 125.612 225.123 129.853C225.123 132.367 225.74 135.83 227.042 138.31C228.344 140.782 230.095 142.864 232.284 144.498C234.44 146.115 236.512 147.35 239.243 148.188C241.965 149.01 244.045 149.331 247.08 149.331C248.797 149.331 250.843 149.255 253.278 148.883C255.763 148.502 258.359 147.647 260.989 146.335C263.018 145.319 264.852 143.854 266.45 141.975L266.738 148.4H281.399V116.538C281.399 106.837 279.53 101.58 275.21 96.1456C270.847 90.6603 261.986 86.377 252.542 86.6986H252.525L252.534 86.7071ZM265.723 122.328C265.723 124.944 265.03 127.119 263.652 129.125C262.257 131.148 260.371 132.393 258.038 133.527C255.679 134.67 252.94 135.381 249.879 135.381C248.154 135.381 246.497 135.119 244.967 134.518C243.47 133.933 242.253 133.265 241.348 132.173C240.477 131.123 239.877 129.963 239.877 128.228C239.877 126.493 240.443 125.231 241.213 124.351C242.033 123.428 243.14 122.726 244.519 122.252C245.964 121.761 247.613 121.507 249.405 121.337C255.375 120.77 265.732 121.16 265.732 121.16V122.336L265.723 122.328Z" fill="#282828"/>
<path d="M412.737 108.192C414.106 106.118 415.112 103.883 415.73 101.496C416.355 99.1005 416.668 96.4425 416.668 93.5136C416.668 89.2303 415.611 85.2687 413.506 81.6456C411.401 78.0141 408.543 75.1022 404.941 72.9097C401.339 70.7088 397.289 69.6084 392.791 69.6084C388.293 69.6084 384.404 70.6834 380.802 72.8251C377.201 74.9667 374.318 77.8533 372.153 81.4848C369.997 85.1078 368.915 89.1202 368.915 93.5136H373.413C373.413 90.0514 374.258 86.8432 375.958 83.8973C377.657 80.9515 379.965 78.5813 382.891 76.7952C385.816 75.0091 389.122 74.1202 392.8 74.1202C396.478 74.1202 399.615 74.9921 402.54 76.7444C405.465 78.4967 407.807 80.833 409.549 83.7619C411.299 86.6908 412.17 89.9413 412.17 93.5136C412.17 96.7303 411.688 99.7015 410.724 102.436C409.76 105.17 407.638 108.023 404.358 110.985L368.281 143.889L368.171 148.392H416.668V143.889H374.909L407.359 114.304C409.574 112.306 411.367 110.266 412.737 108.192Z" fill="#282828"/>
<path d="M477.425 111.357C475.108 107.463 471.997 104.357 468.108 102.029C464.219 99.7094 459.915 98.5412 455.206 98.5412C450.243 98.5412 445.745 99.8702 441.72 102.537C438.617 104.585 436.055 107.082 434.009 110.02V95.3245C434.009 91.5406 434.939 88.0361 436.791 84.8194C438.642 81.6027 441.171 79.0124 444.366 77.0485C447.562 75.0847 451.173 74.1027 455.206 74.1027C459.239 74.1027 462.705 75.0762 465.935 77.0231C469.165 78.9701 471.693 81.535 473.51 84.7178L477.366 82.4661C475.184 78.6061 472.124 75.4994 468.184 73.1377C464.244 70.7844 459.915 69.5993 455.206 69.5993C450.496 69.5993 446.142 70.759 442.253 73.0869C438.363 75.4063 435.269 78.5214 432.961 82.4154C430.661 86.3093 429.511 90.618 429.511 95.333V124.275C429.511 128.99 430.67 133.299 432.995 137.192C435.311 141.086 438.423 144.193 442.312 146.521C446.201 148.84 450.505 150 455.214 150C459.923 150 464.227 148.84 468.116 146.521C472.005 144.201 475.108 141.086 477.433 137.192C479.75 133.299 480.908 128.99 480.908 124.275C480.908 119.56 479.75 115.251 477.433 111.357H477.425ZM473.57 134.992C471.676 138.208 469.122 140.765 465.918 142.652C462.705 144.549 459.137 145.497 455.214 145.497C451.291 145.497 447.715 144.549 444.51 142.652C441.297 140.765 438.744 138.208 436.859 134.992C434.965 131.775 434.018 128.203 434.018 124.275C434.018 120.347 434.965 116.766 436.859 113.558C438.752 110.341 441.306 107.785 444.51 105.897C447.723 104.001 451.291 103.053 455.214 103.053C459.137 103.053 462.705 104.001 465.918 105.897C469.131 107.793 471.676 110.35 473.57 113.558C475.463 116.775 476.402 120.347 476.402 124.275C476.402 128.203 475.455 131.775 473.57 134.992Z" fill="#282828"/>
</g>
</g>
<defs>
<clipPath id="clip0_26_5">
<rect width="798" height="154" fill="white"/>
</clipPath>
<clipPath id="clip1_26_5">
<rect width="480" height="150" fill="white" transform="translate(0.908203)"/>
</clipPath>
</defs>
</svg>
