<svg xmlns="http://www.w3.org/2000/svg" width="1422" height="3077" viewBox="0 0 1422 3077"><g transform="translate(56 -2101)"><path d="M711,0c392.674,0,711,318.326,711,711V3077H0V711C0,318.326,318.326,0,711,0Z" transform="translate(-56 2101)" fill="#511fe5"/><path d="M711,1a721.408,721.408,0,0,0-72.595,3.666,711.763,711.763,0,0,0-70.5,10.759c-22.874,4.681-45.766,10.567-68.042,17.5-22.027,6.851-43.973,14.884-65.231,23.875-21.062,8.908-41.943,18.967-62.064,29.9-19.978,10.853-39.673,22.818-58.54,35.563-18.775,12.684-37.165,26.436-54.658,40.873-17.451,14.4-34.415,29.82-50.42,45.825s-31.423,32.969-45.825,50.42c-14.437,17.494-28.189,35.884-40.873,54.658-12.745,18.866-24.711,38.562-35.563,58.54-10.93,20.121-20.99,41-29.9,62.064-8.992,21.258-17.024,43.2-23.875,65.231-6.928,22.276-12.815,45.168-17.5,68.042a711.814,711.814,0,0,0-10.759,70.5A721.446,721.446,0,0,0,1,711V3076H1421V711a721.446,721.446,0,0,0-3.666-72.595,711.814,711.814,0,0,0-10.759-70.5c-4.681-22.874-10.567-45.766-17.5-68.042-6.851-22.026-14.883-43.973-23.875-65.231-8.908-21.062-18.967-41.943-29.9-62.064-10.853-19.978-22.818-39.673-35.563-58.54-12.684-18.775-26.436-37.165-40.873-54.658-14.4-17.451-29.82-34.415-45.825-50.42s-32.969-31.424-50.42-45.825c-17.494-14.437-35.884-28.189-54.658-40.873-18.866-12.745-38.562-24.711-58.54-35.563-20.121-10.93-41-20.99-62.064-29.9-21.258-8.991-43.2-17.024-65.231-23.875-22.276-6.928-45.168-12.814-68.042-17.5a711.763,711.763,0,0,0-70.5-10.759A721.408,721.408,0,0,0,711,1m0-1c392.675,0,711,318.325,711,711V3077H0V711C0,318.325,318.325,0,711,0Z" transform="translate(-56 2101)" fill="#707070"/></g></svg>