<?xml version="1.0" encoding="UTF-8"?>
<svg id="Layer_2" data-name="Layer 2" xmlns="http://www.w3.org/2000/svg" viewBox="0 0 1062 104.77">
  <defs>
    <style>
      .cls-1 {
        fill: #BDF462;
      }
    </style>
  </defs>
  <g id="Group_369" data-name="Group 369">
    <path class="cls-1" d="M1062,104.77V.16c-42.65,2.66-77.49,35.05-83.25,77.4-6.14-43.78-43.3-77.56-88.08-77.56-49.18.08-89.03,39.93-89.11,89.11l-.08,1.21h-.03c0-49.79-39.93-90.32-88.97-90.32-49.18.08-89.03,39.93-89.1,89.11l-.03,6.78v-5.56h-.05c-.03-49.79-39.92-90.32-89-90.32s-88.56,39.45-89.08,88.13C444.06,39.35,404.63,0,356.29,0c-49.18.08-89.03,39.92-89.11,89.1l-.11,1.24c.05-23.89-9.32-46.83-26.08-63.84C224.45,9.57,201.78.01,178.11,0c-48.63,0-89.11,39.98-89.11,89.11l-.03-4.51C88.97,38.04,46.64.28.08.19l-.08,88.95v15.64h1062Z"/>
  </g>
</svg>