<?xml version="1.0" encoding="UTF-8"?>
<svg id="Layer_2" data-name="Layer 2" xmlns="http://www.w3.org/2000/svg" viewBox="0 0 832 39.96">
  <defs>
    <style>
      .cls-1 {
        fill: #fff;
      }
    </style>
  </defs>
  <g id="Layer_1-2" data-name="Layer 1">
    <path class="cls-1" d="M0,0v4.99l.07,34.9c18.27-.04,34.85-14.86,34.85-33.13v-1.76c.11,19.27,15.71,34.87,34.98,34.96,9.29,0,18.19-3.76,24.68-10.4,6.57-6.68,10.25-15.68,10.22-25.05l.04.49c.03,19.3,15.67,34.94,34.97,34.96,18.97,0,34.44-15.43,34.89-34.58.3,19.12,15.84,34.5,34.96,34.58,19.25,0,34.91-15.91,34.92-35.44h.03v-2.18,2.66c.04,19.3,15.68,34.94,34.98,34.96,19.25,0,34.92-15.91,34.92-35.44l.03.48c.03,19.3,15.67,34.94,34.97,34.96,17.48-.13,34.56-15.76,34.56-35.27,0,19.5,15.16,35.21,32.67,35.21h0s.34-.01.34-.01c18.27-.04,33.07-14.86,33.07-33.13v-1.76c.1,19.27,15.71,34.87,34.98,34.96,9.29,0,18.19-3.76,24.68-10.4,6.58-6.68,10.25-15.68,10.23-25.05l.04.49c.03,19.3,15.67,34.94,34.97,34.96,18.96,0,34.45-15.43,34.9-34.58.29,19.12,15.83,34.49,34.95,34.58,19.26,0,34.91-15.91,34.93-35.44h.01v.48h0c.03,19.3,15.67,34.93,34.97,34.96,19.24,0,34.92-15.91,34.92-35.44h0l.03.48c.04,19.29,15.67,34.93,34.97,34.96,17.49-.13,34.56-15.75,34.56-35.26,0,19.5,16.01,35.2,32.67,35.2V0H0Z"/>
  </g>
</svg>