<?xml version="1.0" encoding="UTF-8"?>
<svg id="Layer_2" data-name="Layer 2" xmlns="http://www.w3.org/2000/svg" viewBox="0 0 1062 107.54">
  <defs>
    <style>
      .cls-1 {
        fill: #B380FF;
      }
    </style>
  </defs>
  <g id="Group_369" data-name="Group 369">
    <path class="cls-1" d="M0,0v15.61c0,51.56,39.32,91.93,89.53,91.93,54.64,0,88.45-47.47,88.45-90.32l.03-.24.06,1.48c.1,49.17,39.94,89,89.11,89.08,49.08,0,88.97-40.53,89-90.32h.03l.03,1.24c.09,49.17,39.94,89.01,89.11,89.08,48.81,0,88.58-40.14,88.97-89.62l.06.54c.09,49.17,39.94,89.01,89.11,89.08,48.89,0,88.67-40.23,88.97-89.79l.06.71c.1,49.17,39.94,89,89.11,89.08,48.92,0,88.74-40.27,88.99-89.87l.03.79c.1,49.17,39.94,89,89.11,89.08,37.1,0,68.93-23.18,82.28-56.01V0H0Z"/>
  </g>
</svg>