<?xml version="1.0" encoding="UTF-8"?>
<svg id="Layer_2" data-name="Layer 2" xmlns="http://www.w3.org/2000/svg" viewBox="0 0 832 40.01">
  <defs>
    <style>
      .cls-1 {
        fill: #fff;
      }
    </style>
  </defs>
  <g id="Layer_1-2" data-name="Layer 1">
    <path class="cls-1" d="M832,40.01v-6.36c0-20.28-18.06-33.57-32.29-33.64-19.29.04-34.92,15.66-34.96,34.95l-.02.35C764.65,15.83,749.01,0,729.81,0c-19.29.03-34.93,15.66-34.97,34.95l-.02.22C694.67,15.75,679.07,0,659.9,0c-19.29.03-34.93,15.66-34.96,34.95l-.03.22C624.76,15.75,609.16,0,590,0c-19.3.03-34.93,15.67-34.96,34.96v.49c-.02-19.54-15.68-35.45-34.94-35.45-19.29.03-34.93,15.66-34.98,34.95v.59s-.02-.09-.02-.09C485.1,18.65,471.82.02,450.39.02c-15.64-.05-33.62,15.24-33.62,35.51C416.76,15.25,398.71.09,384.47.02c-19.29.03-34.93,15.66-34.97,34.95v.29C349.38,15.81,333.76.02,314.57.02c-19.29.03-34.92,15.66-34.96,34.95l-.03.31C279.48,15.82,263.87.02,244.67.02c-19.3.02-34.94,15.65-34.98,34.95l-.02.17C209.5,15.75,193.9.02,174.76.02c-19.29.03-34.93,15.66-34.97,34.95v.49h-.03C139.76,15.92,124.1.02,104.84.02c-19.29.03-34.93,15.66-34.97,34.95v.59s-.02-.09-.02-.09C69.85,18.65,56.58.02,35.14.02,15.44.02,0,15.86,0,36.09v3.91h832Z"/>
  </g>
</svg>