<svg xmlns="http://www.w3.org/2000/svg" width="338.839" height="380.279" viewBox="0 0 338.839 380.279"><g transform="translate(-130.709)"><g transform="translate(-52.451)"><path d="M85.52,344A84.363,84.363,0,0,1,1.283,259.784l-.2-176.56H85.421V258.592H169.64c0,47.093-37.736,85.4-84.12,85.4" transform="translate(350.802 36.283)" fill="#511fe5"/><path d="M144,23.961c-45.97,0-84.237,37.779-84.237,84.212l-.043,58.408H143.9V109.365h84.22c0-47.093-37.736-85.4-84.12-85.4" transform="translate(208.121 10.446)" fill="#bdf461"/><path d="M203.02,226.181a84.363,84.363,0,0,1-84.237-84.212l-.2-58.631h84.336v57.439H287.14c0,47.093-37.736,85.4-84.12,85.4" transform="translate(64.576 36.333)" fill="#259f4f"/><path d="M85.413,108.559v.1H.29C.29,62.432,38.475,24.82,85.413,24.82Z" transform="translate(436.171 11.821)" fill="#b280ff"/><rect width="84.011" height="125.514" transform="translate(183.264)" fill="#259f4f"/><path d="M200.042,21.214a6.78,6.78,0,1,1,6.781-6.781,6.78,6.78,0,0,1-6.781,6.781" transform="translate(37.661 3.337)" fill="#eaeaea"/><path d="M219.8,21.214a6.78,6.78,0,1,1,6.781-6.781,6.78,6.78,0,0,1-6.781,6.781" transform="translate(-10.469 3.337)" fill="#eaeaea"/><rect width="85.187" height="178.189" transform="translate(436.813 119.484)" fill="#b280ff"/></g></g></svg>