<svg xmlns="http://www.w3.org/2000/svg" width="30.409" height="28.268" viewBox="0 0 30.409 28.268"><g transform="translate(0.368 0.367)"><path d="M12.634-1.5A14.134,14.134,0,0,1,26.768,12.634,14.134,14.134,0,0,1,12.634,26.768,14.134,14.134,0,0,1-1.5,12.634,14.134,14.134,0,0,1,12.634-1.5Zm0,25.268A11.134,11.134,0,0,0,20.507,4.761,11.134,11.134,0,0,0,4.761,20.507,11.061,11.061,0,0,0,12.634,23.768Z" transform="translate(1.132 1.133)" fill="#bdf462"/><path d="M51.961,38.772,45.228,32.04l2.121-2.121,4.611,4.611L66.812,19.679,68.933,21.8Z" transform="translate(-38.892 -17.425)" fill="#249f4f"/></g></svg>