<svg xmlns="http://www.w3.org/2000/svg" xmlns:xlink="http://www.w3.org/1999/xlink" width="767.258" height="21.705" viewBox="0 0 767.258 21.705"><defs><clipPath id="a"><rect width="767.258" height="21.705" fill="none"/></clipPath></defs><g clip-path="url(#a)"><path d="M57.378,21.705H6.654A6.654,6.654,0,0,1,0,15.051v-8.4A6.654,6.654,0,0,1,6.654,0H57.378a6.654,6.654,0,0,1,6.654,6.654v8.4a6.654,6.654,0,0,1-6.654,6.654" transform="translate(0 0)" fill="#511fe5"/><path d="M254.9,21.705H204.172a6.654,6.654,0,0,1-6.654-6.654v-8.4A6.654,6.654,0,0,1,204.172,0H254.9a6.654,6.654,0,0,1,6.654,6.654v8.4a6.654,6.654,0,0,1-6.654,6.654" transform="translate(-133.71 0)" fill="#b280ff"/><path d="M453.413,21.705H402.689a6.654,6.654,0,0,1-6.654-6.654v-8.4A6.654,6.654,0,0,1,402.689,0h50.724a6.654,6.654,0,0,1,6.654,6.654v8.4a6.654,6.654,0,0,1-6.654,6.654" transform="translate(-268.097 0)" fill="#259f4f"/><path d="M650.931,21.705H600.207a6.654,6.654,0,0,1-6.654-6.654v-8.4A6.654,6.654,0,0,1,600.207,0h50.724a6.654,6.654,0,0,1,6.654,6.654v8.4a6.654,6.654,0,0,1-6.654,6.654" transform="translate(-401.436 0)" fill="#bdf461"/><path d="M848.448,21.705H797.724a6.654,6.654,0,0,1-6.654-6.654v-8.4A6.654,6.654,0,0,1,797.724,0h50.724A6.654,6.654,0,0,1,855.1,6.654v8.4a6.654,6.654,0,0,1-6.654,6.654" transform="translate(-534.775 0)" fill="#ef553c"/><path d="M1045.965,21.705H995.241a6.654,6.654,0,0,1-6.654-6.654v-8.4A6.654,6.654,0,0,1,995.241,0h50.724a6.654,6.654,0,0,1,6.654,6.654v8.4a6.654,6.654,0,0,1-6.654,6.654" transform="translate(-668.114 0)" fill="#f2bf36"/><path d="M1245.646,21.705h-50.724a6.654,6.654,0,0,1-6.654-6.654v-8.4A6.654,6.654,0,0,1,1194.922,0h50.724a6.654,6.654,0,0,1,6.654,6.654v8.4a6.654,6.654,0,0,1-6.654,6.654" transform="translate(-803.66 0)" fill="#511fe5"/><path d="M1443.163,21.705h-50.724a6.654,6.654,0,0,1-6.654-6.654v-8.4A6.654,6.654,0,0,1,1392.439,0h50.724a6.654,6.654,0,0,1,6.654,6.654v8.4a6.654,6.654,0,0,1-6.654,6.654" transform="translate(-936.998 0)" fill="#b280ff"/><path d="M1641.681,21.705h-50.724a6.654,6.654,0,0,1-6.654-6.654v-8.4A6.654,6.654,0,0,1,1590.957,0h50.724a6.654,6.654,0,0,1,6.654,6.654v8.4a6.654,6.654,0,0,1-6.654,6.654" transform="translate(-1071.386 0)" fill="#259f4f"/><path d="M1839.2,21.705h-50.724a6.654,6.654,0,0,1-6.654-6.654v-8.4A6.654,6.654,0,0,1,1788.474,0H1839.2a6.654,6.654,0,0,1,6.654,6.654v8.4a6.654,6.654,0,0,1-6.654,6.654" transform="translate(-1204.725 0)" fill="#bdf461"/><path d="M2036.716,21.705h-50.724a6.654,6.654,0,0,1-6.654-6.654v-8.4A6.654,6.654,0,0,1,1985.992,0h50.724a6.654,6.654,0,0,1,6.654,6.654v8.4a6.654,6.654,0,0,1-6.654,6.654" transform="translate(-1339.918 0)" fill="#ef553c"/><path d="M2234.233,21.705h-50.724a6.653,6.653,0,0,1-6.653-6.654v-8.4A6.653,6.653,0,0,1,2183.509,0h50.724a6.654,6.654,0,0,1,6.654,6.654v8.4a6.654,6.654,0,0,1-6.654,6.654" transform="translate(-1473.628 0)" fill="#f2bf36"/></g></svg>