<?xml version="1.0" encoding="UTF-8"?>
<svg id="Layer_2" data-name="Layer 2" xmlns="http://www.w3.org/2000/svg" viewBox="0 0 422.2 139.84">
  <defs>
    <style>
      .cls-1 {
        fill: #282828;
      }
    </style>
  </defs>
  <g id="Layer_1-2" data-name="Layer 1">
    <g>
      <path class="cls-1" d="M17.85,71.59L0,121.99h4.27l4.47-12.67h23.2l4.5,12.67h4.27l-17.85-50.4h-5ZM10.09,105.5l10.22-28.95,10.28,28.95H10.09Z"/>
      <path class="cls-1" d="M73.99,104.6c0,2.08-.24,4-.72,5.76-.48,1.76-1.2,3.29-2.17,4.57-.97,1.28-2.21,2.28-3.71,2.99s-3.28,1.07-5.34,1.07-3.7-.34-5.16-1.02c-1.46-.68-2.67-1.67-3.64-2.97-.97-1.31-1.69-2.89-2.17-4.76-.48-1.87-.72-3.99-.72-6.37v-19.67h-4.06v20.68c0,1.96.19,3.84.58,5.63.39,1.8.97,3.45,1.77,4.95.79,1.5,1.8,2.81,3.01,3.92,1.21,1.11,2.64,1.97,4.29,2.57s3.51.91,5.58.91c2.94,0,5.59-.64,7.95-1.91,1.97-1.07,3.61-2.62,4.9-4.65v5.69h3.67v-37.8h-4.06v20.41Z"/>
      <path class="cls-1" d="M115.25,90.5c-1.13-1.92-2.58-3.52-4.34-4.77-2.43-1.73-5.4-2.59-8.92-2.59s-6.35.88-8.77,2.62-4.26,4.13-5.55,7.14c-1.28,3.01-1.93,6.38-1.93,10.12s.65,7.18,1.94,10.2c1.29,3.02,3.17,5.41,5.63,7.17,2.46,1.76,5.48,2.64,9.05,2.64s6.29-.89,8.65-2.66c1.5-1.13,2.77-2.51,3.81-4.14v4.42c0,3.34-.38,6.13-1.15,8.38-.77,2.25-2.05,3.94-3.83,5.08-1.79,1.13-4.21,1.7-7.26,1.7-2.17,0-4.3-.5-6.4-1.5-2.1-1-3.72-2.67-4.86-5l-3.64,2.17c1.12,2.03,2.48,3.66,4.09,4.88,1.61,1.23,3.34,2.11,5.2,2.66,1.85.55,3.72.82,5.58.82,3.17,0,5.87-.47,8.1-1.4,2.23-.93,4-2.35,5.3-4.25,1.31-1.9,2.17-4.31,2.59-7.23.16-1.03.27-2.05.31-3.08.05-1.03.07-2.1.07-3.22v-36.47h-3.67v6.31ZM109.67,117.07c-1.88,1.41-4.23,2.12-7.05,2.12s-5.09-.71-6.95-2.13c-1.85-1.42-3.26-3.35-4.2-5.79-.94-2.44-1.42-5.19-1.42-8.24s.46-5.76,1.37-8.17c.91-2.42,2.3-4.33,4.16-5.74,1.87-1.41,4.24-2.12,7.11-2.12s5.1.68,6.96,2.05c1.87,1.36,3.27,3.26,4.2,5.69s1.4,5.19,1.4,8.29-.46,5.84-1.38,8.28c-.92,2.44-2.32,4.36-4.2,5.77Z"/>
      <path class="cls-1" d="M155.71,104.6c0,2.08-.24,4-.72,5.76-.48,1.76-1.2,3.29-2.17,4.57-.97,1.28-2.21,2.28-3.71,2.99s-3.28,1.07-5.34,1.07-3.7-.34-5.16-1.02c-1.46-.68-2.67-1.67-3.64-2.97-.97-1.31-1.69-2.89-2.17-4.76-.48-1.87-.72-3.99-.72-6.37v-19.67h-4.06v20.68c0,1.96.19,3.84.58,5.63.39,1.8.97,3.45,1.77,4.95.79,1.5,1.8,2.81,3.01,3.92,1.21,1.11,2.64,1.97,4.29,2.57s3.51.91,5.58.91c2.94,0,5.59-.64,7.95-1.91,1.97-1.07,3.61-2.62,4.9-4.65v5.69h3.67v-37.8h-4.06v20.41Z"/>
      <path class="cls-1" d="M175.52,88.69c1.84-1.2,4.22-1.78,7.14-1.73,3.08.02,5.65.74,7.7,2.15,2.05,1.41,3.28,3.33,3.68,5.76l4.13-.77c-.21-2.17-1-4.08-2.38-5.72-1.38-1.65-3.19-2.93-5.43-3.85-2.24-.92-4.76-1.38-7.56-1.38s-5.27.44-7.4,1.33c-2.14.89-3.8,2.12-4.99,3.69-1.19,1.57-1.79,3.4-1.79,5.48,0,1.73.4,3.18,1.21,4.38.8,1.19,2.19,2.25,4.17,3.18,1.97.93,4.71,1.87,8.21,2.8,3.31.91,5.81,1.7,7.49,2.38,1.68.68,2.81,1.42,3.38,2.22.57.81.86,1.84.86,3.1,0,2.31-.92,4.13-2.76,5.46-1.84,1.33-4.33,2-7.46,2s-5.81-.67-7.98-2-3.55-3.12-4.13-5.35l-4.13.7c.68,3.29,2.43,5.86,5.27,7.7s6.43,2.77,10.8,2.77,8.12-1,10.73-2.99c2.6-2,3.9-4.74,3.9-8.24,0-1.94-.42-3.56-1.26-4.88-.84-1.32-2.28-2.47-4.32-3.45-2.04-.98-4.88-1.94-8.52-2.87-2.99-.75-5.3-1.45-6.93-2.1-1.63-.65-2.77-1.37-3.41-2.15-.64-.78-.96-1.73-.96-2.85,0-1.96.92-3.54,2.77-4.74Z"/>
      <path class="cls-1" d="M214.27,73.69h-4.06v10.5h-8.47v3.67h8.47v21c0,1.75.04,3.3.1,4.66.07,1.35.42,2.69,1.05,4.02.77,1.63,1.92,2.84,3.45,3.62,1.53.78,3.27,1.22,5.23,1.33,1.96.1,3.94-.06,5.95-.51v-3.64c-2.82.44-5.15.5-6.96.16-1.82-.34-3.15-1.31-3.99-2.92-.44-.86-.68-1.81-.72-2.85-.04-1.04-.05-2.35-.05-3.94v-20.93h11.73v-3.67h-11.73v-10.5Z"/>
      <path class="cls-1" d="M275.31,96.18c.98-1.37,1.7-2.83,2.15-4.41s.68-3.37.68-5.37c0-2.89-.7-5.54-2.1-7.95s-3.3-4.32-5.69-5.76c-2.39-1.43-5.09-2.15-8.1-2.15s-5.69.7-8.1,2.1c-2.42,1.4-4.33,3.3-5.76,5.69-1.42,2.39-2.14,5.07-2.14,8.03h4.06c0-2.12.52-4.08,1.56-5.88,1.04-1.8,2.46-3.24,4.25-4.34,1.8-1.1,3.83-1.65,6.09-1.65s4.22.53,6,1.59c1.79,1.06,3.2,2.49,4.25,4.29,1.05,1.8,1.58,3.79,1.58,5.99,0,1.94-.31,3.75-.94,5.44-.63,1.69-1.97,3.46-4.02,5.3l-23.17,21.04-.07,3.85h32.31v-3.96h-26.18l19.56-17.75c1.54-1.38,2.8-2.75,3.78-4.11Z"/>
      <path class="cls-1" d="M312.14,91.73c-2.53-1.5-5.34-2.26-8.42-2.26s-5.84.79-8.35,2.36c-1.89,1.18-3.48,2.64-4.78,4.36v-8.68c0-2.31.57-4.45,1.71-6.42,1.14-1.97,2.7-3.56,4.66-4.78s4.19-1.82,6.69-1.82c2.33,0,4.47.57,6.4,1.7,1.94,1.13,3.48,2.63,4.62,4.5l3.22-2.34c-1.49-2.38-3.49-4.28-6-5.69-2.51-1.41-5.26-2.12-8.24-2.12-3.22,0-6.12.76-8.7,2.29-2.58,1.53-4.63,3.59-6.14,6.19-1.52,2.6-2.27,5.51-2.27,8.73v18.2c0,3.17.76,6.05,2.27,8.63s3.56,4.63,6.12,6.16c2.57,1.53,5.41,2.29,8.54,2.29s5.9-.76,8.47-2.27c2.57-1.52,4.61-3.55,6.14-6.09,1.53-2.54,2.29-5.37,2.29-8.47s-.74-5.89-2.22-8.42c-1.48-2.53-3.49-4.55-6.02-6.06ZM314.61,112.7c-1.14,1.95-2.69,3.5-4.64,4.66-1.95,1.16-4.11,1.73-6.49,1.73s-4.54-.58-6.49-1.73c-1.95-1.16-3.5-2.71-4.66-4.66-1.15-1.95-1.73-4.11-1.73-6.49s.58-4.54,1.73-6.49c1.16-1.95,2.71-3.49,4.66-4.64,1.95-1.14,4.11-1.71,6.49-1.71s4.54.57,6.49,1.71c1.95,1.14,3.49,2.69,4.64,4.64,1.14,1.95,1.71,4.11,1.71,6.49s-.57,4.54-1.71,6.49Z"/>
      <rect class="cls-1" x="327.88" y="98.08" width="21" height="3.67"/>
      <path class="cls-1" d="M372.2,91.84c-2.19-.89-4.62-1.24-7.28-1.05l15.91-15.21v-3.99h-28.52v3.96h23.04l-18.14,17.15,2.17,3.22c.91-.44,1.91-.8,3.01-1.07,1.1-.27,2.11-.4,3.04-.4,3.52,0,6.35,1.11,8.47,3.34,2.12,2.23,3.19,5.21,3.19,8.94,0,2.47-.46,4.62-1.36,6.44s-2.22,3.24-3.94,4.27c-1.72,1.03-3.79,1.58-6.21,1.64-2.61.05-4.95-.61-7-1.96-2.05-1.35-3.55-3.36-4.48-6.02l-3.82,1.22c.7,2.22,1.79,4.12,3.26,5.72,1.47,1.6,3.23,2.82,5.28,3.67s4.32,1.28,6.79,1.28c3.08,0,5.8-.68,8.16-2.03,2.36-1.35,4.21-3.25,5.55-5.69,1.34-2.44,2.01-5.29,2.01-8.56,0-3.59-.81-6.69-2.43-9.28-1.62-2.59-3.85-4.46-6.69-5.62Z"/>
      <path class="cls-1" d="M420.08,78.4c-1.41-2.39-3.32-4.3-5.72-5.72-2.4-1.42-5.09-2.13-8.05-2.13s-5.64.71-8.03,2.13c-2.39,1.42-4.3,3.33-5.72,5.72-1.42,2.39-2.14,5.07-2.14,8.03v20.72c0,2.96.71,5.64,2.14,8.03,1.42,2.39,3.33,4.3,5.72,5.72,2.39,1.42,5.07,2.13,8.03,2.13s5.65-.71,8.05-2.13,4.31-3.33,5.72-5.72c1.41-2.39,2.12-5.07,2.12-8.03v-20.72c0-2.96-.71-5.64-2.12-8.03ZM418.14,107.25c0,2.17-.54,4.15-1.61,5.95-1.07,1.8-2.5,3.23-4.29,4.29-1.79,1.06-3.76,1.59-5.93,1.59s-4.15-.53-5.93-1.59-3.21-2.49-4.29-4.29c-1.07-1.8-1.61-3.78-1.61-5.95v-20.96c0-2.15.54-4.12,1.61-5.92,1.07-1.8,2.5-3.23,4.29-4.29s3.76-1.59,5.93-1.59,4.15.53,5.93,1.59c1.78,1.06,3.21,2.49,4.29,4.29,1.07,1.8,1.61,3.77,1.61,5.92v20.96Z"/>
      <path class="cls-1" d="M40.67,26.39c-.55-.55-1.18-1.07-1.9-1.56.7-.68,1.29-1.41,1.76-2.19,1.26-2.08,1.89-4.26,1.89-6.54,0-3.22-.68-5.96-2.03-8.23-1.35-2.26-3.31-4-5.88-5.21-2.57-1.21-5.65-1.82-9.24-1.82H3.22v52.15h22.05c6.07,0,10.8-1.42,14.21-4.27,3.41-2.85,5.11-6.84,5.11-11.97,0-1.91-.28-3.75-.84-5.5s-1.59-3.37-3.08-4.86ZM14.07,9.94h11.97c1.68,0,3.02.48,4.02,1.43,1,.96,1.51,2.23,1.51,3.82s-.5,2.86-1.51,3.81c-1,.96-2.34,1.44-4.02,1.44h-11.97v-10.5ZM31.78,41.65c-1.31,1.26-3.06,1.89-5.25,1.89h-12.46v-13.65h12.46c2.19,0,3.94.63,5.25,1.89,1.31,1.26,1.96,2.92,1.96,4.97s-.65,3.64-1.96,4.9Z"/>
      <path class="cls-1" d="M60.55,32.41c0-2.85.79-5.05,2.38-6.62,1.59-1.56,3.66-2.34,6.23-2.34h3.29v-9.1h-2.24c-2.66,0-4.96.57-6.89,1.71-1.47.87-2.63,2.34-3.47,4.41v-5.71h-9.8v38.22h10.5v-20.58Z"/>
      <rect class="cls-1" x="76.37" y=".84" width="10.5" height="10.5"/>
      <rect class="cls-1" x="76.37" y="14.77" width="10.5" height="38.22"/>
      <path class="cls-1" d="M104.75,23.17c.77-.56,1.83-.84,3.19-.84,1.87,0,3.54.48,5,1.44,1.47.96,2.49,2.23,3.05,3.81l7.77-3.64c-1.17-3.17-3.16-5.63-5.99-7.38-2.82-1.75-6.1-2.62-9.83-2.62-2.85,0-5.37.5-7.56,1.5-2.19,1-3.9,2.39-5.11,4.17-1.21,1.77-1.82,3.85-1.82,6.23,0,2.71.84,5.05,2.52,7.04,1.68,1.98,4.08,3.42,7.21,4.3l6.51,1.82c.84.23,1.54.51,2.1.84.56.33.98.69,1.26,1.08.28.4.42.88.42,1.44,0,1.07-.4,1.91-1.19,2.52-.79.61-1.94.91-3.43.91-2.05,0-3.92-.58-5.6-1.75-1.68-1.17-3.01-2.78-3.99-4.83l-7.7,3.64c1.12,3.36,3.23,6.03,6.33,8.02,3.1,1.98,6.75,2.97,10.96,2.97,2.99,0,5.58-.5,7.77-1.5,2.19-1,3.91-2.39,5.15-4.17,1.24-1.77,1.85-3.85,1.85-6.23,0-2.75-.84-5.08-2.52-6.97-1.68-1.89-4.11-3.3-7.28-4.23l-6.09-1.82c-.93-.28-1.71-.58-2.34-.91-.63-.33-1.09-.7-1.37-1.12s-.42-.89-.42-1.4c0-.98.38-1.75,1.15-2.31Z"/>
      <path class="cls-1" d="M170.17,33.88c0-3.73-.86-7.1-2.59-10.11-1.73-3.01-4.06-5.4-7-7.18-2.94-1.77-6.23-2.66-9.87-2.66-2.8,0-5.28.52-7.46,1.57-1.37.66-2.53,1.51-3.53,2.52V0h-10.5v52.99h9.8v-3.65c1.2,1.29,2.65,2.32,4.38,3.06,2.22.96,4.63,1.43,7.25,1.43,3.73,0,7.07-.89,10.01-2.66,2.94-1.77,5.26-4.18,6.97-7.21,1.7-3.03,2.55-6.39,2.55-10.08ZM158.06,39.34c-.84,1.59-2.01,2.82-3.5,3.71-1.49.89-3.22,1.33-5.18,1.33s-3.53-.44-5-1.33c-1.47-.89-2.61-2.12-3.43-3.71-.82-1.59-1.23-3.41-1.23-5.46s.41-3.87,1.23-5.46c.82-1.59,1.96-2.82,3.43-3.71,1.47-.89,3.14-1.33,5-1.33,1.96,0,3.69.46,5.18,1.37,1.49.91,2.66,2.15,3.5,3.71.84,1.56,1.26,3.37,1.26,5.42s-.42,3.87-1.26,5.46Z"/>
      <path class="cls-1" d="M208.74,52.99v-25.2c0-2.75-.69-5.17-2.06-7.25-1.38-2.08-3.3-3.7-5.77-4.86-2.47-1.17-5.32-1.75-8.54-1.75-2.71,0-5.2.42-7.49,1.26-2.29.84-4.25,2.03-5.88,3.57-1.63,1.54-2.82,3.38-3.57,5.53l8.4,3.99c.65-1.68,1.69-3.03,3.11-4.06,1.42-1.03,3.07-1.54,4.94-1.54,1.96,0,3.51.49,4.66,1.47,1.14.98,1.71,2.19,1.71,3.64v1.02l-10.57,1.71c-3.03.47-5.56,1.26-7.6,2.38-2.03,1.12-3.54,2.51-4.52,4.17-.98,1.66-1.47,3.56-1.47,5.71,0,2.29.54,4.26,1.61,5.92,1.07,1.66,2.61,2.93,4.62,3.81,2.01.89,4.39,1.33,7.14,1.33,2.05,0,3.92-.27,5.6-.8,1.68-.54,3.2-1.35,4.55-2.45.46-.37.9-.79,1.33-1.23v3.64h9.8ZM197.15,41.96c-.72,1.28-1.74,2.3-3.04,3.04-1.31.75-2.82,1.12-4.55,1.12-1.31,0-2.4-.33-3.29-.98-.89-.65-1.33-1.56-1.33-2.73,0-1.26.4-2.23,1.19-2.9.79-.68,1.94-1.16,3.43-1.44l8.68-1.55v1.2c0,1.54-.36,2.95-1.08,4.23Z"/>
      <path class="cls-1" d="M250.74,52.99v-24.57c0-2.89-.61-5.42-1.82-7.59-1.21-2.17-2.9-3.86-5.07-5.08-2.17-1.21-4.7-1.82-7.6-1.82-2.66,0-4.98.55-6.96,1.64-1.62.9-2.86,2.21-3.75,3.91v-4.71h-9.8v38.22h10.5v-22.33c0-1.49.29-2.78.88-3.85.58-1.07,1.41-1.91,2.48-2.52,1.07-.61,2.29-.91,3.64-.91s2.62.3,3.67.91c1.05.61,1.87,1.45,2.45,2.52.58,1.07.88,2.36.88,3.85v22.33h10.5Z"/>
      <path class="cls-1" d="M291.83,44.52l-8.4-3.99c-.75,1.31-1.79,2.33-3.12,3.08-1.33.75-2.93,1.12-4.79,1.12-2.05,0-3.8-.46-5.25-1.37-1.45-.91-2.52-2.18-3.22-3.82-.36-.84-.6-1.75-.72-2.73h26.76c.19-.51.31-1.13.38-1.86.07-.72.1-1.46.1-2.21,0-2.66-.42-5.12-1.26-7.38-.84-2.26-2.07-4.26-3.68-5.98s-3.58-3.07-5.92-4.03c-2.33-.96-5.02-1.43-8.05-1.43-3.64,0-6.91.86-9.8,2.59-2.89,1.73-5.19,4.08-6.89,7.07-1.7,2.99-2.56,6.39-2.56,10.22s.82,7.05,2.45,10.08c1.63,3.03,3.94,5.45,6.93,7.24,2.99,1.8,6.51,2.7,10.57,2.7,2.61,0,5.02-.38,7.21-1.16,2.19-.77,4.09-1.85,5.7-3.25,1.61-1.4,2.79-3.03,3.54-4.9ZM269.99,23.66c1.31-.89,2.87-1.33,4.69-1.33s3.44.46,4.73,1.37c1.28.91,2.18,2.15,2.69,3.71.18.54.27,1.12.34,1.71h-15.83c.12-.54.26-1.06.45-1.54.65-1.73,1.63-3.03,2.94-3.92Z"/>
    </g>
  </g>
</svg>