<svg xmlns="http://www.w3.org/2000/svg" width="373.086" height="1654.033" viewBox="0 0 373.086 1654.033"><path d="M147.593,372.939H0V235.493H140.305V142.2C140.305,62.57,201.052.189,278.6.189c84.414,0,136.666,73.325,136.666,139.557H277.752V242.512c0,71.918-58.388,130.427-130.158,130.427" transform="translate(372.939) rotate(90)" fill="#01ad65"/><path d="M371.451,0C295.645,0,233.776,61.743,233.776,137.635l-.322,95.823H371.291V139.58H508.935C508.935,62.616,447.262,0,371.451,0" transform="translate(373.086 181.626) rotate(90)" fill="#511fe5"/><path d="M293.944,311.673c-75.131,0-137.676-61.743-137.676-137.635L156.2,78.579H293.784v93.514H431.426c0,76.964-61.672,139.58-137.482,139.58" transform="translate(311.952 121.522) rotate(90)" fill="#bdf461"/><path d="M526.2,0C450.392,0,388.523,61.743,388.523,137.635l-.322,95.823H526.039V139.58H663.682C663.682,62.616,602.009,0,526.2,0" transform="translate(373.086 302.019) rotate(90)" fill="#ef553c"/><path d="M448.848,311.941c-75.807,0-137.676-61.743-137.676-137.635l-.322-95.823H448.688v93.878H586.332c0,76.964-61.673,139.58-137.484,139.58" transform="translate(312.026 241.841) rotate(90)" fill="#b280ff"/><path d="M680.944,0C605.138,0,543.269,61.743,543.269,137.635l-.322,95.823H680.783V139.58H818.428C818.428,62.616,756.755,0,680.944,0" transform="translate(373.086 422.411) rotate(90)" fill="#bdf461"/><path d="M603.389,311.747c-75.131,0-137.676-61.743-137.676-137.635l-.068-95.628H603.229v93.683H740.873c0,76.964-61.673,139.58-137.484,139.58" transform="translate(312.025 362.271) rotate(90)" fill="#01ad65"/><path d="M758.295,311.941c-75.807,0-137.676-61.743-137.676-137.635L620.3,78.483H758.133v93.878H895.778c0,76.964-61.673,139.58-137.484,139.58" transform="translate(312.026 482.589) rotate(90)" fill="#511fe5"/><path d="M990.493,0C914.686,0,852.817,61.743,852.817,137.635l-.322,95.823H990.333V139.58h137.644C1127.976,62.616,1066.3,0,990.493,0" transform="translate(373.086 388.131) rotate(90)" fill="#01ad65"/><path d="M913.1,311.941c-75.807,0-137.676-61.743-137.676-137.635L775.1,78.483H912.936v93.878h137.644c0,76.964-61.673,139.58-137.484,139.58" transform="translate(312.026 603.453) rotate(90)" fill="#ededed"/><path d="M38,163.31a11.081,11.081,0,1,1-11.082-11.082A11.082,11.082,0,0,1,38,163.31" transform="translate(254.653 17.244) rotate(90)" fill="#ededed"/><path d="M38,189.389a11.081,11.081,0,1,1-11.082-11.082A11.082,11.082,0,0,1,38,189.389" transform="translate(234.364 17.244) rotate(90)" fill="#ededed"/></svg>