<svg xmlns="http://www.w3.org/2000/svg" width="40.508" height="67" viewBox="0 0 40.508 67"><g transform="translate(-1156.246 -2042.5)"><path d="M.5,65a2,2,0,0,1-2-1.984l-.5-63A2,2,0,0,1-.016-2,2,2,0,0,1,2-.016l.5,63A2,2,0,0,1,.516,65Z" transform="translate(1176 2044.5)" fill="#282828"/><path d="M18.157,15a1.991,1.991,0,0,1-1.163-.374l-18.159-13a2,2,0,0,1-.462-2.79,2,2,0,0,1,2.79-.462l18.159,13A2,2,0,0,1,18.157,15Z" transform="translate(1158.246 2094.5)" fill="#282828"/><path d="M0,15a2,2,0,0,1-1.628-.836,2,2,0,0,1,.462-2.79l18.159-13a2,2,0,0,1,2.79.462,2,2,0,0,1-.462,2.79l-18.159,13A1.991,1.991,0,0,1,0,15Z" transform="translate(1176.595 2094.5)" fill="#282828"/></g></svg>