<svg xmlns="http://www.w3.org/2000/svg" xmlns:xlink="http://www.w3.org/1999/xlink" width="144" zoomAndPan="magnify" viewBox="0 0 108 107.999999" height="144" preserveAspectRatio="xMidYMid meet" version="1.0"><defs><clipPath id="150f55499c"><path d="M 26.953125 11 L 80.953125 11 L 80.953125 72 L 26.953125 72 Z M 26.953125 11 " clip-rule="nonzero"/></clipPath><clipPath id="a1576793ab"><path d="M 47 71 L 80.953125 71 L 80.953125 108 L 47 108 Z M 47 71 " clip-rule="nonzero"/></clipPath><clipPath id="544bb12ff6"><path d="M 26.953125 51 L 61 51 L 61 92 L 26.953125 92 Z M 26.953125 51 " clip-rule="nonzero"/></clipPath><clipPath id="3818eac5e6"><path d="M 26.953125 91 L 61 91 L 61 108 L 26.953125 108 Z M 26.953125 91 " clip-rule="nonzero"/></clipPath></defs><g clip-path="url(#150f55499c)"><path fill="#01ad65" d="M 26.953125 32.53125 L 26.953125 11.101562 L 46.84375 11.101562 L 46.84375 31.472656 L 60.347656 31.472656 C 71.875 31.472656 80.902344 40.292969 80.902344 51.550781 C 80.902344 63.808594 70.289062 71.394531 60.703125 71.394531 L 60.703125 51.429688 L 45.828125 51.429688 C 35.421875 51.429688 26.953125 42.953125 26.953125 32.53125 " fill-opacity="1" fill-rule="nonzero"/></g><g clip-path="url(#a1576793ab)"><path fill="#511fe5" d="M 80.953125 91.402344 C 80.953125 80.394531 72.015625 71.414062 61.03125 71.414062 L 47.160156 71.367188 L 47.160156 91.378906 L 60.75 91.378906 L 60.75 111.363281 C 71.886719 111.363281 80.953125 102.410156 80.953125 91.402344 " fill-opacity="1" fill-rule="nonzero"/></g><g clip-path="url(#544bb12ff6)"><path fill="#bdf461" d="M 26.992188 71.421875 C 26.992188 60.515625 35.929688 51.433594 46.914062 51.433594 L 60.730469 51.425781 L 60.730469 71.398438 L 47.195312 71.398438 L 47.195312 91.382812 C 36.054688 91.382812 26.992188 82.429688 26.992188 71.421875 " fill-opacity="1" fill-rule="nonzero"/></g><g clip-path="url(#3818eac5e6)"><path fill="#b280ff" d="M 26.964844 111.382812 C 26.964844 100.375 35.898438 91.394531 46.886719 91.394531 L 60.753906 91.347656 L 60.753906 111.359375 L 47.167969 111.359375 L 47.167969 131.34375 C 36.027344 131.34375 26.964844 122.390625 26.964844 111.382812 " fill-opacity="1" fill-rule="nonzero"/></g><path fill="#ededed" d="M 40.171875 19.121094 C 39.960938 19.121094 39.753906 19.082031 39.558594 19 C 39.363281 18.917969 39.1875 18.800781 39.039062 18.652344 C 38.886719 18.5 38.773438 18.328125 38.691406 18.128906 C 38.609375 17.933594 38.570312 17.726562 38.570312 17.515625 C 38.570312 17.300781 38.609375 17.09375 38.691406 16.898438 C 38.773438 16.703125 38.886719 16.527344 39.039062 16.375 C 39.1875 16.226562 39.363281 16.109375 39.558594 16.027344 C 39.753906 15.945312 39.960938 15.90625 40.171875 15.90625 C 40.386719 15.90625 40.589844 15.945312 40.785156 16.027344 C 40.984375 16.109375 41.15625 16.226562 41.304688 16.375 C 41.457031 16.527344 41.574219 16.703125 41.652344 16.898438 C 41.734375 17.09375 41.777344 17.300781 41.777344 17.515625 C 41.777344 17.726562 41.734375 17.933594 41.652344 18.128906 C 41.574219 18.328125 41.457031 18.5 41.304688 18.652344 C 41.15625 18.800781 40.984375 18.917969 40.785156 19 C 40.589844 19.082031 40.386719 19.121094 40.171875 19.121094 " fill-opacity="1" fill-rule="nonzero"/><path fill="#ededed" d="M 33.460938 19.121094 C 33.25 19.121094 33.042969 19.082031 32.847656 19 C 32.652344 18.917969 32.476562 18.800781 32.328125 18.652344 C 32.175781 18.5 32.0625 18.328125 31.980469 18.128906 C 31.898438 17.933594 31.855469 17.726562 31.855469 17.515625 C 31.855469 17.300781 31.898438 17.09375 31.980469 16.898438 C 32.0625 16.703125 32.175781 16.527344 32.328125 16.375 C 32.476562 16.226562 32.652344 16.109375 32.847656 16.027344 C 33.042969 15.945312 33.25 15.90625 33.460938 15.90625 C 33.671875 15.90625 33.878906 15.945312 34.074219 16.027344 C 34.269531 16.109375 34.445312 16.226562 34.59375 16.375 C 34.746094 16.527344 34.863281 16.703125 34.941406 16.898438 C 35.023438 17.09375 35.066406 17.300781 35.066406 17.515625 C 35.066406 17.726562 35.023438 17.933594 34.941406 18.128906 C 34.863281 18.328125 34.746094 18.5 34.59375 18.652344 C 34.445312 18.800781 34.269531 18.917969 34.074219 19 C 33.878906 19.082031 33.671875 19.121094 33.460938 19.121094 " fill-opacity="1" fill-rule="nonzero"/></svg>