<svg xmlns="http://www.w3.org/2000/svg" xmlns:xlink="http://www.w3.org/1999/xlink" width="1239.431" height="386.861" viewBox="0 0 1239.431 386.861"><defs><clipPath id="a"><rect width="1239.431" height="386.861" fill="none"/></clipPath></defs><g clip-path="url(#a)"><path d="M426.381,170.116a63.738,63.738,0,0,0,26.2-26.348c6.166-11.58,9.52-25.447,9.52-41.225s-3.393-30.264-9.67-41.939a69.059,69.059,0,0,0-26.422-27.471c-11.243-6.522-24.623-9.819-39.764-9.819s-28.035,3.2-39.447,9.518a67.079,67.079,0,0,0-26.871,27.342c-6.353,11.749-9.8,25.9-9.8,42.069s3.391,29.682,9.652,41.245a64.816,64.816,0,0,0,26.76,26.478c11.393,6.221,24.848,9.37,39.988,9.37s28.745-3.112,39.858-9.238ZM385.961,61.486c8.938,0,16.06,1.78,21.174,5.715A34.811,34.811,0,0,1,418.53,82.473a55.138,55.138,0,0,1,3.653,19.826,53.778,53.778,0,0,1-3.634,19.657,31.559,31.559,0,0,1-11.469,14.636c-5.227,3.672-12.329,5.546-21.1,5.546s-15.572-1.875-20.8-5.546a31.761,31.761,0,0,1-11.469-14.486,53.214,53.214,0,0,1-3.635-19.789,54.138,54.138,0,0,1,3.653-19.806,34.5,34.5,0,0,1,11.524-15.274C370.465,63.3,377.435,61.5,385.98,61.5Z" transform="translate(264.94 19.918)" fill="#282828"/><path d="M539.459,58.628c-3.56-10.662-9-19.3-17.184-25.654-8.244-6.408-19.789-9.65-34.312-9.65a84.258,84.258,0,0,0-15.853,1.7,60.636,60.636,0,0,0-16.752,6.2,48.561,48.561,0,0,0-11.319,8.582l-1.611-14H401.783V176.8h43.4V102.271a58.921,58.921,0,0,1,3.468-20.594c2.247-5.865,5.715-11.113,10.362-14.541,4.591-3.392,10.419-5.116,17.3-5.116a25.49,25.49,0,0,1,13.247,4.066,21,21,0,0,1,7.421,8.038,38.292,38.292,0,0,1,3.8,11.563,79.9,79.9,0,0,1,1.087,12.988v78.14h42.856V93.671A110.476,110.476,0,0,0,539.459,58.628Z" transform="translate(343.244 19.926)" fill="#282828"/><path d="M474.379,278.24a63.783,63.783,0,0,0,17.277-6.2,48.656,48.656,0,0,0,11.319-8.582l1.611,14h40.122V123.269H501.85V201a55.877,55.877,0,0,1-3.468,20.051,30.7,30.7,0,0,1-10.362,14.017c-4.591,3.393-10.944,5.116-17.822,5.116-5.283,0-9.557-1.01-12.7-3a20.972,20.972,0,0,1-7.421-8.038,38.346,38.346,0,0,1-3.805-11.562,79.932,79.932,0,0,1-1.087-12.986V123.25h-43.4V209.6a110.484,110.484,0,0,0,5.266,35.043,52.911,52.911,0,0,0,17.709,25.652c8.244,6.409,19.789,9.652,34.31,9.652a79.182,79.182,0,0,0,15.33-1.706Z" transform="translate(343.244 105.293)" fill="#282828"/><path d="M254.246,96.326c0,7.009-.282,13.848-1.817,20.332a31.808,31.808,0,0,1-8.808,15.4c-3.99,3.916-11.224,5.958-19.47,5.958-6.408,0-12.292-1.161-15.984-3.429a21.861,21.861,0,0,1-8.339-8.958,37.729,37.729,0,0,1-3.673-12.593,124.728,124.728,0,0,1-.823-14.2V24.8h-41.62v83.106c0,13.362,1.967,25.467,5.847,35.942,3.935,10.683,10.4,17.785,19.32,23.893,10.38,7.1,22.374,10.644,41.62,10.288,21.942-.412,31.95-9.088,39.8-15.011-1.105,22.038-2.624,37.648-6.483,58.223l-6.6-1.912c-68.04-19.057-181.787-37.459-200.827,35.061-9.106,34.705,6.242,72.314,47,93.338a148.991,148.991,0,0,0,66.579,16c44.787,0,82.752-21.158,105.6-59.909a153.636,153.636,0,0,0,15.066-35.211c15.159,3.861,63.057,19.565,121,21.588,55.073,1.93,86.705-3.616,133.141-27.379L516.2,234.807c-24.829,13.418-59.1,22.843-109.791,21.026-44.151-1.593-101.022-18.476-116.445-23.93,3.11-20.069,5.658-44.168,6.726-65.737.714-9.631,1.387-25.372,1.387-25.372.451-19.563.356-38.471,0-54.661V24.8h-43.83V96.326ZM87.619,267.17c4.46-26.422,29.721-30,58.411-30,19.732,0,37.628,3.6,73.757,13.455,4.085,1.105,11.636,3.766,16.116,5.378,3.672,1.311,10.568,4.291,10.568,4.291-2.772,8.977-11.936,28.241-20.351,36.335-36.3,34.93-76.829,32.756-106.381,19.565C99.011,306.934,84.546,285.348,87.6,267.17Z" transform="translate(37.465 21.187)" fill="#282828"/><path d="M.019,227.678H42.8V158.006H80.391c16.958,0,32.248-2.961,45.44-8.826a72.029,72.029,0,0,0,31.69-26.685c7.738-11.823,11.654-26.683,11.654-44.186s-3.542-33.374-10.531-44.767A62.086,62.086,0,0,0,129.074,8.336C116.612,3.127,101.716.485,84.775.485H0V227.7ZM42.8,40.7H82.9c14.617,0,25.523,3.13,32.384,9.314,6.781,6.108,10.23,15.422,10.23,27.659,0,14.054-4.143,24.434-12.311,30.863-8.341,6.559-19.583,9.874-33.429,9.874H42.8V40.7Z" transform="translate(0 0.414)" fill="#282828"/><path d="M244.09,14.9A96.1,96.1,0,0,0,207.7,56.143c-8.226,17.371-12.385,37.628-12.385,60.246s4.066,42.762,12.068,59.909a92.394,92.394,0,0,0,36.111,40.626c15.869,9.687,35.677,14.6,58.859,14.6,16.641,0,31.892-2.848,45.29-8.489a86.128,86.128,0,0,0,33.6-24.623c8.847-10.718,14-22.656,16.546-37.815l.432-2.605H354.276l.171.451a39.377,39.377,0,0,1-9.6,17.071,46.332,46.332,0,0,1-17.278,11.224c-6.876,2.605-15.066,3.937-24.323,3.937-14.842,0-27.078-3.542-36.409-10.532a60.534,60.534,0,0,1-20.614-27.846,106.429,106.429,0,0,1-6.557-37.477,101.882,101.882,0,0,1,6.258-36.224,59.768,59.768,0,0,1,20.013-27.227c9.127-6.991,21.38-10.532,36.391-10.532,13.831,0,25.167,2.924,33.695,8.713a41.065,41.065,0,0,1,16.882,23.837l.449,1.648H395.39L395,72.464c-2.325-15.367-7.682-28.54-15.891-39.146a81.687,81.687,0,0,0-31.894-24.66C334.3,2.9,319.2,0,302.331,0c-22.767,0-42.369,5.021-58.258,14.916Z" transform="translate(166.857 0)" fill="#282828"/><path d="M383.013,120.622c-25.523.881-43.737,5.3-67.723,20.2l17.221,27.471c15.647-9.427,36.259-15.422,50.8-15.235,27.472.338,32.308,19.133,32.7,28.8,0,0-35.042-2.811-55.974.881a86.187,86.187,0,0,0-23.93,7.946c-7.5,3.692-12.949,8.265-17.277,15.309-4.348,7.046-6.616,14.992-6.616,25.936,0,6.483,1.593,15.422,4.966,21.812a47.122,47.122,0,0,0,13.531,15.966,55.819,55.819,0,0,0,17.97,9.518,63.438,63.438,0,0,0,20.238,2.943,104.361,104.361,0,0,0,16-1.161,67.634,67.634,0,0,0,19.919-6.579,45.024,45.024,0,0,0,14.111-11.243l.749,16.565h37.852v-82.17c0-25.016-4.834-38.584-15.984-52.6-11.261-14.148-34.141-25.185-58.522-24.36ZM417.08,212.5a29.765,29.765,0,0,1-5.359,17.54c-3.6,5.227-8.47,8.433-14.5,11.356a48.124,48.124,0,0,1-21.063,4.778,34.434,34.434,0,0,1-12.685-2.231c-3.861-1.5-7.009-3.241-9.351-6.052a14.9,14.9,0,0,1-3.805-10.175,14.724,14.724,0,0,1,3.449-10.008,19.8,19.8,0,0,1,8.526-5.415,55.342,55.342,0,0,1,12.611-2.362c15.422-1.461,42.163-.449,42.163-.449v3.035Z" transform="translate(266.727 103.011)" fill="#282828"/><path d="M626.5,196.337a57.133,57.133,0,0,0,7.738-17.278,81.5,81.5,0,0,0,2.422-20.592,59.833,59.833,0,0,0-8.156-30.615,63.14,63.14,0,0,0-22.114-22.532,62.025,62.025,0,0,0-62.342-.208,63.141,63.141,0,0,0-22.322,22.322,59.466,59.466,0,0,0-8.363,31.032h11.61a48.853,48.853,0,0,1,6.566-24.811,50.893,50.893,0,0,1,17.9-18.319,50.472,50.472,0,0,1,50.73-.137,51.658,51.658,0,0,1,18.107,18.105,48.159,48.159,0,0,1,6.774,25.161,68.582,68.582,0,0,1-3.735,23.012q-3.73,10.572-16.446,22.049L511.7,288.394l-.274,11.612h125.23V288.394H528.823l83.781-76.3A84.248,84.248,0,0,0,626.5,196.337" transform="translate(436.914 82.709)" fill="#282828"/><path d="M720.56,204.493a68.345,68.345,0,0,0-24.052-24.048,63.807,63.807,0,0,0-33.309-8.988,61.9,61.9,0,0,0-34.833,10.3,72.773,72.773,0,0,0-19.908,19.3V163.167a53.214,53.214,0,0,1,7.191-27.093,56.159,56.159,0,0,1,19.557-20.039,55.049,55.049,0,0,1,55.7-.07A54.535,54.535,0,0,1,710.467,135.8l9.958-5.806a64.932,64.932,0,0,0-23.709-24.052,66.429,66.429,0,0,0-66.968-.137,67.8,67.8,0,0,0-23.984,24.048,64.228,64.228,0,0,0-8.916,33.314v74.641a63.8,63.8,0,0,0,8.988,33.309,68.344,68.344,0,0,0,24.047,24.054,66.276,66.276,0,0,0,66.625,0,68.314,68.314,0,0,0,24.052-24.054,66.262,66.262,0,0,0,0-66.623m-9.95,60.955a54.892,54.892,0,0,1-19.765,19.765,55.814,55.814,0,0,1-55.293,0,54.852,54.852,0,0,1-19.765-19.765,55.8,55.8,0,0,1,0-55.286A54.96,54.96,0,0,1,635.551,190.4a55.827,55.827,0,0,1,55.293,0,55,55,0,0,1,19.765,19.767,55.837,55.837,0,0,1,0,55.286" transform="translate(509.889 82.71)" fill="#282828"/></g></svg>