<?xml version="1.0" encoding="UTF-8"?>
<svg id="Layer_2" data-name="Layer 2" xmlns="http://www.w3.org/2000/svg" viewBox="0 0 616.89 117.49">
  <defs>
    <style>
      .cls-1 {
        fill: #282828;
      }
    </style>
  </defs>
  <g id="Layer_1-2" data-name="Layer 1">
    <g id="Layer_1-3" data-name="Layer 1">
      <g>
        <g id="Layer_1-2" data-name="Layer 1-2">
          <g id="Layer_1-2-2" data-name="Layer 1-2">
            <g>
              <path class="cls-1" d="M205.74,56.55c3.33-1.83,5.95-4.39,7.8-7.84,1.83-3.44,2.83-7.58,2.83-12.27s-1.01-9.01-2.88-12.48c-1.87-3.48-4.52-6.23-7.86-8.17s-7.33-2.92-11.83-2.92-8.34.96-11.74,2.83c-3.4,1.88-6.1,4.63-8,8.13-1.89,3.5-2.92,7.71-2.92,12.52s1.01,8.84,2.87,12.27c1.87,3.46,4.55,6.02,7.97,7.88,3.39,1.85,7.39,2.79,11.9,2.79s8.56-.92,11.86-2.75h0ZM193.71,24.22c2.66,0,4.78.53,6.3,1.7,1.55,1.19,2.69,2.72,3.39,4.55.72,1.87,1.09,3.86,1.09,5.9s-.36,4.01-1.09,5.85c-.7,1.79-1.85,3.26-3.41,4.35-1.55,1.09-3.67,1.65-6.28,1.65s-4.63-.56-6.19-1.65c-1.57-1.1-2.71-2.55-3.41-4.31-.72-1.81-1.09-3.79-1.09-5.89s.37-4.03,1.09-5.89c.7-1.83,1.86-3.35,3.43-4.55,1.55-1.17,3.63-1.71,6.17-1.71h0Z"/>
              <path class="cls-1" d="M262.7,23.37c-1.06-3.17-2.68-5.74-5.11-7.63-2.46-1.91-5.89-2.87-10.21-2.87-1.36,0-3.05.18-4.72.51-1.68.34-3.36.96-4.98,1.85-1.22.67-2.35,1.52-3.37,2.55l-.48-4.16h-12.1v44.94h12.92v-22.18c0-2.17.34-4.34,1.03-6.13.67-1.75,1.7-3.31,3.09-4.33,1.36-1.01,3.1-1.52,5.15-1.52,1.57,0,3.01.61,3.94,1.21.94.6,1.68,1.4,2.21,2.39.54,1.03.92,2.19,1.13,3.44.21,1.28.32,2.58.32,3.87v23.25h12.75v-24.74c0-3.8-.53-7.31-1.57-10.43h0v-.02Z"/>
              <path class="cls-1" d="M243.33,114.14c1.68-.34,3.52-.96,5.14-1.85,1.22-.67,2.35-1.52,3.37-2.55l.48,4.16h11.94v-45.88h-12.75v23.13c0,2.17-.34,4.18-1.03,5.96-.67,1.75-1.7,3.14-3.09,4.17-1.36,1.01-3.26,1.52-5.3,1.52-1.57,0-2.85-.3-3.78-.89-.94-.6-1.68-1.4-2.21-2.39-.54-1.03-.92-2.19-1.13-3.44-.21-1.28-.32-2.58-.32-3.87v-24.21h-12.92v25.7c0,3.8.53,7.31,1.57,10.43,1.06,3.17,2.83,5.74,5.27,7.63,2.46,1.91,5.89,2.87,10.21,2.87,1.36,0,2.89-.18,4.56-.51h0v.02Z"/>
              <path class="cls-1" d="M86.81,34.97c0,2.09-.08,4.12-.54,6.05-.44,1.85-1.4,3.39-2.62,4.59-1.19,1.16-3.34,1.77-5.8,1.77-1.91,0-3.66-.34-4.76-1.02-1.1-.68-1.94-1.57-2.48-2.66-.57-1.14-.94-2.4-1.09-3.75-.16-1.4-.25-2.83-.25-4.23V13.69h-12.38v24.74c0,3.98.58,7.58,1.74,10.69,1.17,3.18,3.09,5.3,5.75,7.11,3.09,2.11,6.66,3.17,12.38,3.06,6.53-.12,9.51-2.7,11.84-4.47-.33,6.56-.78,11.2-1.93,17.33l-1.96-.57c-20.25-5.67-54.1-11.15-59.77,10.43-2.71,10.33,1.86,21.52,13.99,27.78,5.91,3.05,13.05,4.76,19.82,4.76,13.33,0,24.63-6.3,31.43-17.83,1.77-3.01,3.24-6.3,4.48-10.48,4.51,1.15,18.76,5.82,36.01,6.43,16.39.57,25.81-1.08,39.63-8.15l-5.53-8.34c-7.39,4-17.59,6.8-32.68,6.26-13.14-.47-30.06-5.5-34.66-7.12.92-5.97,1.68-13.14,2-19.56.21-2.87.42-7.55.42-7.55.14-5.82.1-11.45,0-16.27V13.69h-13.05v21.29h0ZM37.22,85.81c1.33-7.86,8.84-8.93,17.38-8.93,5.87,0,11.2,1.07,21.95,4,1.22.33,3.46,1.12,4.8,1.6,1.09.39,3.14,1.28,3.14,1.28-.83,2.67-3.55,8.41-6.06,10.81-10.81,10.4-22.86,9.75-31.66,5.82-6.17-2.75-10.47-9.18-9.56-14.59h0Z"/>
              <path class="cls-1" d="M0,67.88h12.73v-20.73h11.19c5.05,0,9.6-.88,13.52-2.62,3.96-1.75,7.13-4.43,9.43-7.94,2.3-3.52,3.47-7.94,3.47-13.15s-1.05-9.93-3.13-13.33c-2.09-3.4-5.05-5.93-8.8-7.5-3.71-1.55-8.14-2.34-13.18-2.34H0v67.62h0ZM12.73,12.23h11.94c4.35,0,7.6.93,9.64,2.77,2.02,1.82,3.05,4.59,3.05,8.23,0,4.18-1.23,7.27-3.66,9.19-2.48,1.95-5.83,2.94-9.95,2.94h-11.01V12.24h0Z"/>
              <path class="cls-1" d="M122.3,4.43c-4.73,2.95-8.37,7.08-10.83,12.27-2.45,5.17-3.68,11.2-3.68,17.93s1.21,12.73,3.59,17.83c2.4,5.14,6.01,9.21,10.75,12.09,4.72,2.88,10.62,4.35,17.52,4.35,4.95,0,9.49-.84,13.48-2.53,4.01-1.68,7.37-4.15,10-7.33,2.63-3.19,4.16-6.74,4.93-11.25l.13-.77h-13.08l.05.14c-.53,1.94-1.48,3.65-2.85,5.08-1.38,1.44-3.11,2.57-5.14,3.34-2.05.77-4.48,1.17-7.24,1.17-4.42,0-8.06-1.05-10.84-3.13-2.79-2.09-4.86-4.87-6.13-8.29-1.29-3.45-1.95-7.21-1.95-11.16s.62-7.45,1.86-10.78c1.22-3.29,3.22-6.01,5.96-8.1,2.72-2.08,6.36-3.13,10.83-3.13,4.11,0,7.49.87,10.03,2.59,2.51,1.71,4.2,4.09,5.02,7.1l.14.49h12.51l-.12-.77c-.69-4.57-2.29-8.49-4.73-11.65-2.44-3.15-5.63-5.62-9.49-7.34-3.84-1.72-8.34-2.58-13.36-2.58-6.78,0-12.61,1.49-17.34,4.44h-.02Z"/>
              <path class="cls-1" d="M193.37,66.55c-7.6.26-13.01,1.58-20.15,6.01l5.13,8.17c4.66-2.81,10.79-4.59,15.12-4.54,8.17.1,9.62,5.69,9.73,8.57,0,0-10.43-.84-16.66.26-2.75.49-4.94,1.29-7.12,2.37-2.23,1.1-3.85,2.46-5.14,4.55-1.29,2.1-1.97,4.46-1.97,7.72,0,1.93.47,4.59,1.47,6.49s2.35,3.5,4.03,4.75c1.66,1.24,3.25,2.19,5.35,2.83,2.09.63,3.69.88,6.02.88,1.32,0,2.89-.06,4.76-.34,1.91-.29,3.9-.95,5.93-1.96,1.56-.78,2.97-1.9,4.2-3.35l.22,4.93h11.27v-24.46c0-7.45-1.44-11.48-4.76-15.65-3.35-4.21-10.16-7.5-17.42-7.25h-.01v.02ZM203.5,93.89c0,2.01-.53,3.68-1.59,5.22-1.07,1.55-2.52,2.51-4.31,3.38-1.81.88-3.92,1.42-6.27,1.42-1.33,0-2.6-.2-3.77-.66-1.15-.45-2.09-.96-2.78-1.8-.67-.81-1.13-1.7-1.13-3.03s.44-2.3,1.03-2.98c.63-.71,1.48-1.25,2.54-1.61,1.11-.38,2.38-.57,3.76-.7,4.59-.44,12.55-.14,12.55-.14v.9h-.03Z"/>
            </g>
          </g>
        </g>
        <g>
          <path class="cls-1" d="M362.95,57.73c1.95-2.9,3.37-6.03,4.26-9.39.9-3.36,1.35-7.1,1.37-11.21.03-6.03-1.42-11.59-4.36-16.7-2.94-5.1-6.93-9.22-11.98-12.33-5.05-3.11-10.74-4.68-17.06-4.72-6.17-.03-11.79,1.44-16.88,4.43-5.09,2.99-9.16,7.02-12.21,12.09-3.07,5.08-4.61,10.71-4.64,16.88l6.32.03c.02-4.86,1.24-9.36,3.64-13.49s5.67-7.44,9.8-9.92c4.13-2.49,8.77-3.72,13.94-3.7,5.02.03,9.58,1.28,13.68,3.76,4.1,2.48,7.37,5.79,9.81,9.91s3.65,8.7,3.62,13.72c-.02,4.52-.72,8.69-2.1,12.52-1.37,3.83-4.38,7.82-9.01,11.96l-50.95,45.96-.18,6.32,68.18.33.03-6.32-58.71-.29,45.82-41.31c3.12-2.8,5.66-5.64,7.6-8.54h.01Z"/>
          <path class="cls-1" d="M433.27,8.36c-4.98-3.01-10.48-4.52-16.5-4.56-6.02-.03-11.54,1.44-16.54,4.4-5.01,2.96-9.02,6.93-12.03,11.91-3.01,4.98-4.53,10.47-4.56,16.5l-.23,46.96c-.03,6.03,1.44,11.54,4.4,16.54s6.93,9.01,11.91,12.02c4.98,3.01,10.48,4.53,16.5,4.56,6.02.04,11.53-1.44,16.54-4.4s9.01-6.93,12.03-11.9c3.01-4.98,4.53-10.47,4.56-16.5l.23-46.96c.03-6.03-1.44-11.54-4.4-16.54-2.96-5.01-6.93-9.02-11.91-12.03h0ZM443.02,83.86c-.02,4.86-1.25,9.32-3.68,13.34-2.42,4.02-5.67,7.23-9.72,9.62-4.05,2.39-8.51,3.57-13.38,3.55-4.87-.02-9.32-1.25-13.34-3.68-4.03-2.42-7.23-5.67-9.63-9.71-2.39-4.05-3.57-8.51-3.55-13.38l.23-46.97c.02-4.86,1.25-9.31,3.68-13.34,2.43-4.02,5.67-7.23,9.72-9.63,4.05-2.38,8.51-3.57,13.38-3.55,4.87.03,9.31,1.25,13.34,3.68,4.03,2.43,7.23,5.67,9.62,9.72s3.58,8.51,3.55,13.38l-.23,46.97h0Z"/>
          <path class="cls-1" d="M524.16,58.52c1.95-2.9,3.37-6.03,4.26-9.39.9-3.36,1.35-7.1,1.37-11.21.03-6.03-1.42-11.59-4.36-16.7-2.94-5.11-6.93-9.22-11.98-12.33s-10.74-4.68-17.06-4.71c-6.17-.03-11.8,1.44-16.88,4.43-5.09,2.99-9.16,7.02-12.21,12.09-3.07,5.08-4.61,10.71-4.64,16.88l6.32.03c.02-4.87,1.24-9.37,3.64-13.5,2.4-4.12,5.67-7.44,9.8-9.92s8.77-3.72,13.94-3.69c5.02.03,9.58,1.28,13.68,3.76,4.1,2.47,7.37,5.78,9.81,9.91,2.44,4.12,3.65,8.7,3.62,13.72-.02,4.52-.72,8.69-2.1,12.52-1.37,3.83-4.38,7.82-9.01,11.95l-50.96,45.96-.18,6.32,68.19.34.03-6.32-58.71-.29,45.82-41.32c3.12-2.79,5.66-5.64,7.6-8.53h.01Z"/>
          <path class="cls-1" d="M612.08,63.39c-3.23-5.48-7.58-9.87-13.03-13.17-5.45-3.28-11.49-4.95-18.11-4.98-6.97-.04-13.31,1.8-18.99,5.51-4.37,2.85-8,6.34-10.89,10.46l.1-20.63c.03-5.31,1.36-10.23,3.99-14.73s6.2-8.12,10.7-10.86c4.5-2.73,9.59-4.09,15.26-4.07,5.52.03,10.54,1.42,15.07,4.18,4.53,2.76,8.06,6.38,10.6,10.85l5.44-3.14c-3.04-5.43-7.32-9.82-12.84-13.16-5.53-3.34-11.6-5.03-18.23-5.06-6.67-.03-12.75,1.57-18.24,4.81-5.49,3.23-9.86,7.58-13.12,13.02-3.27,5.46-4.91,11.5-4.95,18.12l-.2,40.65c-.03,6.62,1.57,12.67,4.8,18.16,3.23,5.48,7.58,9.87,13.04,13.16,5.45,3.29,11.49,4.95,18.11,4.98,6.62.04,12.68-1.56,18.16-4.81,5.48-3.23,9.87-7.58,13.16-13.02,3.29-5.46,4.95-11.49,4.98-18.11.04-6.62-1.57-12.68-4.8-18.16h0ZM606.5,96.56c-2.68,4.5-6.29,8.06-10.82,10.71-4.52,2.64-9.55,3.94-15.07,3.91s-10.53-1.38-15.04-4.06c-4.5-2.69-8.07-6.29-10.71-10.81-2.64-4.53-3.94-9.56-3.92-15.08.03-5.52,1.38-10.53,4.06-15.03,2.69-4.5,6.29-8.07,10.82-10.71,4.53-2.64,9.55-3.94,15.07-3.91s10.53,1.38,15.03,4.06c4.5,2.69,8.07,6.29,10.71,10.82s3.94,9.56,3.92,15.08-1.38,10.53-4.06,15.03h0Z"/>
        </g>
      </g>
    </g>
  </g>
</svg>