<?xml version="1.0" encoding="UTF-8"?>
<svg id="Layer_2" data-name="Layer 2" xmlns="http://www.w3.org/2000/svg" viewBox="0 0 6862.43 620.97">
  <defs>
    <style>
      .cls-1 {
        fill: #bdf461;
      }

      .cls-2 {
        fill: #b280ff;
      }

      .cls-3 {
        fill: #511fe5;
      }

      .cls-4 {
        fill: #ef553c;
      }

      .cls-5 {
        fill: #259f4f;
      }
    </style>
  </defs>
  <g id="Layer_1-2" data-name="Layer 1">
    <g>
      <path class="cls-3" d="M2517.06,619.98c-126,0-228.84-102.63-228.84-228.76l-.54-159.27h229.1v156.03h228.79c0,127.93-102.51,232-228.52,232"/>
      <path class="cls-1" d="M2288.33,0c-124.88,0-228.83,102.63-228.83,228.76l-.11,158.67h228.68v-155.43h228.79c0-127.93-102.51-232-228.52-232"/>
      <path class="cls-4" d="M2974.52,619.98c-126,0-228.84-102.63-228.84-228.76l-.53-159.27h229.1v156.03h228.79c0,127.93-102.51,232-228.52,232"/>
      <path class="cls-2" d="M2745.89,0c-126,0-228.83,102.63-228.83,228.76l-.54,159.27h229.1v-156.04h228.79c0-127.93-102.51-232-228.52-232"/>
      <path class="cls-1" d="M3431.97,619.98c-126,0-228.84-102.63-228.84-228.76l-.54-159.27h229.1v156.03h228.79c0,127.93-102.51,232-228.52,232"/>
      <path class="cls-5" d="M3203.03,0c-124.88,0-228.83,102.63-228.83,228.76l-.11,158.95h228.68v-155.71h228.79c0-127.93-102.51-232-228.52-232"/>
      <path class="cls-2" d="M3889.43,619.98c-126,0-228.83-102.63-228.83-228.76l-.54-159.27h229.1v156.03h228.79c0,127.93-102.51,232-228.52,232"/>
      <path class="cls-3" d="M3660.6,0c-126,0-228.84,102.63-228.84,228.76l-.53,159.27h229.1v-156.04h228.79c0-127.93-102.51-232-228.52-232"/>
      <path class="cls-5" d="M4346.9,619.98c-126,0-228.83-102.63-228.83-228.76l-.54-159.27h229.1v156.03h228.79c0,127.93-102.51,232-228.52,232"/>
      <path class="cls-4" d="M4118.17,0c-126,0-228.83,102.63-228.83,228.76l-.54,159.27h229.1v-156.04h228.79c0-127.93-102.51-232-228.52-232"/>
      <path class="cls-3" d="M229.37,619.98C103.37,619.98.54,517.35.54,391.21l-.54-159.27h229.1v156.03h228.79c0,127.93-102.51,232-228.52,232"/>
      <path class="cls-4" d="M686.83,619.98c-126,0-228.83-102.63-228.83-228.76l-.54-159.27h229.1v156.03h228.79c0,127.93-102.51,232-228.52,232"/>
      <path class="cls-2" d="M458.2,0c-126,0-228.84,102.63-228.84,228.76l-.54,159.27h229.1v-156.04h228.79C686.72,104.07,584.21,0,458.21,0"/>
      <path class="cls-1" d="M1144.29,619.98c-126,0-228.83-102.63-228.83-228.76l-.54-159.27h229.1v156.03h228.79c0,127.93-102.51,232-228.52,232"/>
      <path class="cls-5" d="M915.35,0c-124.88,0-228.84,102.63-228.84,228.76l-.11,158.95h228.68v-155.71h228.79c0-127.93-102.51-232-228.52-232"/>
      <path class="cls-2" d="M1601.75,619.98c-126,0-228.83-102.63-228.83-228.76l-.54-159.27h229.1v156.03h228.79c0,127.93-102.51,232-228.52,232"/>
      <path class="cls-3" d="M1372.91,0c-126,0-228.84,102.63-228.84,228.76l-.54,159.27h229.1v-156.04h228.79c0-127.93-102.51-232-228.52-232"/>
      <path class="cls-5" d="M2059.21,619.98c-126,0-228.84-102.63-228.84-228.76l-.54-159.27h229.11v156.03h228.78c0,127.93-102.51,232-228.52,232"/>
      <path class="cls-4" d="M1830.48,0c-126,0-228.84,102.63-228.84,228.76l-.54,159.27h229.11v-156.04h228.78c0-127.93-102.51-232-228.52-232"/>
      <path class="cls-3" d="M4804.08,620.97c-126,0-228.84-102.63-228.84-228.76l-.53-159.27h229.1v156.03h228.79c0,127.93-102.51,232-228.52,232"/>
      <path class="cls-1" d="M4575.35.99c-124.88,0-228.83,102.63-228.83,228.76l-.11,158.67h228.68v-155.43h228.79c0-127.93-102.51-232-228.52-232"/>
      <path class="cls-4" d="M5261.54,620.97c-126,0-228.83-102.63-228.83-228.76l-.54-159.27h229.1v156.03h228.79c0,127.93-102.51,232-228.52,232"/>
      <path class="cls-2" d="M5032.92.99c-126,0-228.83,102.63-228.83,228.76l-.54,159.27h229.1v-156.04h228.79c0-127.93-102.51-232-228.52-232"/>
      <path class="cls-1" d="M5718.99,620.97c-126,0-228.83-102.63-228.83-228.76l-.54-159.27h229.1v156.03h228.79c0,127.93-102.51,232-228.52,232"/>
      <path class="cls-5" d="M5490.06.99c-124.88,0-228.83,102.63-228.83,228.76l-.11,158.95h228.68v-155.71h228.79c0-127.93-102.51-232-228.52-232"/>
      <path class="cls-2" d="M6176.45,620.97c-126,0-228.83-102.63-228.83-228.76l-.54-159.27h229.1v156.03h228.79c0,127.93-102.51,232-228.52,232"/>
      <path class="cls-3" d="M5947.62.99c-126,0-228.83,102.63-228.83,228.76l-.54,159.27h229.1v-156.04h228.79c0-127.93-102.51-232-228.52-232"/>
      <path class="cls-5" d="M6633.92,620.97c-126,0-228.83-102.63-228.83-228.76l-.54-159.27h229.1v156.03h228.79c0,127.93-102.51,232-228.52,232"/>
      <path class="cls-4" d="M6405.19.99c-126,0-228.83,102.63-228.83,228.76l-.54,159.27h229.1v-156.04h228.79c0-127.93-102.51-232-228.52-232"/>
    </g>
  </g>
</svg>