<?xml version="1.0" encoding="UTF-8" standalone="no"?>
<!-- Generator: Adobe Illustrator 27.9.0, SVG Export Plug-In . SVG Version: 6.00 Build 0)  -->

<svg
   version="1.0"
   x="0px"
   y="0px"
   viewBox="0 0 362.8 62.4"
   style="enable-background:new 0 0 362.8 62.4;"
   xml:space="preserve"
   id="svg20"
   sodipodi:docname="Logo-Landscape-Colour-on-Transparent.svg"
   inkscape:version="1.3.2 (091e20e, 2023-11-25)"
   xmlns:inkscape="http://www.inkscape.org/namespaces/inkscape"
   xmlns:sodipodi="http://sodipodi.sourceforge.net/DTD/sodipodi-0.dtd"
   xmlns:xlink="http://www.w3.org/1999/xlink"
   xmlns="http://www.w3.org/2000/svg"
   xmlns:svg="http://www.w3.org/2000/svg"><defs
   id="defs20" /><sodipodi:namedview
   id="namedview20"
   pagecolor="#ffffff"
   bordercolor="#000000"
   borderopacity="0.25"
   inkscape:showpageshadow="2"
   inkscape:pageopacity="0.0"
   inkscape:pagecheckerboard="0"
   inkscape:deskcolor="#d1d1d1"
   inkscape:export-bgcolor="#ffffff00"
   inkscape:zoom="1.606946"
   inkscape:cx="181.39999"
   inkscape:cy="31.426071"
   inkscape:window-width="2000"
   inkscape:window-height="1414"
   inkscape:window-x="0"
   inkscape:window-y="25"
   inkscape:window-maximized="0"
   inkscape:current-layer="svg20" />
<style
   type="text/css"
   id="style1">
	.st0{fill:#F9F5EC;}
	.st1{clip-path:url(#SVGID_00000163066634086930034910000012346529518159198650_);}
	.st2{fill:#152039;}
</style>

<g
   id="Artwork">
	<g
   id="g20">
		<g
   id="g7">
			<g
   id="g6">
				<defs
   id="defs1">
					<path
   id="SVGID_1_"
   d="M21.8,31.2l5.6,3.2l24.5-14.2V17L38.3,9.1L16.5,21.7l-5.4-3.1L32.8,6l-5.4-3.1L2.8,17v3.2L16.4,28       c7.3-4.2,14.6-8.4,21.9-12.6l5.4,3.1L21.8,31.2L21.8,31.2z M27.4,40.7L2.8,26.5v18.8l24.5,14.2l24.5-14.2v-6.3L27.4,53.2       l-19.1-11v-6.3l19.1,11l24.5-14.2v-6.3L27.4,40.7L27.4,40.7z" />
				</defs>
				
					<linearGradient
   id="SVGID_00000129896867735394108940000018345507491417175187_"
   gradientUnits="userSpaceOnUse"
   x1="4.1612"
   y1="18.193"
   x2="49.2297"
   y2="43.4008">
					<stop
   offset="0"
   style="stop-color:#A68AF9"
   id="stop1" />
					<stop
   offset="0.9993"
   style="stop-color:#542AA6"
   id="stop2" />
				</linearGradient>
				
					<use
   xlink:href="#SVGID_1_"
   style="overflow:visible;fill-rule:evenodd;clip-rule:evenodd;fill:url(#SVGID_00000129896867735394108940000018345507491417175187_);"
   id="use2" />
				<clipPath
   id="SVGID_00000000222990505103538600000007361471379722179741_">
					<use
   xlink:href="#SVGID_1_"
   style="overflow:visible;"
   id="use3" />
				</clipPath>
				<g
   style="clip-path:url(#SVGID_00000000222990505103538600000007361471379722179741_);"
   clip-path="url(#SVGID_00000000222990505103538600000007361471379722179741_)"
   id="g5">
					<defs
   id="defs3">
						<rect
   id="SVGID_00000109744145123923364060000011288153703272363960_"
   x="3.3"
   y="2.8"
   width="49.1"
   height="56.7" />
					</defs>
					
						<linearGradient
   id="SVGID_00000129174537473195987210000004358624387405393337_"
   gradientUnits="userSpaceOnUse"
   x1="4.2672"
   y1="18.0035"
   x2="49.3356"
   y2="43.2113">
						<stop
   offset="0"
   style="stop-color:#A68AF9"
   id="stop3" />
						<stop
   offset="0.9993"
   style="stop-color:#542AA6"
   id="stop4" />
					</linearGradient>
					
						<use
   xlink:href="#SVGID_00000109744145123923364060000011288153703272363960_"
   style="overflow:visible;fill:url(#SVGID_00000129174537473195987210000004358624387405393337_);"
   id="use4" />
					<clipPath
   id="SVGID_00000079469397396495149150000004552660132929753500_">
						<use
   xlink:href="#SVGID_00000109744145123923364060000011288153703272363960_"
   style="overflow:visible;"
   id="use5" />
					</clipPath>
				</g>
			</g>
		</g>
		<g
   id="g19">
			<g
   id="g8">
				<path
   class="st2"
   d="M226.6,25.6c0-3,4.7-3.4,8.5-3.4c4.3,0,7.6,0.5,9.8,1.3l0.2-3.2c-1.7-0.6-5.7-1.3-10.5-1.3      c-4.8,0-11.7,0.8-11.7,6.9c0,10.4,20.1,3.9,20.1,10.5c0,3.3-4.8,4-9.5,4c-3.5,0-7.4-0.4-11-1.2l2.4,3.7c2.9,0.5,6.3,0.7,9.1,0.7      c6,0,12.7-1.1,12.7-7.4C246.6,25.2,226.6,31.6,226.6,25.6z"
   id="path7" />
			</g>
			<g
   id="g9">
				<path
   class="st2"
   d="M357.6,24.5c-1.2,0-2.4-0.7-2.4-2.2c0-1.4,1.2-2.2,2.4-2.2c1.2,0,2.4,0.7,2.4,2.2      C360,23.8,358.8,24.5,357.6,24.5z M357.6,20.6c-1,0-1.9,0.6-1.9,1.8c0,1.2,0.9,1.8,1.9,1.8c1,0,1.9-0.6,1.9-1.8      C359.5,21.2,358.5,20.6,357.6,20.6z M358.4,23.5l-0.5-0.7h-1v0.7h-0.5v-2.3h1.6c0.7,0,0.9,0.4,0.9,0.8c0,0.3-0.1,0.6-0.5,0.7      l0.5,0.8H358.4z M356.9,21.6v0.7h1c0.4,0,0.4-0.2,0.4-0.4c0-0.1-0.1-0.3-0.4-0.3H356.9z"
   id="path8" />
			</g>
			<path
   class="st2"
   d="M93.3,41.4c-3,1.4-6.4,2-10.5,2c-10.1,0-16.4-4.2-16.4-11.8s6.3-11.8,16.4-11.8c4.1,0,7.4,0.7,10.5,2.1v4.7     c-2.2-1.3-5.9-2.5-10.4-2.5c-7,0-11.2,2.8-11.2,7.5s4.1,7.5,11.4,7.5c4.3,0,8.2-1,10.3-2.1V41.4z"
   id="path9" />
			<path
   class="st2"
   d="M98.2,43V20.2h5V43H98.2z"
   id="path10" />
			<path
   class="st2"
   d="M113.1,35.7V43h-5V20.2h15.7c6.5,0,9,4.2,9,7.7c0,3.5-2.5,7.8-9,7.8H113.1z M113.1,24.5v6.9h9.7     c4,0,4.8-1.9,4.8-3.5c0-1.5-0.7-3.4-4.8-3.4H113.1z"
   id="path11" />
			<path
   class="st2"
   d="M158.2,43v-9.3h-17.4V43h-5V20.2h5v9.1h17.4v-9.1h5V43H158.2z"
   id="path12" />
			<path
   class="st2"
   d="M168.1,43V20.2h23v4H173v5.5h14.8v3.6H173v5.8h18.1V43H168.1z"
   id="path13" />
			<path
   class="st2"
   d="M215.8,43l-4.8-7.1h-9.8V43h-5V20.2h15.6c6.5,0,9,4.3,9,7.8c0,2.8-1.4,5.8-4.8,7.1l5.3,7.9H215.8z      M201.2,24.6v6.9h9.9c3.8,0,4.4-1.9,4.4-3.5c0-1.5-0.6-3.4-4.4-3.4H201.2z"
   id="path14" />
			<path
   class="st2"
   d="M257.8,43V23.5h-11v-3.3h25.8v3.3h-10.9V43H257.8z"
   id="path15" />
			<path
   class="st2"
   d="M291.3,38.1H275l-3.2,5h-4.2l15.6-23.2L298.8,43h-4.2L291.3,38.1z M277,35h12.3l-6.1-9.3L277,35z"
   id="path16" />
			<path
   class="st2"
   d="M350.1,43v-9.9h-19.8V43h-3.8V20.2h3.8v9.6h19.8v-9.6h3.8V43H350.1z"
   id="path17" />
			<g
   id="g18">
				<path
   class="st2"
   d="M302.9,25.6c0-3,4.7-3.4,8.5-3.4c4.3,0,7.6,0.5,9.8,1.3l0.2-3.2c-1.7-0.6-5.7-1.3-10.5-1.3      c-4.8,0-11.7,0.8-11.7,6.9c0,10.4,20.1,3.9,20.1,10.5c0,3.3-4.8,4-9.5,4c-3.5,0-7.4-0.4-11-1.2l2.4,3.7c2.9,0.5,6.3,0.7,9.1,0.7      c6,0,12.7-1.1,12.7-7.4C323,25.2,302.9,31.6,302.9,25.6z"
   id="path18" />
			</g>
		</g>
	</g>
</g>
</svg>
