<svg fill="none" height="87" viewBox="0 0 300 87" width="300" xmlns="http://www.w3.org/2000/svg" xmlns:xlink="http://www.w3.org/1999/xlink"><linearGradient id="a" gradientUnits="userSpaceOnUse" x1=".850001" x2="62.62" y1="62.72" y2="1.81"><stop offset="0" stop-color="#ff9419"/><stop offset=".43" stop-color="#ff021d"/><stop offset=".99" stop-color="#e600ff"/></linearGradient><path clip-rule="evenodd" d="m85.9467 42.8363c.3585-.6572.5377-1.4041.5377-2.2505v-19.568h6.6322v20.0659c0 1.892-.4382 3.5849-1.3045 5.0886-.8664 1.5037-2.0614 2.6888-3.585 3.5452s-3.2364 1.2846-5.1484 1.2846h-5.0787v-6.1044h4.1924c.8465 0 1.5834-.1793 2.2406-.5378.6573-.3585 1.1552-.8663 1.5137-1.5236zm32.2843-4.0729h-13.891v.01 6.443h15.783v5.7757h-22.2464v-29.9743h21.8184v5.7758h-15.355v6.3633h13.891zm12.856-11.8005h-8.882l-.01.01v-5.9551h24.367v5.9451h-8.842v24.0193h-6.633zm36.467 8.355c.588.1593 1.156.3684 1.673.6472l.01-.0099c1.225.6473 2.171 1.5535 2.858 2.7285.688 1.1751 1.026 2.4996 1.026 3.9833 0 1.6133-.438 3.0473-1.304 4.302-.877 1.2647-2.102 2.2406-3.675 2.9476-1.583.7071-3.376 1.0556-5.387 1.0556h-13.574v-29.9743h13.315c1.912 0 3.624.3386 5.118 1.0058 1.494.6772 2.659 1.6132 3.486 2.8082.826 1.205 1.244 2.5692 1.244 4.0929 0 1.3344-.318 2.5094-.936 3.5351-.617 1.0257-1.483 1.8224-2.579 2.39-.398.1992-.826.3585-1.275.488zm-6.044-9.2712h-5.886v7.3393h5.886c.816 0 1.533-.1494 2.161-.4581.627-.3087 1.115-.7369 1.464-1.3045.348-.5677.527-1.2548.527-1.9817 0-.727-.179-1.3643-.527-1.9021-.349-.5477-.837-.9659-1.464-1.2547-.628-.2888-1.345-.4382-2.161-.4382zm2.649 19.4485c.687-.3087 1.225-.7469 1.603-1.3145s.568-1.2249.568-1.9917c0-.7667-.2-1.4439-.578-2.0414s-.926-1.0556-1.613-1.3842c-.697-.3286-1.484-.4979-2.37-.4979h-6.145v7.6878h6.145c.906 0 1.693-.1494 2.39-.4581zm35.063-9.9881c-.917 1.4439-2.201 2.5692-3.864 3.3659h.01c-.319.1493-.657.2788-.996.3983l6.851 11.7208h-7.578l-6.084-10.9142h-4.322v10.9142h-6.642v-29.9743h13.124c2.171 0 4.073.3884 5.717 1.1751 1.643.7867 2.917 1.8921 3.814 3.3261.896 1.4339 1.344 3.0472 1.344 4.9592 0 1.9119-.458 3.5849-1.374 5.0289zm-7.598-1.3145c.687-.3286 1.214-.8166 1.583-1.444v-.0199c.368-.6274.558-1.3643.558-2.2008 0-.8364-.19-1.5734-.558-2.1908-.369-.6174-.896-1.1053-1.583-1.434-.688-.3286-1.494-.4979-2.42-.4979h-5.975v8.2952h5.975c.926 0 1.732-.1692 2.42-.5078zm11.471 16.7995 10.706-29.9743h7.189l10.964 29.9743h-6.612l-2.27-6.6122h-11.114l-2.121 6.6122zm13.812-22.2068-3.445 10.5756h7.947l-3.685-10.5756-.408-1.922zm24.099 22.2068h-6.851v-29.9743h6.851zm11.273-29.9743 12.896 20.275v-20.275h6.055v29.9743h-6.533l-12.826-20.2749v20.2749h-6.055v-29.9743zm41.695 13.7822c1.165.8465 2.082 1.8921 2.729 3.1369l-.02-.01c.647 1.2548.976 2.619.976 4.1028 0 1.8124-.478 3.4356-1.444 4.8696s-2.3 2.5593-4.023 3.3758c-1.713.8166-3.705 1.2249-5.915 1.2249-2.211 0-4.173-.3983-5.886-1.195-1.713-.7966-3.057-1.912-4.033-3.336-.986-1.434-1.484-3.0771-1.513-4.9492h6.642c0 .7667.199 1.4539.617 2.0414.408.5975.986 1.0556 1.733 1.3742.747.3187 1.613.478 2.529.478s1.713-.1394 2.39-.4282 1.205-.6971 1.584-1.2248c.378-.5278.567-1.1353.567-1.8025 0-.8365-.249-1.5236-.767-2.0813-.517-.5576-1.215-.946-2.101-1.1551l-5.397-1.1153c-1.414-.2988-2.649-.8365-3.725-1.6033-1.065-.7668-1.892-1.7327-2.479-2.8979-.588-1.1551-.876-2.4596-.876-3.9036 0-1.7825.458-3.3659 1.364-4.76.906-1.3942 2.181-2.4796 3.804-3.2663s3.475-1.1751 5.566-1.1751c2.092 0 3.964.3784 5.597 1.1352 1.633.7569 2.918 1.8025 3.834 3.1468.916 1.3344 1.404 2.878 1.444 4.6207h-6.642c0-.6473-.179-1.2149-.528-1.7228s-.837-.8963-1.464-1.1751-1.364-.4182-2.181-.4182c-.816 0-1.533.1294-2.151.3983-.617.2689-1.105.6373-1.444 1.1153-.348.478-.518 1.0357-.518 1.683 0 .707.239 1.3045.708 1.7825.468.478 1.105.8066 1.902.9958l5.098 1.0456c1.514.2888 2.858.8465 4.023 1.6929zm-210.714 33.2c1.32 0 2.51.3 3.55.9v.01c1.05.6 1.86 1.43 2.45 2.49s.88 2.27.88 3.61-.29 2.55-.88 3.61-1.4 1.89-2.45 2.49-2.23.9-3.55.9h-5.26v-14.01zm2.27 11.25c.66-.39 1.16-.95 1.52-1.68v-.01c.36-.72.54-1.58.54-2.56s-.18-1.83-.54-2.56-.86-1.29-1.52-1.68-1.42-.59-2.29-.59h-2.74v9.67h2.74c.87 0 1.63-.2 2.29-.59zm9.02 2.77h-2.36v-10.25h2.36zm.16-11.33h-2.69v-2.34h2.69zm7.7 5.28c.54.09 1.01.28 1.42.57v.03c.41.29.72.65.94 1.08s.33.9.33 1.4c0 .62-.19 1.18-.56 1.68s-.87.89-1.52 1.16-1.32.41-2.15.41-1.57-.14-2.23-.4-1.19-.64-1.58-1.12c-.4-.49-.61-1.04-.65-1.67h2.36c.04.27.15.5.33.7s.42.35.72.45c.3.11.65.16 1.04.16.37 0 .7-.05.99-.16.3-.11.53-.26.69-.45.17-.19.25-.42.25-.67 0-.19-.05-.36-.14-.51-.09-.16-.22-.29-.38-.39-.17-.11-.36-.18-.57-.21l-2.27-.38c-.55-.09-1.02-.27-1.43-.55s-.73-.63-.95-1.04c-.23-.41-.34-.87-.34-1.36 0-.61.16-1.15.49-1.63s.79-.84 1.4-1.12 1.31-.41 2.09-.41 1.47.13 2.09.38 1.11.61 1.47 1.08c.37.47.57 1.01.62 1.64h-2.35c-.04-.26-.15-.48-.31-.68s-.38-.34-.64-.45c-.27-.11-.54-.16-.88-.16s-.63.05-.89.15c-.26.11-.46.25-.6.44s-.21.4-.21.64c0 .18.04.34.13.47s.22.24.39.33.39.15.65.2zm5.62-6.71h2.2v2.5h2.71v2.05h-2.71v5.18c0 .28.09.51.28.7s.42.28.7.28h1.74v2.05h-2.21c-.55 0-1.04-.12-1.48-.35s-.77-.56-1.02-.97-.38-.88-.38-1.4v-5.48h-1.79v-2.05h1.12c.25 0 .46-.08.61-.24s.23-.36.23-.61zm8.87 4.06c.27-.44.59-.79.98-1.06l.01.01c.55-.38 1.18-.57 1.91-.57h.38v2.38h-.66c-.53 0-.99.1-1.38.29s-.69.47-.9.83-.32.79-.32 1.28v5.54h-2.36v-10.25h2.34zm7.29-2.63h-2.69v-2.34h2.69zm-.16 11.33h-2.36v-10.25h2.36zm8.3-10.5c.91 0 1.72.23 2.44.69v-.01c.72.45 1.28 1.09 1.69 1.91s.61 1.74.61 2.77-.2 1.95-.61 2.77-.97 1.45-1.69 1.91-1.54.69-2.45.69c-.84 0-1.58-.19-2.22-.56-.52-.3-.94-.71-1.27-1.22v1.54h-2.36v-14.01h2.36v5.3c.33-.51.75-.92 1.27-1.22.64-.37 1.38-.56 2.23-.56zm.92 8.22c.44-.28.79-.66 1.03-1.15v.01c.25-.49.37-1.06.37-1.7s-.13-1.21-.37-1.7c-.25-.49-.59-.87-1.03-1.15s-.93-.42-1.5-.42-1.08.14-1.52.42-.78.66-1.03 1.15-.37 1.06-.37 1.7.12 1.21.37 1.7.59.88 1.03 1.15.96.41 1.52.41 1.06-.14 1.5-.42zm12.09-.75c.2-.38.3-.81.3-1.29h-.01v-5.94h2.36v10.25h-2.29v-1.51c-.3.5-.68.9-1.15 1.2-.59.37-1.27.55-2.06.55-.73 0-1.38-.16-1.93-.48s-.98-.78-1.29-1.39-.46-1.33-.46-2.17v-6.45h2.35v6.09c0 .49.08.91.25 1.26s.41.62.72.8c.31.19.69.28 1.13.28.47 0 .88-.11 1.24-.32s.64-.5.84-.88zm6.13-9.73h2.2v2.5h2.71v2.05h-2.71v5.18c0 .28.09.51.28.7s.42.28.7.28h1.74v2.05h-2.21c-.55 0-1.04-.12-1.48-.35s-.77-.56-1.02-.97-.38-.88-.38-1.4v-5.48h-1.79v-2.05h1.12c.25 0 .46-.08.61-.24s.23-.36.23-.61zm11.1 2.27c1 0 1.92.23 2.74.7s1.47 1.11 1.94 1.93.71 1.73.71 2.74-.24 1.92-.71 2.74-1.12 1.46-1.94 1.93-1.74.7-2.75.7-1.92-.23-2.74-.7-1.47-1.11-1.94-1.93-.71-1.73-.71-2.74.23-1.92.7-2.74 1.12-1.46 1.94-1.93c.83-.47 1.76-.7 2.76-.7zm1.52 8.2c.45-.27.8-.66 1.04-1.15v.01c.25-.49.37-1.05.37-1.69s-.12-1.21-.37-1.7-.6-.87-1.04-1.15c-.45-.28-.95-.42-1.53-.42s-1.09.14-1.53.41-.78.66-1.03 1.15-.37 1.07-.37 1.7.13 1.2.37 1.69.58.88 1.03 1.15.96.41 1.53.41 1.08-.14 1.53-.41zm9.04-7.46c.55-.38 1.18-.57 1.91-.57l.01.01h.38v2.38h-.66c-.53 0-.99.1-1.38.29s-.69.47-.9.83-.32.79-.32 1.28v5.54h-2.36v-10.25h2.34v1.55c.27-.44.59-.79.98-1.06z" fill="#000" fill-rule="evenodd"/><path d="m20.34 3.66-16.68 16.68c-2.34 2.34-3.66 5.52-3.66 8.84v29.82c0 2.76 2.24 5 5 5h29.82c3.32 0 6.49-1.32 8.84-3.66l16.68-16.68c2.34-2.34 3.66-5.52 3.66-8.84v-29.82c0-2.76-2.24-5-5-5h-29.82c-3.32 0-6.49 1.32-8.84 3.66z" fill="url(#a)"/><path d="m48 16h-40v40h40z" fill="#000"/><path d="m30 47h-17v4h17z" fill="#fff"/></svg>