<?xml version="1.0" encoding="utf-8"?>
<!-- Generator: Adobe Illustrator 19.0.0, SVG Export Plug-In . SVG Version: 6.00 Build 0)  -->
<svg version="1.1" id="GoogleLogo_x5F_FullColor_x5F_rgb_21_"
	 xmlns="http://www.w3.org/2000/svg" xmlns:xlink="http://www.w3.org/1999/xlink" x="0px" y="0px" width="412px" height="135.3px"
	 viewBox="0 0 412 135.3" enable-background="new 0 0 412 135.3" xml:space="preserve">
<g id="_x34_12x136px">
	<path fill="#4285F4" d="M53.5,62.25V47.92h48c0.49,2.53,0.78,5.53,0.78,8.79c0,10.75-2.94,24.06-12.42,33.54
		c-9.22,9.6-20.99,14.72-36.61,14.72C24.32,104.96,0,81.41,0,52.48C0,23.55,24.32,0,53.25,0c16,0,27.39,6.27,35.97,14.46
		L79.11,24.58c-6.14-5.76-14.46-10.24-25.86-10.24c-21.12,0-37.63,17.02-37.63,38.15s16.51,38.15,37.63,38.15
		c13.7,0,21.5-5.5,26.5-10.5c4.07-4.07,6.75-9.9,7.79-17.88L53.5,62.25z"/>
	<path fill="#E94235" d="M175.42,71.17c0,19.46-15.23,33.79-33.92,33.79c-18.69,0-33.92-14.34-33.92-33.79
		c0-19.58,15.23-33.79,33.92-33.79C160.19,37.38,175.42,51.59,175.42,71.17z M160.57,71.17c0-12.16-8.83-20.48-19.07-20.48
		c-10.24,0-19.07,8.32-19.07,20.48c0,12.03,8.83,20.48,19.07,20.48C151.74,91.65,160.57,83.2,160.57,71.17z"/>
	<path fill="#FABB05" d="M248.42,71.17c0,19.46-15.23,33.79-33.92,33.79c-18.69,0-33.92-14.34-33.92-33.79
		c0-19.58,15.23-33.79,33.92-33.79C233.19,37.38,248.42,51.59,248.42,71.17z M233.57,71.17c0-12.16-8.83-20.48-19.07-20.48
		c-10.24,0-19.07,8.32-19.07,20.48c0,12.03,8.83,20.48,19.07,20.48C224.74,91.65,233.57,83.2,233.57,71.17z"/>
	<path fill="#4285F4" d="M318.5,39.41v60.69c0,24.96-14.72,35.2-32.13,35.2c-16.38,0-26.24-11.01-29.95-19.97l12.93-5.38
		c2.3,5.5,7.94,12.03,17.02,12.03c11.14,0,18.05-6.91,18.05-19.84v-4.86h-0.51c-3.33,4.1-9.73,7.68-17.79,7.68
		c-16.9,0-32.39-14.72-32.39-33.67c0-19.07,15.49-33.92,32.39-33.92c8.06,0,14.46,3.58,17.79,7.55h0.51v-5.52H318.5z M305.44,71.3
		c0-11.91-7.94-20.61-18.05-20.61c-10.24,0-18.82,8.7-18.82,20.61c0,11.78,8.58,20.35,18.82,20.35
		C297.51,91.65,305.44,83.08,305.44,71.3z"/>
	<path fill="#34A853" d="M343.5,3.92v99h-14.85v-99H343.5z"/>
	<path fill="#E94235" d="M399.84,82.31l11.52,7.68c-3.71,5.5-12.67,14.98-28.16,14.98c-19.2,0-33.54-14.85-33.54-33.79
		c0-20.1,14.46-33.79,31.87-33.79c17.54,0,26.11,13.95,28.93,21.5l1.54,3.84l-45.19,18.69c3.46,6.78,8.83,10.24,16.38,10.24
		C390.75,91.65,396,87.94,399.84,82.31z M364.38,70.15l30.21-12.54c-1.66-4.22-6.66-7.17-12.54-7.17
		C374.49,50.43,364,57.09,364.38,70.15z"/>
</g>
</svg>
