<svg width="2813" height="981" viewBox="0 0 2813 981" fill="none" xmlns="http://www.w3.org/2000/svg">
<path fill-rule="evenodd" clip-rule="evenodd" d="M277.902 253.308C262.159 239.865 252.178 219.872 252.178 197.548C252.178 157.069 284.993 124.254 325.472 124.254C365.95 124.254 398.765 157.069 398.765 197.548C398.765 209.187 396.052 220.193 391.223 229.967L484.105 292.59C496.855 270.989 520.369 256.499 547.268 256.499C574.468 256.499 598.207 271.315 610.855 293.317L703.81 230.954C698.671 220.937 695.771 209.581 695.771 197.548C695.771 157.069 728.585 124.254 769.064 124.254C809.543 124.254 842.357 157.069 842.357 197.548C842.357 219.386 832.806 238.993 817.654 252.421L894.537 386.929C896.838 386.711 899.17 386.599 901.528 386.599C942.007 386.599 974.821 419.414 974.821 459.893C974.821 500.371 942.007 533.186 901.528 533.186C891.445 533.186 881.838 531.15 873.095 527.467L617.513 761.645C619.496 768.293 620.561 775.337 620.561 782.63C620.561 823.109 587.747 855.923 547.268 855.923C506.789 855.923 473.975 823.109 473.975 782.63C473.975 774.882 475.177 767.414 477.406 760.404L223.163 527.281C214.304 531.081 204.544 533.186 194.293 533.186C153.814 533.186 121 500.371 121 459.893C121 419.414 153.814 386.599 194.293 386.599C196.769 386.599 199.217 386.722 201.63 386.962L277.902 253.308ZM325.472 270.841C343.031 270.841 359.148 264.666 371.77 254.369L474.245 323.459C474.066 325.546 473.975 327.658 473.975 329.792C473.975 335.178 474.556 340.429 475.659 345.484L261.86 431.442C255.739 416.925 245.076 404.791 231.651 396.822L305.17 267.993C311.617 269.847 318.428 270.841 325.472 270.841ZM847.137 509.021L601.876 733.743C592.046 722.77 578.956 714.777 564.129 711.286V401.136C596.48 393.52 620.561 364.468 620.561 329.792C620.561 327.994 620.496 326.212 620.369 324.447L723.704 255.121C736.182 264.966 751.937 270.841 769.064 270.841C776.52 270.841 783.715 269.727 790.494 267.658L864.284 396.754C842.706 409.51 828.235 433.011 828.235 459.893C828.235 478.793 835.389 496.023 847.137 509.021ZM532.977 401.692V710.729C517.451 713.798 503.687 721.77 493.367 732.966L248.888 508.795C259.934 496.47 266.869 480.384 267.534 462.694L488.648 373.794C499.293 387.952 514.946 398.129 532.977 401.692Z" fill="#8AC007"/>
<path d="M1154.59 319.219C1142.87 319.219 1132.26 317.306 1122.77 313.481C1113.27 309.575 1105.41 304.489 1099.2 298.223C1092.98 291.875 1087.74 284.469 1083.48 276.006C1079.22 267.542 1076.16 258.916 1074.29 250.127C1072.52 241.257 1071.63 232.183 1071.63 222.905C1071.63 214.279 1072.52 205.856 1074.29 197.637C1076.16 189.417 1079.22 181.401 1083.48 173.589C1087.74 165.695 1092.98 158.818 1099.2 152.959C1105.41 147.018 1113.31 142.257 1122.9 138.677C1132.49 135.015 1143.14 133.184 1154.86 133.184C1168.53 133.184 1181 136.439 1192.28 142.949C1203.55 149.378 1211.9 158.208 1217.31 169.438L1182.96 179.937C1181.62 175.705 1177.67 171.758 1171.1 168.096C1164.62 164.352 1159.21 162.48 1154.86 162.48C1147.4 162.48 1140.65 164.312 1134.62 167.974C1128.58 171.636 1123.79 176.437 1120.24 182.378C1116.68 188.319 1113.98 194.788 1112.11 201.787C1110.25 208.704 1109.32 215.744 1109.32 222.905C1109.32 230.962 1110.25 238.856 1112.11 246.587C1113.98 254.318 1116.68 261.479 1120.24 268.071C1123.79 274.663 1128.54 279.993 1134.48 284.062C1140.43 288.132 1147.14 290.166 1154.59 290.166C1160.9 290.166 1166.44 289.189 1171.24 287.236C1176.12 285.283 1179.94 282.842 1182.69 279.912C1185.53 276.901 1187.84 273.361 1189.61 269.292C1191.39 265.223 1192.59 261.398 1193.21 257.817C1193.83 254.155 1194.14 250.452 1194.14 246.709H1153.79V217.412H1231.16V235.234C1231.16 243.454 1230.36 251.388 1228.77 259.038C1227.26 266.688 1224.59 274.215 1220.78 281.621C1216.96 289.027 1212.21 295.496 1206.53 301.03C1200.85 306.483 1193.52 310.877 1184.55 314.214C1175.68 317.55 1165.69 319.219 1154.59 319.219Z" fill="#8AC007"/>
<path d="M1270.85 166.875C1267.03 162.969 1265.12 158.371 1265.12 153.081C1265.12 147.791 1267.03 143.234 1270.85 139.409C1274.75 135.503 1279.37 133.55 1284.7 133.55C1290.02 133.55 1294.59 135.503 1298.41 139.409C1302.32 143.234 1304.27 147.791 1304.27 153.081C1304.27 158.371 1302.32 162.969 1298.41 166.875C1294.59 170.7 1290.02 172.612 1284.7 172.612C1279.37 172.612 1274.75 170.7 1270.85 166.875ZM1267.52 184.941H1301.87V315.923H1267.52V184.941Z" fill="#8AC007"/>
<path d="M1418.13 217.412C1408.54 212.448 1401.62 209.966 1397.35 209.966C1392.47 209.966 1388.21 211.146 1384.57 213.506C1380.93 215.866 1378.13 219.04 1376.18 223.027C1374.32 226.934 1372.94 231.003 1372.05 235.234C1371.17 239.466 1370.72 243.861 1370.72 248.418V315.923H1336.36V184.941H1370.72V204.595C1374.45 198.084 1379.55 192.591 1386.04 188.115C1392.52 183.639 1398.46 181.401 1403.88 181.401C1408.32 181.401 1412.98 182.5 1417.86 184.697C1422.83 186.813 1427.23 189.539 1431.05 192.876L1418.13 217.412Z" fill="#8AC007"/>
<path d="M1487.24 281.621C1487.24 288.701 1491.37 292.241 1499.63 292.241V319.463C1483.2 319.463 1471.31 316.737 1463.94 311.284C1456.57 305.832 1452.89 296.147 1452.89 282.231V138.433H1487.24V281.621Z" fill="#8AC007"/>
<path d="M1554.76 255.986C1549.34 253.382 1545.08 251.104 1541.97 249.15C1538.96 247.197 1536.07 244.756 1533.32 241.826C1530.57 238.815 1528.61 235.356 1527.46 231.45C1526.3 227.463 1525.73 222.661 1525.73 217.046C1525.73 206.222 1530.17 197.637 1539.04 191.289C1548.01 184.86 1560 181.646 1575 181.646C1588.94 181.646 1600.43 185.308 1609.49 192.632C1618.54 199.956 1623.92 208.46 1625.6 218.145L1593.64 223.394C1592.67 218.104 1590.67 214.523 1587.65 212.651C1584.63 210.698 1580.59 209.722 1575.53 209.722C1570.2 209.722 1566.08 210.454 1563.15 211.919C1560.22 213.384 1558.75 216.191 1558.75 220.342C1558.75 223.027 1559.86 225.347 1562.08 227.3C1564.3 229.253 1566.83 230.758 1569.67 231.816C1572.6 232.793 1576.95 234.299 1582.72 236.333C1588.49 238.368 1593.51 240.321 1597.77 242.192C1607.98 246.75 1615.39 252.121 1620.01 258.306C1624.71 264.491 1627.07 272.71 1627.07 282.964C1627.07 293.462 1621.83 302.17 1611.35 309.087C1600.97 316.004 1588.45 319.463 1573.8 319.463C1559.42 319.463 1547.48 315.964 1537.98 308.965C1528.57 301.966 1522.44 292.485 1519.6 280.522L1550.5 275.762C1551.47 280.645 1554.14 284.469 1558.49 287.236C1562.84 290.003 1567.85 291.387 1573.53 291.387C1576.64 291.387 1579.26 291.265 1581.39 291.021C1583.52 290.776 1585.61 290.288 1587.65 289.556C1589.78 288.823 1591.38 287.643 1592.44 286.016C1593.51 284.388 1594.04 282.354 1594.04 279.912C1594.04 277.715 1593.29 275.721 1591.78 273.931C1590.36 272.059 1588.18 270.391 1585.25 268.926C1582.41 267.461 1579.48 266.159 1576.46 265.02C1573.53 263.799 1569.89 262.375 1565.54 260.747C1561.28 259.038 1557.69 257.451 1554.76 255.986Z" fill="#8AC007"/>
<path d="M1685.26 139.653C1685.26 144.292 1684.33 149.012 1682.46 153.813C1680.6 158.615 1678.29 162.847 1675.54 166.509C1672.79 170.171 1670.21 173.223 1667.82 175.664C1665.42 178.105 1663.29 180.018 1661.42 181.401L1651.57 176.152C1652.55 174.688 1653.79 172.287 1655.3 168.95C1656.81 165.614 1657.56 163.05 1657.56 161.26C1657.56 160.853 1657.47 160.405 1657.3 159.917C1653.12 159.022 1649.48 156.865 1646.38 153.447C1643.36 149.948 1641.85 145.35 1641.85 139.653C1641.85 134.771 1643.98 130.295 1648.24 126.226C1652.5 122.075 1657.43 120 1663.02 120C1670.04 120 1675.5 122.075 1679.4 126.226C1683.31 130.295 1685.26 134.771 1685.26 139.653Z" fill="#8AC007"/>
<path d="M1110.65 485.337H1120.1C1127.12 485.337 1132.93 485.215 1137.55 484.971C1142.25 484.645 1146.82 484.035 1151.26 483.14C1155.7 482.163 1159.16 480.82 1161.65 479.111C1164.22 477.321 1166.27 475.002 1167.78 472.153C1169.29 469.224 1170.04 465.643 1170.04 461.411C1170.04 457.179 1169.29 453.639 1167.78 450.791C1166.27 447.861 1164.22 445.542 1161.65 443.833C1159.16 442.043 1155.7 440.7 1151.26 439.805C1146.82 438.828 1142.25 438.218 1137.55 437.974C1132.93 437.648 1127.12 437.485 1120.1 437.485H1110.65V485.337ZM1074.96 408.188H1110.65C1117.75 408.188 1123.52 408.27 1127.96 408.433C1132.4 408.514 1138.35 408.921 1145.8 409.653C1153.26 410.304 1159.39 411.281 1164.18 412.583C1169.06 413.885 1174.43 415.838 1180.29 418.442C1186.15 421.047 1190.81 424.18 1194.28 427.842C1197.74 431.504 1200.62 436.224 1202.93 442.002C1205.33 447.699 1206.53 454.168 1206.53 461.411C1206.53 468.654 1205.33 475.124 1202.93 480.82C1200.62 486.517 1197.74 491.196 1194.28 494.858C1190.81 498.521 1186.15 501.694 1180.29 504.38C1174.52 506.984 1169.15 508.937 1164.18 510.239C1159.3 511.541 1153.13 512.559 1145.67 513.291C1138.3 513.942 1132.35 514.349 1127.83 514.512C1123.39 514.593 1117.66 514.634 1110.65 514.634V585.923H1074.96V408.188Z" fill="#8AC007"/>
<path d="M1316.66 487.412C1307.07 482.448 1300.14 479.966 1295.88 479.966C1291 479.966 1286.74 481.146 1283.1 483.506C1279.46 485.866 1276.66 489.04 1274.71 493.027C1272.84 496.934 1271.47 501.003 1270.58 505.234C1269.69 509.466 1269.25 513.861 1269.25 518.418V585.923H1234.89V454.941H1269.25V474.595C1272.98 468.084 1278.08 462.591 1284.56 458.115C1291.04 453.639 1296.99 451.401 1302.41 451.401C1306.85 451.401 1311.51 452.5 1316.39 454.697C1321.36 456.813 1325.76 459.539 1329.57 462.876L1316.66 487.412Z" fill="#8AC007"/>
<path d="M1378.71 520.371C1378.71 547.308 1388.57 560.776 1408.27 560.776C1427.98 560.776 1437.84 547.308 1437.84 520.371C1437.84 493.597 1427.98 480.21 1408.27 480.21C1388.57 480.21 1378.71 493.597 1378.71 520.371ZM1345.15 520.371C1345.15 499.212 1350.66 482.489 1361.67 470.2C1372.67 457.83 1388.17 451.646 1408.14 451.646C1428.12 451.646 1443.56 457.79 1454.48 470.078C1465.4 482.367 1470.86 499.131 1470.86 520.371C1470.86 541.611 1465.4 558.457 1454.48 570.908C1443.56 583.278 1428.12 589.463 1408.14 589.463C1388.08 589.463 1372.54 583.319 1361.53 571.03C1350.61 558.742 1345.15 541.855 1345.15 520.371Z" fill="#8AC007"/>
<path d="M1581.39 594.468V566.758C1576.77 573.431 1570.69 578.883 1563.15 583.115C1555.69 587.266 1548.14 589.341 1540.51 589.341C1532.07 589.341 1524.57 587.55 1518 583.97C1511.43 580.308 1506.15 575.343 1502.16 569.077C1498.16 562.729 1495.14 555.527 1493.1 547.471C1491.06 539.333 1490.04 530.503 1490.04 520.981C1490.04 511.46 1491.02 502.63 1492.97 494.492C1495.01 486.273 1498.03 478.949 1502.02 472.52C1506.02 466.009 1511.3 460.923 1517.87 457.261C1524.44 453.517 1531.99 451.646 1540.51 451.646C1548.23 451.646 1555.82 453.721 1563.28 457.871C1570.74 461.94 1576.77 467.311 1581.39 473.984V454.941H1615.75V592.026C1615.75 598.618 1614.42 604.884 1611.75 610.825C1609.09 616.766 1605.23 622.096 1600.17 626.816C1595.2 631.536 1588.67 635.28 1580.59 638.047C1572.6 640.814 1563.64 642.197 1553.69 642.197C1545.79 642.197 1538.51 641.221 1531.85 639.268C1525.28 637.314 1519.78 634.792 1515.34 631.699C1510.99 628.688 1507.22 625.189 1504.02 621.201C1500.91 617.214 1498.56 613.307 1496.96 609.482C1495.45 605.658 1494.48 601.833 1494.03 598.008C1507.17 597.438 1517.96 596.991 1526.39 596.665C1527.19 602.118 1529.81 606.512 1534.25 609.849C1538.78 613.185 1545.21 614.854 1553.56 614.854C1561.9 614.854 1568.61 613.022 1573.67 609.36C1578.82 605.78 1581.39 600.815 1581.39 594.468ZM1524.66 520.371C1524.66 526.882 1525.51 532.822 1527.19 538.193C1528.97 543.483 1531.28 547.715 1534.12 550.889C1536.96 554.062 1539.98 556.504 1543.17 558.213C1546.46 559.922 1549.7 560.776 1552.89 560.776C1556.36 560.776 1559.73 560.125 1563.01 558.823C1566.3 557.44 1569.45 555.283 1572.47 552.354C1575.49 549.424 1577.88 545.233 1579.66 539.78C1581.52 534.246 1582.46 527.777 1582.46 520.371C1582.46 513.047 1581.52 506.659 1579.66 501.206C1577.88 495.672 1575.49 491.481 1572.47 488.633C1569.45 485.703 1566.3 483.587 1563.01 482.285C1559.73 480.902 1556.36 480.21 1552.89 480.21C1549.43 480.21 1546.1 480.942 1542.91 482.407C1539.8 483.791 1536.82 485.988 1533.98 488.999C1531.14 492.01 1528.88 496.201 1527.19 501.572C1525.51 506.943 1524.66 513.21 1524.66 520.371Z" fill="#8AC007"/>
<path d="M1729.74 487.412C1720.15 482.448 1713.23 479.966 1708.96 479.966C1704.08 479.966 1699.82 481.146 1696.18 483.506C1692.54 485.866 1689.74 489.04 1687.79 493.027C1685.93 496.934 1684.55 501.003 1683.66 505.234C1682.77 509.466 1682.33 513.861 1682.33 518.418V585.923H1647.97V454.941H1682.33V474.595C1686.06 468.084 1691.16 462.591 1697.65 458.115C1704.13 453.639 1710.07 451.401 1715.49 451.401C1719.93 451.401 1724.59 452.5 1729.47 454.697C1734.44 456.813 1738.84 459.539 1742.66 462.876L1729.74 487.412Z" fill="#8AC007"/>
<path d="M1835.87 528.062C1831.26 523.993 1825.04 521.958 1817.23 521.958C1809.42 521.958 1802.94 524.033 1797.79 528.184C1792.73 532.253 1790.2 537.013 1790.2 542.466C1790.2 547.918 1792.73 552.638 1797.79 556.626C1802.85 560.614 1809.33 562.607 1817.23 562.607C1825.04 562.607 1831.26 560.654 1835.87 556.748C1840.49 552.76 1842.8 548 1842.8 542.466C1842.8 536.932 1840.49 532.131 1835.87 528.062ZM1805.91 495.469C1814.7 495.469 1822.42 497.544 1829.08 501.694C1835.74 505.763 1839.96 510.402 1841.73 515.61V505.601C1841.73 500.799 1840.98 496.608 1839.47 493.027C1838.05 489.447 1836.23 486.639 1834.01 484.604C1831.79 482.489 1829.12 480.82 1826.02 479.6C1823 478.298 1820.11 477.443 1817.36 477.036C1814.7 476.629 1811.86 476.426 1808.84 476.426C1804.76 476.426 1800.72 476.833 1796.72 477.646C1792.81 478.379 1789.93 479.111 1788.07 479.844C1786.2 480.495 1783.54 481.512 1780.08 482.896L1766.36 462.876C1770.35 459.946 1776.66 457.301 1785.27 454.941C1793.88 452.581 1801.74 451.401 1808.84 451.401C1816.12 451.401 1822.91 452.052 1829.21 453.354C1835.61 454.575 1841.73 456.691 1847.59 459.702C1853.45 462.713 1858.47 466.497 1862.64 471.055C1866.81 475.531 1870.1 481.227 1872.49 488.145C1874.98 495.062 1876.22 502.874 1876.22 511.582V585.923H1842V569.321C1840.13 574.53 1835.92 579.209 1829.35 583.359C1822.87 587.428 1815.23 589.463 1806.44 589.463C1792.86 589.463 1781.36 584.946 1771.95 575.913C1762.63 566.88 1757.97 555.649 1757.97 542.222C1757.97 528.794 1762.63 517.645 1771.95 508.774C1781.27 499.904 1792.59 495.469 1805.91 495.469Z" fill="#8AC007"/>
<path d="M2012.85 585.923H1978.49V520.127C1978.49 506.862 1977.07 496.852 1974.23 490.098C1971.39 483.343 1966.38 479.966 1959.18 479.966C1951.9 479.966 1946.89 483.343 1944.14 490.098C1941.38 496.771 1940.01 506.781 1940.01 520.127V585.923H1905.65V454.941H1940.01V474.229C1941.52 471.787 1943.34 469.386 1945.47 467.026C1947.69 464.585 1950.31 462.144 1953.32 459.702C1956.34 457.179 1959.81 455.186 1963.71 453.721C1967.71 452.174 1971.75 451.401 1975.83 451.401C1980.09 451.401 1984 452.093 1987.55 453.477C1991.1 454.86 1993.94 456.528 1996.07 458.481C1998.29 460.353 2000.24 462.591 2001.93 465.195C2003.71 467.799 2004.95 470.078 2005.66 472.031C2006.37 473.984 2007.04 475.897 2007.66 477.769L2008.59 480.698C2010.9 476.466 2013.83 472.275 2017.38 468.125C2020.93 463.893 2025.46 460.068 2030.96 456.65C2036.47 453.151 2041.88 451.401 2047.21 451.401C2058.93 451.401 2068.25 455.999 2075.17 465.195C2082.1 474.31 2085.56 487.371 2085.56 504.38V585.923H2051.2V520.127C2051.2 506.862 2049.78 496.852 2046.94 490.098C2044.19 483.343 2039.22 479.966 2032.03 479.966C2024.84 479.966 2019.82 483.343 2016.98 490.098C2014.23 496.852 2012.85 506.862 2012.85 520.127V585.923Z" fill="#8AC007"/>
<path d="M2222.72 585.923H2188.36V520.127C2188.36 506.862 2186.94 496.852 2184.1 490.098C2181.26 483.343 2176.25 479.966 2169.05 479.966C2161.77 479.966 2156.76 483.343 2154.01 490.098C2151.25 496.771 2149.88 506.781 2149.88 520.127V585.923H2115.52V454.941H2149.88V474.229C2151.39 471.787 2153.21 469.386 2155.34 467.026C2157.56 464.585 2160.18 462.144 2163.2 459.702C2166.21 457.179 2169.68 455.186 2173.58 453.721C2177.58 452.174 2181.62 451.401 2185.7 451.401C2189.96 451.401 2193.87 452.093 2197.42 453.477C2200.97 454.86 2203.81 456.528 2205.94 458.481C2208.16 460.353 2210.11 462.591 2211.8 465.195C2213.58 467.799 2214.82 470.078 2215.53 472.031C2216.24 473.984 2216.91 475.897 2217.53 477.769L2218.46 480.698C2220.77 476.466 2223.7 472.275 2227.25 468.125C2230.8 463.893 2235.33 460.068 2240.83 456.65C2246.34 453.151 2251.75 451.401 2257.08 451.401C2268.8 451.401 2278.12 455.999 2285.04 465.195C2291.97 474.31 2295.43 487.371 2295.43 504.38V585.923H2261.07V520.127C2261.07 506.862 2259.65 496.852 2256.81 490.098C2254.06 483.343 2249.09 479.966 2241.9 479.966C2234.71 479.966 2229.69 483.343 2226.85 490.098C2224.1 496.852 2222.72 506.862 2222.72 520.127V585.923Z" fill="#8AC007"/>
<path d="M2331.38 436.875C2327.57 432.969 2325.66 428.371 2325.66 423.081C2325.66 417.791 2327.57 413.234 2331.38 409.409C2335.29 405.503 2339.91 403.55 2345.23 403.55C2350.56 403.55 2355.13 405.503 2358.95 409.409C2362.86 413.234 2364.81 417.791 2364.81 423.081C2364.81 428.371 2362.86 432.969 2358.95 436.875C2355.13 440.7 2350.56 442.612 2345.23 442.612C2339.91 442.612 2335.29 440.7 2331.38 436.875ZM2328.06 454.941H2362.41V585.923H2328.06V454.941Z" fill="#8AC007"/>
<path d="M2430.86 585.923H2396.5V454.819H2430.86V474.595C2434.85 467.922 2440.71 462.388 2448.44 457.993C2456.25 453.599 2464.73 451.401 2473.87 451.401C2478.76 451.401 2483.59 452.581 2488.39 454.941C2493.27 457.22 2497.75 460.516 2501.84 464.829C2506.01 469.061 2509.34 474.635 2511.83 481.553C2514.4 488.47 2515.69 496.079 2515.69 504.38V585.923H2481.33V520.371C2481.33 512.233 2480.75 505.438 2479.6 499.985C2478.53 494.533 2476.89 490.423 2474.67 487.656C2472.45 484.808 2469.97 482.855 2467.21 481.797C2464.55 480.658 2461.27 480.088 2457.36 480.088C2454.25 480.088 2451.46 480.413 2448.97 481.064C2446.57 481.715 2444.18 482.936 2441.78 484.727C2439.47 486.517 2437.52 488.877 2435.92 491.807C2434.41 494.736 2433.17 498.643 2432.19 503.525C2431.3 508.327 2430.86 513.983 2430.86 520.493V585.923Z" fill="#8AC007"/>
<path d="M2631.28 594.468V566.758C2626.66 573.431 2620.58 578.883 2613.03 583.115C2605.57 587.266 2598.03 589.341 2590.39 589.341C2581.96 589.341 2574.46 587.55 2567.89 583.97C2561.32 580.308 2556.04 575.343 2552.04 569.077C2548.05 562.729 2545.03 555.527 2542.99 547.471C2540.94 539.333 2539.92 530.503 2539.92 520.981C2539.92 511.46 2540.9 502.63 2542.85 494.492C2544.9 486.273 2547.91 478.949 2551.91 472.52C2555.9 466.009 2561.19 460.923 2567.76 457.261C2574.32 453.517 2581.87 451.646 2590.39 451.646C2598.12 451.646 2605.71 453.721 2613.16 457.871C2620.62 461.94 2626.66 467.311 2631.28 473.984V454.941H2665.63V592.026C2665.63 598.618 2664.3 604.884 2661.64 610.825C2658.97 616.766 2655.11 622.096 2650.05 626.816C2645.08 631.536 2638.56 635.28 2630.48 638.047C2622.49 640.814 2613.52 642.197 2603.58 642.197C2595.68 642.197 2588.4 641.221 2581.74 639.268C2575.17 637.314 2569.66 634.792 2565.22 631.699C2560.87 628.688 2557.1 625.189 2553.91 621.201C2550.8 617.214 2548.45 613.307 2546.85 609.482C2545.34 605.658 2544.36 601.833 2543.92 598.008C2557.06 597.438 2567.84 596.991 2576.28 596.665C2577.08 602.118 2579.7 606.512 2584.13 609.849C2588.66 613.185 2595.1 614.854 2603.44 614.854C2611.79 614.854 2618.49 613.022 2623.55 609.36C2628.7 605.78 2631.28 600.815 2631.28 594.468ZM2574.55 520.371C2574.55 526.882 2575.39 532.822 2577.08 538.193C2578.85 543.483 2581.16 547.715 2584 550.889C2586.84 554.062 2589.86 556.504 2593.06 558.213C2596.34 559.922 2599.58 560.776 2602.78 560.776C2606.24 560.776 2609.61 560.125 2612.9 558.823C2616.18 557.44 2619.33 555.283 2622.35 552.354C2625.37 549.424 2627.77 545.233 2629.54 539.78C2631.41 534.246 2632.34 527.777 2632.34 520.371C2632.34 513.047 2631.41 506.659 2629.54 501.206C2627.77 495.672 2625.37 491.481 2622.35 488.633C2619.33 485.703 2616.18 483.587 2612.9 482.285C2609.61 480.902 2606.24 480.21 2602.78 480.21C2599.32 480.21 2595.99 480.942 2592.79 482.407C2589.68 483.791 2586.71 485.988 2583.87 488.999C2581.03 492.01 2578.76 496.201 2577.08 501.572C2575.39 506.943 2574.55 513.21 2574.55 520.371Z" fill="#8AC007"/>
<path d="M1074.96 855.923V678.188H1109.58L1185.89 792.935V678.188H1221.57V855.923H1186.42L1110.65 737.148V855.923H1074.96Z" fill="#8AC007"/>
<path d="M1285.36 776.455H1340.36C1339.74 769.131 1336.99 762.905 1332.1 757.778C1327.22 752.57 1320.78 749.966 1312.79 749.966C1304.89 749.966 1298.46 752.611 1293.48 757.9C1288.6 763.109 1285.89 769.294 1285.36 776.455ZM1313.99 831.387C1322.78 831.387 1329.62 828.701 1334.5 823.33L1364.86 835.293C1359.36 842.943 1351.86 848.883 1342.36 853.115C1332.86 857.347 1323.4 859.463 1313.99 859.463C1305.2 859.463 1296.81 857.713 1288.82 854.214C1280.83 850.715 1273.87 845.954 1267.92 839.932C1262.06 833.909 1257.4 826.585 1253.93 817.959C1250.47 809.333 1248.74 800.137 1248.74 790.371C1248.74 770.84 1254.96 754.564 1267.38 741.543C1279.81 728.441 1294.95 721.89 1312.79 721.89C1324.51 721.89 1334.99 724.86 1344.22 730.801C1353.54 736.66 1360.78 744.798 1365.93 755.215C1371.08 765.632 1373.65 777.35 1373.65 790.371V798.672H1285.23C1285.32 803.962 1286.07 808.682 1287.49 812.832C1288.91 816.901 1290.64 820.075 1292.69 822.354C1294.73 824.632 1297.08 826.504 1299.74 827.969C1302.41 829.352 1304.85 830.288 1307.07 830.776C1309.38 831.183 1311.68 831.387 1313.99 831.387Z" fill="#8AC007"/>
<path d="M1403.88 752.896H1385.1V724.941H1403.88V694.424H1438.24V724.941H1458.74V752.896H1438.24V819.668C1438.24 827.399 1443.16 831.265 1453.02 831.265H1458.21V857.754H1453.02C1443.52 857.754 1435.57 857.021 1429.18 855.557C1422.88 854.01 1417.86 851.65 1414.13 848.477C1410.41 845.221 1407.74 841.356 1406.14 836.88C1404.63 832.323 1403.88 826.748 1403.88 820.156V752.896Z" fill="#8AC007"/>
<path d="M1564.74 774.868L1545.84 855.923H1519.07L1477.12 724.941H1511.08L1533.45 806.606L1550.76 724.453H1581.66L1598.97 806.24L1621.61 724.941H1653.97L1612.02 855.923H1582.86L1564.74 774.868Z" fill="#8AC007"/>
<path d="M1708.43 790.371C1708.43 817.308 1718.29 830.776 1737.99 830.776C1757.7 830.776 1767.56 817.308 1767.56 790.371C1767.56 763.597 1757.7 750.21 1737.99 750.21C1718.29 750.21 1708.43 763.597 1708.43 790.371ZM1674.87 790.371C1674.87 769.212 1680.38 752.489 1691.39 740.2C1702.39 727.83 1717.89 721.646 1737.86 721.646C1757.84 721.646 1773.28 727.79 1784.2 740.078C1795.12 752.367 1800.58 769.131 1800.58 790.371C1800.58 811.611 1795.12 828.457 1784.2 840.908C1773.28 853.278 1757.84 859.463 1737.86 859.463C1717.8 859.463 1702.26 853.319 1691.25 841.03C1680.33 828.742 1674.87 811.855 1674.87 790.371Z" fill="#8AC007"/>
<path d="M1907.92 757.412C1898.33 752.448 1891.4 749.966 1887.14 749.966C1882.26 749.966 1878 751.146 1874.36 753.506C1870.72 755.866 1867.92 759.04 1865.97 763.027C1864.1 766.934 1862.73 771.003 1861.84 775.234C1860.95 779.466 1860.51 783.861 1860.51 788.418V855.923H1826.15V724.941H1860.51V744.595C1864.24 738.084 1869.34 732.591 1875.82 728.115C1882.3 723.639 1888.25 721.401 1893.67 721.401C1898.11 721.401 1902.77 722.5 1907.65 724.697C1912.62 726.813 1917.01 729.539 1920.83 732.876L1907.92 757.412Z" fill="#8AC007"/>
<path d="M2001.13 783.047L2056.8 855.923H2017.64L1976.23 798.916L1974.37 801.724V855.923H1940.01V678.433H1974.37V768.521L2011.79 724.941H2053.73L2001.13 783.047Z" fill="#8AC007"/>
</svg>
