<?xml version="1.0" encoding="UTF-8"?>
<svg width="1890px" height="600px" viewBox="0 0 1890 600" version="1.1" xmlns="http://www.w3.org/2000/svg" xmlns:xlink="http://www.w3.org/1999/xlink">
    <title>Navicat_Landscape_1890x600</title>
    <defs>
        <linearGradient x1="0%" y1="1.78123512%" x2="100%" y2="98.2187649%" id="linearGradient-1">
            <stop stop-color="color(display-p3 0.858 0.732 0.259)" offset="0%"></stop>
            <stop stop-color="color(display-p3 0.974 0.852 0.342)" offset="37.7731643%"></stop>
            <stop stop-color="color(display-p3 1.000 0.890 0.423)" offset="50.2431163%"></stop>
            <stop stop-color="color(display-p3 0.961 0.800 0.322)" offset="66.6876093%"></stop>
            <stop stop-color="color(display-p3 0.784 0.573 0.145)" offset="100%"></stop>
        </linearGradient>
        <path d="M207.942545,148.272531 C213.978869,147.674757 218.518991,142.674482 218.707428,136.762372 L218.706016,136.362208 C218.622737,115.308123 216.506178,94.1601714 212.390214,73.3361617 L210.673112,64.6518453 C207.350417,47.8485224 190.998777,36.8853228 174.22439,40.2122523 C173.040133,40.4472688 171.867874,40.7500377 170.735843,41.1120901 C131.457043,54.7698626 98.182808,80.1107048 74.4200342,114.436515 C50.7659466,148.604236 38.7229417,188.483633 39.5783169,229.787244 L39.7731053,232.377365 C39.9876549,233.86298 40.4703913,235.260375 41.2093169,236.534969 C46.6909167,245.992087 43.479731,258.109196 34.0381395,263.599265 C24.5972536,269.088628 12.4984941,265.873208 7.0176001,256.416089 C3.49870522,250.344478 1.29533783,243.713204 0.468192867,236.705761 C0.435022378,236.426282 0.408203684,236.144686 0.387736787,235.863796 L0.114609567,232.227745 C0.0884966287,231.886866 0.0722642617,231.547397 0.0645009557,231.205812 C-1.0943489,181.290577 13.3813937,133.109383 41.9298929,91.8714076 C70.5433215,50.5402723 110.642914,20.0368316 157.892512,3.6604905 C158.006138,3.62096821 158.222099,3.54756968 158.336432,3.51016466 C161.005597,2.63855713 163.767923,1.91798118 166.544363,1.36678645 C185.033029,-2.29819973 203.836462,1.46488641 219.495756,11.9644049 C235.156462,22.4653349 245.795014,38.4443358 249.455765,56.9612321 L251.172868,65.6448427 C256.641764,93.3153825 258.957346,121.513827 258.05398,149.455377 C258.045511,149.722152 258.032101,149.988222 258.010929,150.254292 L257.981993,150.667158 C257.079332,169.982264 241.999463,185.920331 222.731643,187.827987 C221.896029,187.911266 221.049829,187.967021 220.210686,187.995957 C219.733596,188.012189 219.256505,188.010777 218.779415,187.992428 L218.450533,187.98043 C215.256991,187.862569 212.004166,187.822341 208.78804,187.86398 L201.272454,188.557032 C200.901227,188.590908 200.529294,188.614904 200.156655,188.628313 C145.438052,190.559259 99.9846008,231.426713 92.0801438,285.798791 C88.4956137,310.449405 92.906583,334.981452 104.835961,356.747645 C116.388466,377.82502 134.65482,394.99957 156.270686,405.108101 L162.286543,407.888776 C176.525152,413.589865 191.514684,417.613375 206.845096,419.849913 C267.853389,428.748073 328.075471,408.997517 372.101179,365.655685 L374.166924,363.518659 C383.01427,354.257035 388.724535,342.513976 390.595491,329.649472 C392.465036,316.790614 390.337185,303.909172 384.444836,292.397601 L384.020677,291.56975 C363.567894,253.199964 330.595722,222.388108 291.162362,204.799985 C290.964045,204.710354 290.765728,204.618606 290.57094,204.524035 L289.599821,204.051885 C277.252635,198.047321 269.075757,186.300733 267.727059,172.629551 C267.37277,169.029494 267.512509,165.408971 268.144866,161.866786 C268.190034,161.611303 268.240849,161.357231 268.296603,161.103159 L268.425051,160.517382 C277.218759,120.205357 292.647271,81.8383933 314.275842,46.5012359 C314.331596,46.4094878 314.388057,46.3184454 314.445223,46.2288145 L315.036646,45.2979235 C320.744793,36.1696872 330.059348,29.7381411 340.609681,27.646283 C350.757028,25.6292349 361.085754,27.6596923 369.722784,33.3523129 L370.23234,33.6748429 C370.535814,33.8661026 370.833643,34.0658313 371.125826,34.274029 C420.262612,69.2434879 453.773275,121.131308 465.485281,180.380153 C469.040875,198.362793 470.507434,216.694782 469.845436,234.863035 L469.820735,235.501037 C469.806619,235.875088 469.781212,236.248432 469.74663,236.621071 C468.88208,245.694258 465.594673,254.406099 460.237286,261.815822 C453.83397,270.672342 441.474081,272.65128 432.632382,266.239495 C423.789976,259.825592 421.81245,247.44806 428.215061,238.590127 C429.357678,237.010648 430.088135,235.183448 430.340795,233.283555 C430.882109,218.243208 429.65833,203.020777 426.702627,188.072178 C417.8821,143.451518 394.199782,103.852306 359.463929,75.173948 L359.192919,74.9622214 C356.852635,73.1152604 353.823534,72.1370838 350.625052,72.4532621 C346.622009,72.8491907 343.27673,75.1810055 341.422711,78.4317135 L341.23004,78.7422457 C327.037305,104.166367 316.328883,131.201021 309.293211,159.376882 L309.247337,159.68318 C309.044785,160.770748 308.990442,161.905602 309.104774,163.062335 C309.511995,167.191708 311.969434,170.621678 315.367645,172.442526 C315.481271,172.503221 315.597015,172.562504 315.712759,172.620376 L315.940718,172.723416 C359.569086,194.414799 395.928177,229.747722 418.981667,273.078261 C419.03107,273.171421 419.080472,273.264581 419.128464,273.358446 L419.626727,274.331682 C429.288514,293.205691 432.778473,314.308474 429.718319,335.356208 C426.656048,356.414528 417.296324,375.650589 402.649082,390.983824 L400.3335,393.378451 C400.225519,393.48996 400.117539,393.598647 400.007441,393.707333 C374.701887,418.674831 343.582322,437.873486 310.013787,449.225557 C285.743575,457.432783 260.800778,461.552276 235.52416,461.552276 C224.122686,461.552276 212.656284,460.71525 201.148241,459.036258 C182.550183,456.323336 164.35864,451.414103 147.075403,444.444066 C146.771223,444.321971 146.469866,444.191406 146.172743,444.053784 L139.62263,441.026094 C110.378256,427.349972 85.7438746,404.199794 70.1798576,375.803032 C54.078761,346.428799 48.1235995,313.332414 52.9559046,280.092761 C63.5881051,206.962419 124.618276,151.948104 198.185481,149.074975 L205.922674,148.360751 C206.415997,148.315582 206.911437,148.288764 207.407583,148.281 L207.942545,148.272531 Z" id="path-2"></path>
        <filter x="-1.6%" y="-1.6%" width="103.2%" height="103.2%" filterUnits="objectBoundingBox" id="filter-3">
            <feOffset dx="0" dy="0" in="SourceAlpha" result="shadowOffsetOuter1"></feOffset>
            <feGaussianBlur stdDeviation="2.5" in="shadowOffsetOuter1" result="shadowBlurOuter1"></feGaussianBlur>
            <feColorMatrix values="0 0 0 0 0   0 0 0 0 0   0 0 0 0 0  0 0 0 0.5 0" type="matrix" in="shadowBlurOuter1"></feColorMatrix>
        </filter>
    </defs>
    <g id="Navicat_BrandLogo" stroke="none" stroke-width="1" fill="none" fill-rule="evenodd">
        <g id="Artboard" transform="translate(-669, -1949)">
            <g id="Landscape/Navicat_Landscape_BG" transform="translate(669, 1949)">
                <g id="Navicat" transform="translate(77, 69)">
                    <path d="M733.94,349.474323 C731.002,349.474323 728.516,348.570323 726.482,346.762323 C724.448,344.954323 722.414,342.468323 720.38,339.304323 L610.205,173.533323 L610.205,340.321323 C610.205,342.807323 609.301,344.954323 607.493,346.762323 C605.685,348.570323 603.538,349.474323 601.052,349.474323 L587.153,349.474323 C584.667,349.474323 582.52,348.570323 580.712,346.762323 C578.904,344.954323 578,342.807323 578,340.321323 L578,121.327323 C578,118.841323 578.904,116.694323 580.712,114.886323 C582.52,113.078323 584.667,112.174323 587.153,112.174323 L599.018,112.174323 C601.956,112.174323 604.442,113.078323 606.476,114.886323 C608.51,116.694323 610.544,119.180323 612.578,122.344323 L722.753,288.115323 L722.753,121.327323 C722.753,118.841323 723.657,116.694323 725.465,114.886323 C727.273,113.078323 729.42,112.174323 731.906,112.174323 L745.805,112.174323 C748.291,112.174323 750.438,113.078323 752.246,114.886323 C754.054,116.694323 754.958,118.841323 754.958,121.327323 L754.958,340.321323 C754.958,342.807323 754.054,344.954323 752.246,346.762323 C750.438,348.570323 748.291,349.474323 745.805,349.474323 L733.94,349.474323 Z" id="N" fill="color(display-p3 0.259 0.306 0.329)" fill-rule="nonzero"></path>
                    <path d="M914.624198,237.943323 L914.624198,233.536323 C914.624198,222.462323 910.951698,213.930823 903.606698,207.941823 C896.261698,201.952823 886.713198,198.958323 874.961198,198.958323 C865.921198,198.958323 858.858698,200.483823 853.773698,203.534823 C848.688698,206.585823 843.886198,211.162323 839.366198,217.264323 C838.010198,219.072323 836.541198,220.315323 834.959198,220.993323 C833.377198,221.671323 831.230198,222.010323 828.518198,222.010323 L818.348198,222.010323 C815.862198,222.010323 813.658698,221.106323 811.737698,219.298323 C809.816698,217.490323 808.969198,215.343323 809.195198,212.857323 C809.873198,206.077323 813.206698,199.353823 819.195698,192.686823 C825.184698,186.019823 833.151198,180.539323 843.095198,176.245323 C853.039198,171.951323 863.661198,169.804323 874.961198,169.804323 C895.979198,169.804323 912.985698,175.680323 925.980698,187.432323 C938.975698,199.184323 945.473198,215.682323 945.473198,236.926323 L945.473198,340.321323 C945.473198,342.807323 944.569198,344.954323 942.761198,346.762323 C940.953198,348.570323 938.806198,349.474323 936.320198,349.474323 L923.777198,349.474323 C921.291198,349.474323 919.144198,348.570323 917.336198,346.762323 C915.528198,344.954323 914.624198,342.807323 914.624198,340.321323 L914.624198,326.422323 C911.008198,334.558323 903.324198,340.999323 891.572198,345.745323 C879.820198,350.491323 868.068198,352.864323 856.316198,352.864323 C844.790198,352.864323 834.507198,350.773823 825.467198,346.592823 C816.427198,342.411823 809.477698,336.705323 804.618698,329.473323 C799.759698,322.241323 797.330198,314.105323 797.330198,305.065323 C797.330198,288.115323 803.658198,274.837823 816.314198,265.232823 C828.970198,255.627823 845.807198,249.130323 866.825198,245.740323 L914.624198,237.943323 Z M914.625099,265.063323 L874.622682,271.504323 C859.932529,273.764323 848.51941,277.436823 840.383326,282.521823 C832.247241,287.606823 828.179198,293.991323 828.179198,301.675323 C828.179198,307.325323 830.778225,312.410323 835.97628,316.930323 C841.174334,321.450323 849.084416,323.710323 859.706527,323.710323 C875.978696,323.710323 889.199834,319.077323 899.36994,309.811323 C909.540046,300.545323 914.625099,288.454323 914.625099,273.538323 L914.625099,265.063323 Z" id="a" fill="color(display-p3 0.259 0.306 0.329)" fill-rule="nonzero"></path>
                    <path d="M1066.4934,349.474323 C1071.0134,349.474323 1074.4034,346.649323 1076.6634,340.999323 L1144.1244,183.703323 C1144.3504,183.025323 1144.4634,182.234323 1144.4634,181.330323 C1144.4634,179.070323 1143.6724,177.149323 1142.0904,175.567323 C1140.5084,173.985323 1138.5874,173.194323 1136.3274,173.194323 L1122.4284,173.194323 C1117.9084,173.194323 1114.6314,175.906323 1112.5974,181.330323 L1060.0524,304.387323 L1007.5074,181.330323 C1005.4734,175.906323 1001.7444,173.194323 996.320397,173.194323 L983.777397,173.194323 C981.517397,173.194323 979.596397,173.985323 978.014397,175.567323 C976.432397,177.149323 975.641397,179.070323 975.641397,181.330323 C975.641397,182.234323 975.754397,183.025323 975.980397,183.703323 L1043.4414,340.999323 C1045.7014,346.649323 1049.2044,349.474323 1053.9504,349.474323 L1066.4934,349.474323 Z" id="v" fill="color(display-p3 0.259 0.306 0.329)" fill-rule="nonzero"></path>
                    <path d="M1214.9726,137.260323 C1214.9726,139.746323 1214.0686,141.893323 1212.2606,143.701323 C1210.4526,145.509323 1208.3056,146.413323 1205.8196,146.413323 L1186.4966,146.413323 C1184.0106,146.413323 1181.8636,145.509323 1180.0556,143.701323 C1178.2476,141.893323 1177.3436,139.746323 1177.3436,137.260323 L1177.3436,117.937323 C1177.3436,115.451323 1178.2476,113.304323 1180.0556,111.496323 C1181.8636,109.688323 1184.0106,108.784323 1186.4966,108.784323 L1205.8196,108.784323 C1208.3056,108.784323 1210.4526,109.688323 1212.2606,111.496323 C1214.0686,113.304323 1214.9726,115.451323 1214.9726,117.937323 L1214.9726,137.260323 Z M1211.5826,340.321323 C1211.5826,342.807323 1210.6786,344.954323 1208.8706,346.762323 C1207.0626,348.570323 1204.9156,349.474323 1202.4296,349.474323 L1189.8866,349.474323 C1187.4006,349.474323 1185.2536,348.570323 1183.4456,346.762323 C1181.6376,344.954323 1180.7336,342.807323 1180.7336,340.321323 L1180.7336,182.347323 C1180.7336,179.861323 1181.6376,177.714323 1183.4456,175.906323 C1185.2536,174.098323 1187.4006,173.194323 1189.8866,173.194323 L1202.4296,173.194323 C1204.9156,173.194323 1207.0626,174.098323 1208.8706,175.906323 C1210.6786,177.714323 1211.5826,179.861323 1211.5826,182.347323 L1211.5826,340.321323 Z" id="i" fill="color(display-p3 0.259 0.306 0.329)" fill-rule="nonzero"></path>
                    <path d="M1333.95879,323.710323 C1356.55879,323.710323 1371.81379,314.896323 1379.72379,297.268323 C1381.30579,293.878323 1382.88779,291.505323 1384.46979,290.149323 C1386.05179,288.793323 1388.19879,288.115323 1390.91079,288.115323 L1401.08079,288.115323 C1403.56679,288.115323 1405.71379,288.962823 1407.52179,290.657823 C1409.32979,292.352823 1410.23379,294.330323 1410.23379,296.590323 C1410.23379,304.274323 1407.18279,312.523323 1401.08079,321.337323 C1394.97879,330.151323 1386.16479,337.609323 1374.63879,343.711323 C1363.11279,349.813323 1349.55279,352.864323 1333.95879,352.864323 C1317.91279,352.864323 1304.01379,349.474323 1292.26179,342.694323 C1280.50979,335.914323 1271.46979,326.591823 1265.14179,314.726823 C1258.81379,302.861823 1255.31079,289.584323 1254.63279,274.894323 C1254.40679,272.182323 1254.29379,266.984323 1254.29379,259.300323 C1254.29379,253.876323 1254.40679,250.034323 1254.63279,247.774323 C1256.66679,224.722323 1264.46379,205.964323 1278.02379,191.500323 C1291.58379,177.036323 1310.22879,169.804323 1333.95879,169.804323 C1349.55279,169.804323 1363.05629,172.798823 1374.46929,178.787823 C1385.88229,184.776823 1394.58329,192.121823 1400.57229,200.822823 C1406.56129,209.523823 1409.78179,217.716323 1410.23379,225.400323 C1410.45979,227.886323 1409.61229,230.033323 1407.69129,231.841323 C1405.77029,233.649323 1403.56679,234.553323 1401.08079,234.553323 L1390.91079,234.553323 C1388.19879,234.553323 1386.05179,233.875323 1384.46979,232.519323 C1382.88779,231.163323 1381.30579,228.790323 1379.72379,225.400323 C1371.81379,207.772323 1356.55879,198.958323 1333.95879,198.958323 C1321.52879,198.958323 1310.68079,203.139323 1301.41479,211.501323 C1292.14879,219.863323 1286.83779,232.519323 1285.48179,249.469323 C1285.25579,251.955323 1285.14279,256.023323 1285.14279,261.673323 C1285.14279,266.871323 1285.25579,270.713323 1285.48179,273.199323 C1287.06379,290.149323 1292.43129,302.805323 1301.58429,311.167323 C1310.73729,319.529323 1321.52879,323.710323 1333.95879,323.710323 Z" id="c" fill="color(display-p3 0.259 0.306 0.329)" fill-rule="nonzero"></path>
                    <path d="M1556.00099,237.943323 L1556.00099,233.536323 C1556.00099,222.462323 1552.32849,213.930823 1544.98349,207.941823 C1537.63849,201.952823 1528.08999,198.958323 1516.33799,198.958323 C1507.29799,198.958323 1500.23549,200.483823 1495.15049,203.534823 C1490.06549,206.585823 1485.26299,211.162323 1480.74299,217.264323 C1479.38699,219.072323 1477.91799,220.315323 1476.33599,220.993323 C1474.75399,221.671323 1472.60699,222.010323 1469.89499,222.010323 L1459.72499,222.010323 C1457.23899,222.010323 1455.03549,221.106323 1453.11449,219.298323 C1451.19349,217.490323 1450.34599,215.343323 1450.57199,212.857323 C1451.24999,206.077323 1454.58349,199.353823 1460.57249,192.686823 C1466.56149,186.019823 1474.52799,180.539323 1484.47199,176.245323 C1494.41599,171.951323 1505.03799,169.804323 1516.33799,169.804323 C1537.35599,169.804323 1554.36249,175.680323 1567.35749,187.432323 C1580.35249,199.184323 1586.84999,215.682323 1586.84999,236.926323 L1586.84999,340.321323 C1586.84999,342.807323 1585.94599,344.954323 1584.13799,346.762323 C1582.32999,348.570323 1580.18299,349.474323 1577.69699,349.474323 L1565.15399,349.474323 C1562.66799,349.474323 1560.52099,348.570323 1558.71299,346.762323 C1556.90499,344.954323 1556.00099,342.807323 1556.00099,340.321323 L1556.00099,326.422323 C1552.38499,334.558323 1544.70099,340.999323 1532.94899,345.745323 C1521.19699,350.491323 1509.44499,352.864323 1497.69299,352.864323 C1486.16699,352.864323 1475.88399,350.773823 1466.84399,346.592823 C1457.80399,342.411823 1450.85449,336.705323 1445.99549,329.473323 C1441.13649,322.241323 1438.70699,314.105323 1438.70699,305.065323 C1438.70699,288.115323 1445.03499,274.837823 1457.69099,265.232823 C1470.34699,255.627823 1487.18399,249.130323 1508.20199,245.740323 L1556.00099,237.943323 Z M1556.00099,265.063323 L1515.99899,271.504323 C1501.30899,273.764323 1489.89599,277.436823 1481.75999,282.521823 C1473.62399,287.606823 1469.55599,293.991323 1469.55599,301.675323 C1469.55599,307.325323 1472.15499,312.410323 1477.35299,316.930323 C1482.55099,321.450323 1490.46099,323.710323 1501.08299,323.710323 C1517.35499,323.710323 1530.57599,319.077323 1540.74599,309.811323 C1550.91599,300.545323 1556.00099,288.454323 1556.00099,273.538323 L1556.00099,265.063323 Z" id="a" fill="color(display-p3 0.259 0.306 0.329)" fill-rule="nonzero"></path>
                    <path d="M1680.75019,290.149323 C1680.75019,299.867323 1682.72769,307.325323 1686.68269,312.523323 C1690.63769,317.721323 1698.15219,320.320323 1709.22619,320.320323 L1727.19319,320.320323 C1729.67919,320.320323 1731.82619,321.224323 1733.63419,323.032323 C1735.44219,324.840323 1736.34619,326.987323 1736.34619,329.473323 L1736.34619,340.321323 C1736.34619,342.807323 1735.44219,344.954323 1733.63419,346.762323 C1731.82619,348.570323 1729.67919,349.474323 1727.19319,349.474323 L1705.83619,349.474323 C1686.62619,349.474323 1672.50119,344.445823 1663.46119,334.388823 C1654.42119,324.331823 1649.90119,309.585323 1649.90119,290.149323 L1649.90119,202.348323 L1624.81519,202.348323 C1622.32919,202.348323 1620.18219,201.444323 1618.37419,199.636323 C1616.56619,197.828323 1615.66219,195.681323 1615.66219,193.195323 L1615.66219,182.347323 C1615.66219,179.861323 1616.56619,177.714323 1618.37419,175.906323 C1620.18219,174.098323 1622.32919,173.194323 1624.81519,173.194323 L1649.90119,173.194323 L1649.90119,117.937323 C1649.90119,115.451323 1650.80519,113.304323 1652.61319,111.496323 C1654.42119,109.688323 1656.56819,108.784323 1659.05419,108.784323 L1671.59719,108.784323 C1674.08319,108.784323 1676.23019,109.688323 1678.03819,111.496323 C1679.84619,113.304323 1680.75019,115.451323 1680.75019,117.937323 L1680.75019,173.194323 L1723.80319,173.194323 C1726.28919,173.194323 1728.43619,174.098323 1730.24419,175.906323 C1732.05219,177.714323 1732.95619,179.861323 1732.95619,182.347323 L1732.95619,193.195323 C1732.95619,195.681323 1732.05219,197.828323 1730.24419,199.636323 C1728.43619,201.444323 1726.28919,202.348323 1723.80319,202.348323 L1680.75019,202.348323 L1680.75019,290.149323 Z" id="t" fill="color(display-p3 0.259 0.306 0.329)" fill-rule="nonzero"></path>
                    <g>
                        <use fill="black" fill-opacity="1" filter="url(#filter-3)" xlink:href="#path-2"></use>
                        <use fill="url(#linearGradient-1)" fill-rule="evenodd" xlink:href="#path-2"></use>
                    </g>
                </g>
            </g>
        </g>
    </g>
</svg>