<?xml version="1.0" encoding="UTF-8"?>
<svg width="1055px" height="1130px" viewBox="0 0 1055 1130" version="1.1" xmlns="http://www.w3.org/2000/svg" xmlns:xlink="http://www.w3.org/1999/xlink">
    <title>Navicat_Portrait_1055x1130</title>
    <defs>
        <linearGradient x1="0%" y1="1.83508249%" x2="100%" y2="98.1649175%" id="linearGradient-1">
            <stop stop-color="color(display-p3 0.858 0.732 0.259)" offset="0%"></stop>
            <stop stop-color="color(display-p3 0.974 0.852 0.342)" offset="37.7731643%"></stop>
            <stop stop-color="color(display-p3 1.000 0.890 0.423)" offset="50.2431163%"></stop>
            <stop stop-color="color(display-p3 0.961 0.800 0.322)" offset="66.6876093%"></stop>
            <stop stop-color="color(display-p3 0.784 0.573 0.145)" offset="100%"></stop>
        </linearGradient>
        <path d="M368.040493,214.401562 C376.773932,213.53785 383.343428,206.308141 383.616057,197.758008 L383.613727,197.179352 C383.493335,166.734263 380.430729,136.155578 374.475618,106.043701 L371.990891,93.4864711 C367.183771,69.188343 343.526437,53.3354902 319.256271,58.1472699 C317.543604,58.4866965 315.848024,58.9247665 314.210699,59.4482757 C257.380435,79.1963787 209.240113,115.840469 174.858608,165.474423 C140.635553,214.881575 123.212949,272.546812 124.451041,332.272688 L124.732213,336.018031 C125.042125,338.166438 125.741173,340.186687 126.809939,342.029066 C134.740249,355.704773 130.093911,373.22602 116.434515,381.164098 C102.775896,389.102175 85.2709599,384.45273 77.3414266,370.777799 C72.2500278,361.998534 69.0623694,352.409927 67.865444,342.276063 C67.8172874,341.872169 67.7784514,341.465168 67.748936,341.058943 L67.3543623,335.80055 C67.3163031,335.308109 67.2930015,334.817222 67.2813507,334.323228 C65.6044124,262.145757 86.5486641,192.476313 127.853074,132.845974 C169.251467,73.0820398 227.266228,28.9728944 295.628452,5.29225861 C295.793117,5.23555805 296.105358,5.12914743 296.270023,5.07555376 C300.132651,3.81571411 304.128875,2.77335603 308.145293,1.97644143 C334.894749,-3.32311833 362.10014,2.11780445 384.756282,17.300348 C407.413201,32.484445 422.807012,55.5910847 428.102688,82.3653958 L430.586639,94.9226262 C438.499084,134.933797 441.849854,175.709261 440.542634,216.112676 C440.530983,216.497929 440.510789,216.882405 440.481273,217.267658 L440.438554,217.864179 C439.132887,245.79425 417.314049,268.841082 389.438349,271.599214 C388.229773,271.719606 387.004886,271.800385 385.790096,271.842328 C385.100369,271.864852 384.410642,271.863299 383.720138,271.83689 L383.244008,271.819026 C378.623302,271.648924 373.917933,271.59067 369.265381,271.651254 L358.390526,272.653223 C357.853812,272.702933 357.315545,272.737109 356.776502,272.756527 C277.608551,275.549612 211.846785,334.64246 200.409585,413.26593 C195.224203,448.909606 201.60651,484.383956 218.866003,515.856646 C235.579461,546.335134 262.008132,571.170752 293.281981,585.785513 L301.984351,589.807369 C322.586069,598.050697 344.272088,603.869106 366.453655,607.103367 C454.720102,619.968956 541.850208,591.410519 605.546676,528.737768 L608.536271,525.647977 C621.336614,512.254996 629.597807,495.275122 632.304676,476.672681 C635.009991,458.078784 631.93185,439.453041 623.405796,422.807157 L622.792187,421.609455 C593.200713,366.126801 545.496131,321.572595 488.444503,296.140456 C488.157116,296.01152 487.870507,295.879478 487.588557,295.741222 L486.183471,295.058485 C468.318914,286.37631 456.48947,269.390223 454.537573,249.621925 C454.024938,244.416348 454.228438,239.181256 455.142638,234.059566 C455.207882,233.689847 455.280894,233.321682 455.361673,232.95507 L455.547309,232.107668 C468.270757,173.817948 490.592133,118.3384 521.8854,67.2403295 C521.966179,67.1082872 522.047735,66.9762448 522.130844,66.8465326 L522.985236,65.4997003 C531.244098,52.3008993 544.720965,43.0012322 559.984287,39.976685 C574.666623,37.0601018 589.610714,39.9961029 602.106583,48.2270035 L602.843691,48.6938122 C603.281761,48.9695478 603.71284,49.2592643 604.135376,49.5598549 C675.226993,100.125873 723.711402,175.156237 740.656323,260.829216 C745.801315,286.833021 747.922537,313.340917 746.964065,339.611914 L746.929112,340.534657 C746.908141,341.074478 746.871635,341.615075 746.821148,342.154118 C745.571406,355.273694 740.814773,367.871313 733.063886,378.585388 C723.799171,391.391945 705.916749,394.254158 693.124949,384.983229 C680.330043,375.708417 677.47016,357.808907 686.734098,345.001573 C688.386958,342.71724 689.443297,340.074839 689.809132,337.327581 C690.591289,315.579424 688.821144,293.567959 684.544525,271.952622 C671.783794,207.430501 637.519573,150.170711 587.264243,108.701637 L586.871223,108.395609 C583.486278,105.723693 579.103247,104.309286 574.473997,104.767551 C568.68355,105.339993 563.844585,108.711734 561.161018,113.411666 L560.882952,113.861387 C540.348032,150.625093 524.855577,189.716627 514.676663,230.458692 L514.609865,230.901423 C514.316265,232.475057 514.238593,234.115489 514.403258,235.787767 C514.992788,241.758413 518.547835,246.719323 523.464472,249.351627 C523.629137,249.440173 523.796131,249.525612 523.963903,249.608721 L524.294786,249.757851 C587.414927,281.123353 640.019834,332.215211 673.374516,394.87165 C673.445198,395.006023 673.517433,395.140395 673.586561,395.276321 L674.308133,396.683737 C688.286761,423.975344 693.336217,454.490338 688.908137,484.92533 C684.477727,515.376633 670.935616,543.190972 649.744367,565.362441 L646.393598,568.825058 C646.237477,568.986616 646.081356,569.14429 645.922129,569.300411 C609.309884,605.404681 564.286539,633.16465 515.718245,649.580624 C480.605069,661.448127 444.516333,667.404793 407.946031,667.404793 C391.450054,667.404793 374.860871,666.193886 358.211103,663.766636 C331.303973,659.844201 304.983266,652.744981 279.977547,642.665487 C279.537923,642.489172 279.102183,642.301206 278.67188,642.102365 L269.195898,637.723219 C226.884082,617.94793 191.24196,584.473634 168.724074,543.41156 C145.430245,500.935857 136.814091,453.079815 143.806124,405.014835 C159.188284,299.26753 247.486577,219.717433 353.924386,215.561982 L365.118473,214.529721 C365.833055,214.464476 366.549191,214.42564 367.26688,214.41399 L368.040493,214.401562 Z" id="path-2"></path>
        <filter x="-1.1%" y="-1.1%" width="102.2%" height="102.2%" filterUnits="objectBoundingBox" id="filter-3">
            <feOffset dx="0" dy="0" in="SourceAlpha" result="shadowOffsetOuter1"></feOffset>
            <feGaussianBlur stdDeviation="2.5" in="shadowOffsetOuter1" result="shadowBlurOuter1"></feGaussianBlur>
            <feColorMatrix values="0 0 0 0 0   0 0 0 0 0   0 0 0 0 0  0 0 0 0.5 0" type="matrix" in="shadowBlurOuter1"></feColorMatrix>
        </filter>
    </defs>
    <g id="Navicat_BrandLogo" stroke="none" stroke-width="1" fill="none" fill-rule="evenodd">
        <g id="Artboard" transform="translate(-157, -83)">
            <g id="Portrait/Navicat_BG" transform="translate(157, 83)">
                <g id="Navicat" transform="translate(114, 93)">
                    <path d="M111.32,942 C109.222667,942 107.448,941.354667 105.996,940.064 C104.544,938.773333 103.092,936.998667 101.64,934.74 L22.99,816.402 L22.99,935.466 C22.99,937.240667 22.3446667,938.773333 21.054,940.064 C19.7633333,941.354667 18.2306667,942 16.456,942 L6.534,942 C4.75933333,942 3.22666667,941.354667 1.936,940.064 C0.645333333,938.773333 0,937.240667 0,935.466 L0,779.134 C0,777.359333 0.645333333,775.826667 1.936,774.536 C3.22666667,773.245333 4.75933333,772.6 6.534,772.6 L15.004,772.6 C17.1013333,772.6 18.876,773.245333 20.328,774.536 C21.78,775.826667 23.232,777.601333 24.684,779.86 L103.334,898.198 L103.334,779.134 C103.334,777.359333 103.979333,775.826667 105.27,774.536 C106.560667,773.245333 108.093333,772.6 109.868,772.6 L119.79,772.6 C121.564667,772.6 123.097333,773.245333 124.388,774.536 C125.678667,775.826667 126.324,777.359333 126.324,779.134 L126.324,935.466 C126.324,937.240667 125.678667,938.773333 124.388,940.064 C123.097333,941.354667 121.564667,942 119.79,942 L111.32,942 Z" id="N" fill="color(display-p3 0.259 0.306 0.329)" fill-rule="nonzero"></path>
                    <path d="M240.304,862.382 L240.304,859.236 C240.304,851.330667 237.682333,845.240333 232.439,840.965 C227.195667,836.689667 220.379333,834.552 211.99,834.552 C205.536667,834.552 200.495,835.641 196.865,837.819 C193.235,839.997 189.806667,843.264 186.58,847.62 C185.612,848.910667 184.563333,849.798 183.434,850.282 C182.304667,850.766 180.772,851.008 178.836,851.008 L171.576,851.008 C169.801333,851.008 168.228333,850.362667 166.857,849.072 C165.485667,847.781333 164.880667,846.248667 165.042,844.474 C165.526,839.634 167.905667,834.834333 172.181,830.075 C176.456333,825.315667 182.143333,821.403333 189.242,818.338 C196.340667,815.272667 203.923333,813.74 211.99,813.74 C226.994,813.74 239.134333,817.934667 248.411,826.324 C257.687667,834.713333 262.326,846.490667 262.326,861.656 L262.326,935.466 C262.326,937.240667 261.680667,938.773333 260.39,940.064 C259.099333,941.354667 257.566667,942 255.792,942 L246.838,942 C245.063333,942 243.530667,941.354667 242.24,940.064 C240.949333,938.773333 240.304,937.240667 240.304,935.466 L240.304,925.544 C237.722667,931.352 232.237333,935.95 223.848,939.338 C215.458667,942.726 207.069333,944.42 198.68,944.42 C190.452,944.42 183.111333,942.927667 176.658,939.943 C170.204667,936.958333 165.243667,932.884667 161.775,927.722 C158.306333,922.559333 156.572,916.751333 156.572,910.298 C156.572,898.198 161.089333,888.719667 170.124,881.863 C179.158667,875.006333 191.178,870.368 206.182,867.948 L240.304,862.382 Z M240.304,881.742 L211.748,886.34 C201.261333,887.953333 193.114,890.575 187.306,894.205 C181.498,897.835 178.594,902.392667 178.594,907.878 C178.594,911.911333 180.449333,915.541333 184.16,918.768 C187.870667,921.994667 193.517333,923.608 201.1,923.608 C212.716,923.608 222.154,920.300667 229.414,913.686 C236.674,907.071333 240.304,898.44 240.304,887.792 L240.304,881.742 Z" id="a" fill="color(display-p3 0.259 0.306 0.329)" fill-rule="nonzero"></path>
                    <path d="M348.718,942 C351.944667,942 354.364667,939.983333 355.978,935.95 L404.136,823.662 C404.297333,823.178 404.378,822.613333 404.378,821.968 C404.378,820.354667 403.813333,818.983333 402.684,817.854 C401.554667,816.724667 400.183333,816.16 398.57,816.16 L388.648,816.16 C385.421333,816.16 383.082,818.096 381.63,821.968 L344.12,909.814 L306.61,821.968 C305.158,818.096 302.496,816.16 298.624,816.16 L289.67,816.16 C288.056667,816.16 286.685333,816.724667 285.556,817.854 C284.426667,818.983333 283.862,820.354667 283.862,821.968 C283.862,822.613333 283.942667,823.178 284.104,823.662 L332.262,935.95 C333.875333,939.983333 336.376,942 339.764,942 L348.718,942 Z" id="v" fill="color(display-p3 0.259 0.306 0.329)" fill-rule="nonzero"></path>
                    <path d="M454.712,790.508 C454.712,792.282667 454.066667,793.815333 452.776,795.106 C451.485333,796.396667 449.952667,797.042 448.178,797.042 L434.384,797.042 C432.609333,797.042 431.076667,796.396667 429.786,795.106 C428.495333,793.815333 427.85,792.282667 427.85,790.508 L427.85,776.714 C427.85,774.939333 428.495333,773.406667 429.786,772.116 C431.076667,770.825333 432.609333,770.18 434.384,770.18 L448.178,770.18 C449.952667,770.18 451.485333,770.825333 452.776,772.116 C454.066667,773.406667 454.712,774.939333 454.712,776.714 L454.712,790.508 Z M452.292,935.466 C452.292,937.240667 451.646667,938.773333 450.356,940.064 C449.065333,941.354667 447.532667,942 445.758,942 L436.804,942 C435.029333,942 433.496667,941.354667 432.206,940.064 C430.915333,938.773333 430.27,937.240667 430.27,935.466 L430.27,822.694 C430.27,820.919333 430.915333,819.386667 432.206,818.096 C433.496667,816.805333 435.029333,816.16 436.804,816.16 L445.758,816.16 C447.532667,816.16 449.065333,816.805333 450.356,818.096 C451.646667,819.386667 452.292,820.919333 452.292,822.694 L452.292,935.466 Z" id="i" fill="color(display-p3 0.259 0.306 0.329)" fill-rule="nonzero"></path>
                    <path d="M539.652,923.608 C555.785333,923.608 566.675333,917.316 572.322,904.732 C573.451333,902.312 574.580667,900.618 575.71,899.65 C576.839333,898.682 578.372,898.198 580.308,898.198 L587.568,898.198 C589.342667,898.198 590.875333,898.803 592.166,900.013 C593.456667,901.223 594.102,902.634667 594.102,904.248 C594.102,909.733333 591.924,915.622 587.568,921.914 C583.212,928.206 576.92,933.53 568.692,937.886 C560.464,942.242 550.784,944.42 539.652,944.42 C528.197333,944.42 518.275333,942 509.886,937.16 C501.496667,932.32 495.043333,925.665 490.526,917.195 C486.008667,908.725 483.508,899.246667 483.024,888.76 C482.862667,886.824 482.782,883.113333 482.782,877.628 C482.782,873.756 482.862667,871.013333 483.024,869.4 C484.476,852.944 490.042,839.553333 499.722,829.228 C509.402,818.902667 522.712,813.74 539.652,813.74 C550.784,813.74 560.423667,815.877667 568.571,820.153 C576.718333,824.428333 582.929667,829.671667 587.205,835.883 C591.480333,842.094333 593.779333,847.942667 594.102,853.428 C594.263333,855.202667 593.658333,856.735333 592.287,858.026 C590.915667,859.316667 589.342667,859.962 587.568,859.962 L580.308,859.962 C578.372,859.962 576.839333,859.478 575.71,858.51 C574.580667,857.542 573.451333,855.848 572.322,853.428 C566.675333,840.844 555.785333,834.552 539.652,834.552 C530.778667,834.552 523.034667,837.536667 516.42,843.506 C509.805333,849.475333 506.014,858.51 505.046,870.61 C504.884667,872.384667 504.804,875.288667 504.804,879.322 C504.804,883.032667 504.884667,885.775333 505.046,887.55 C506.175333,899.65 510.007,908.684667 516.541,914.654 C523.075,920.623333 530.778667,923.608 539.652,923.608 Z" id="c" fill="color(display-p3 0.259 0.306 0.329)" fill-rule="nonzero"></path>
                    <path d="M698.16,862.382 L698.16,859.236 C698.16,851.330667 695.538333,845.240333 690.295,840.965 C685.051667,836.689667 678.235333,834.552 669.846,834.552 C663.392667,834.552 658.351,835.641 654.721,837.819 C651.091,839.997 647.662667,843.264 644.436,847.62 C643.468,848.910667 642.419333,849.798 641.29,850.282 C640.160667,850.766 638.628,851.008 636.692,851.008 L629.432,851.008 C627.657333,851.008 626.084333,850.362667 624.713,849.072 C623.341667,847.781333 622.736667,846.248667 622.898,844.474 C623.382,839.634 625.761667,834.834333 630.037,830.075 C634.312333,825.315667 639.999333,821.403333 647.098,818.338 C654.196667,815.272667 661.779333,813.74 669.846,813.74 C684.85,813.74 696.990333,817.934667 706.267,826.324 C715.543667,834.713333 720.182,846.490667 720.182,861.656 L720.182,935.466 C720.182,937.240667 719.536667,938.773333 718.246,940.064 C716.955333,941.354667 715.422667,942 713.648,942 L704.694,942 C702.919333,942 701.386667,941.354667 700.096,940.064 C698.805333,938.773333 698.16,937.240667 698.16,935.466 L698.16,925.544 C695.578667,931.352 690.093333,935.95 681.704,939.338 C673.314667,942.726 664.925333,944.42 656.536,944.42 C648.308,944.42 640.967333,942.927667 634.514,939.943 C628.060667,936.958333 623.099667,932.884667 619.631,927.722 C616.162333,922.559333 614.428,916.751333 614.428,910.298 C614.428,898.198 618.945333,888.719667 627.98,881.863 C637.014667,875.006333 649.034,870.368 664.038,867.948 L698.16,862.382 Z M698.16,881.742 L669.604,886.34 C659.117333,887.953333 650.97,890.575 645.162,894.205 C639.354,897.835 636.45,902.392667 636.45,907.878 C636.45,911.911333 638.305333,915.541333 642.016,918.768 C645.726667,921.994667 651.373333,923.608 658.956,923.608 C670.572,923.608 680.01,920.300667 687.27,913.686 C694.53,907.071333 698.16,898.44 698.16,887.792 L698.16,881.742 Z" id="a" fill="color(display-p3 0.259 0.306 0.329)" fill-rule="nonzero"></path>
                    <path d="M787.214,899.65 C787.214,906.587333 788.625667,911.911333 791.449,915.622 C794.272333,919.332667 799.636667,921.188 807.542,921.188 L820.368,921.188 C822.142667,921.188 823.675333,921.833333 824.966,923.124 C826.256667,924.414667 826.902,925.947333 826.902,927.722 L826.902,935.466 C826.902,937.240667 826.256667,938.773333 824.966,940.064 C823.675333,941.354667 822.142667,942 820.368,942 L805.122,942 C791.408667,942 781.325333,938.410333 774.872,931.231 C768.418667,924.051667 765.192,913.524667 765.192,899.65 L765.192,836.972 L747.284,836.972 C745.509333,836.972 743.976667,836.326667 742.686,835.036 C741.395333,833.745333 740.75,832.212667 740.75,830.438 L740.75,822.694 C740.75,820.919333 741.395333,819.386667 742.686,818.096 C743.976667,816.805333 745.509333,816.16 747.284,816.16 L765.192,816.16 L765.192,776.714 C765.192,774.939333 765.837333,773.406667 767.128,772.116 C768.418667,770.825333 769.951333,770.18 771.726,770.18 L780.68,770.18 C782.454667,770.18 783.987333,770.825333 785.278,772.116 C786.568667,773.406667 787.214,774.939333 787.214,776.714 L787.214,816.16 L817.948,816.16 C819.722667,816.16 821.255333,816.805333 822.546,818.096 C823.836667,819.386667 824.482,820.919333 824.482,822.694 L824.482,830.438 C824.482,832.212667 823.836667,833.745333 822.546,835.036 C821.255333,836.326667 819.722667,836.972 817.948,836.972 L787.214,836.972 L787.214,899.65 Z" id="t" fill="color(display-p3 0.259 0.306 0.329)" fill-rule="nonzero"></path>
                    <g>
                        <use fill="black" fill-opacity="1" filter="url(#filter-3)" xlink:href="#path-2"></use>
                        <use fill="url(#linearGradient-1)" fill-rule="evenodd" xlink:href="#path-2"></use>
                    </g>
                </g>
            </g>
        </g>
    </g>
</svg>